<?xml version="1.0" encoding="utf-8"?>
<!-- Generator: Adobe Illustrator 21.1.0, SVG Export Plug-In . SVG Version: 6.00 Build 0)  -->
<svg version="1.1" id="圖層_1" xmlns="http://www.w3.org/2000/svg" xmlns:xlink="http://www.w3.org/1999/xlink" x="0px" y="0px"
	 viewBox="0 0 31 22.4" style="enable-background:new 0 0 31 22.4;" xml:space="preserve">
<style type="text/css">
	.st0{fill:#A8A8A8;}
</style>
<path class="st0" d="M31,21V1.4c0-0.4-0.1-0.7-0.4-0.9c0,0,0,0,0,0C30.4,0.2,30,0,29.6,0H1.4C1,0,0.6,0.2,0.4,0.4c0,0,0,0,0,0
	C0.1,0.7,0,1,0,1.4V21c0,0.4,0.1,0.7,0.4,0.9c0,0,0,0,0,0c0.3,0.3,0.6,0.5,1,0.5h28.2c0.4,0,0.8-0.2,1-0.4c0,0,0,0,0,0
	C30.9,21.7,31,21.4,31,21z M6.9,15.3c-0.3-0.3-0.7-0.3-1,0L1.4,20V2.4l8.4,8.8l-2.3,2.4c-0.3,0.3-0.3,0.7,0,1
	c0.1,0.1,0.3,0.2,0.5,0.2c0.2,0,0.4-0.1,0.5-0.2l2.2-2.3l3.2,3.4c0.4,0.4,0.9,0.6,1.5,0.6c0.6,0,1.1-0.2,1.5-0.6l3.2-3.4l8.4,8.8
	H2.3l4.5-4.7C7.2,16,7.2,15.5,6.9,15.3z M16,14.6c-0.1,0.1-0.3,0.2-0.5,0.2s-0.3-0.1-0.5-0.2L2.3,1.4h26.3L16,14.6z M21.2,11.2
	l8.4-8.8V20L21.2,11.2z"/>
</svg>
