<?xml version="1.0" encoding="utf-8"?>
<!-- Generator: Adobe Illustrator 21.1.0, SVG Export Plug-In . SVG Version: 6.00 Build 0)  -->
<svg version="1.1" id="圖層_1" xmlns="http://www.w3.org/2000/svg" xmlns:xlink="http://www.w3.org/1999/xlink" x="0px" y="0px"
	 viewBox="0 0 97.6 81.1" style="enable-background:new 0 0 97.6 81.1;" xml:space="preserve">
<style type="text/css">
	.st0{fill:#9E85C6;}
</style>
<g>
	<path class="st0" d="M46.1,24.3l11.1,6.4c0.2,0.1,0.3,0.1,0.5,0.1s0.3,0,0.5-0.1l21.7-12.5c0.3-0.2,0.5-0.5,0.5-0.9
		s-0.2-0.7-0.5-0.9l-11.1-6.4c-0.3-0.2-0.7-0.2-1,0L46.1,22.6c-0.3,0.2-0.5,0.5-0.5,0.9S45.8,24.2,46.1,24.3z M68.3,12.1l9.1,5.3
		L57.8,28.7l-9.1-5.3L68.3,12.1z"/>
	<path class="st0" d="M70.4,57.4l-9,5.2c-0.3-0.6-0.8-1.1-1.4-1.4c-2.4-1.4-6,0.3-8,3.9c-0.7,1.2-1.1,2.5-1.3,3.7l-2.5,1.4v-6.3
		l22-12.7c0-0.8,0-1.6,0-2.3L67,50.7v-8.9l3.2-1.9v-2.3L48.2,50.4v-4.3l22.1-12.7v-2.3L33.1,52.5L7.3,37.5L51,12.3
		c-0.5-0.5-0.9-1-1.4-1.5L4.7,36.7c-0.3,0.2-0.5,0.5-0.5,0.9v6H1c-0.6,0-1,0.5-1,1v3.9c0,0.6,0.4,1,1,1s1-0.4,1-1v-2.9h2.2V64
		c0,0.4,0.2,0.7,0.5,0.9l27.9,16.1c0.2,0.1,0.3,0.1,0.5,0.1s0.3,0,0.5-0.1l17.1-9.8c0.3,1.3,0.9,2.3,1.9,2.9
		c0.6,0.3,1.2,0.5,1.9,0.5c2.1,0,4.6-1.6,6.2-4.4c1.1-1.9,1.5-3.9,1.3-5.5l8.8-5C70.6,58.8,70.5,58.1,70.4,57.4z M58,47.1L65,43v8.9
		L58,56V47.1z M48.2,52.7l7.8-4.5v8.9l-7.8,4.5V52.7z M32.1,78.3L30,77.1v-2.5L27.1,73v2.4l-16.6-9.6v-2.5l-2.9-1.6v2.4l-1.4-0.8
		v-4.7l0,0l25.9,14.9V78.3z M32.1,71.3L6.2,56.3V45.9l23.1,13.4h-0.5c-0.6,0-1,0.4-1,1v3.9c0,0.6,0.4,1,1,1s1-0.4,1-1v-2.9h2.2
		L32.1,71.3L32.1,71.3z M32.1,58.5L32.1,58.5L6.2,43.5v-4.3l25.9,14.9C32.1,54.2,32.1,58.5,32.1,58.5z M36.9,76.7l-2.8,1.6v-4.7
		l2.8-1.6V76.7z M36.9,69.7l-2.8,1.6V60.8l2.8-1.6V69.7z M36.9,56.9l-2.8,1.6v-4.3l2.8-1.6V56.9z M41.6,74L39,75.6V58l2.6-1.5V74z
		 M46.2,71.4l-2.6,1.5V55.4l2.6-1.5V71.4z M46.2,51.5L39,55.7v-4.3l7.2-4.2V51.5z M58.9,69.1c-1.4,2.5-3.9,4-5.3,3.2
		c-0.8-0.5-1-1.6-1-2.2c0-1.2,0.4-2.7,1.1-4c1.2-2,3-3.4,4.4-3.4c0.3,0,0.6,0.1,0.9,0.2C60.4,63.7,60.3,66.6,58.9,69.1z"/>
	<path class="st0" d="M97.6,17.1c0,0-0.2-0.7-0.5-0.9L69.2,0.1c-0.3-0.2-0.7-0.2-1,0L37.8,17.7c0.4,0.5,0.9,1,1.3,1.5L68.7,2.2
		l25.9,14.9L67.5,32.8c0.2,0.7,0.3,1.5,0.2,2.2l27.9-16.1v4.3l0,0L67,39.6c0,0.8,0,1.6,0,2.3l4.9-2.8V48l-4.9,2.8c0,0.8,0,1.5,0,2.3
		l28.7-16.5V43l-8,4.6c-0.3-0.6-0.8-1-1.3-1.4c-2.4-1.4-6,0.3-8.1,3.9c-0.7,1.2-1.1,2.5-1.3,3.6l-10,5.7c0,0.8,0,1.5,0,2.3l10-5.7
		c0.2,1.3,0.9,2.4,1.9,3c0.6,0.3,1.2,0.5,1.9,0.5c2.1,0,4.6-1.6,6.2-4.4c1.1-1.9,1.5-3.9,1.3-5.6l8.9-5.1c0.3-0.2,0.5-0.5,0.5-0.9
		L97.6,17.1z M85.1,54.2c-1.4,2.5-3.9,4-5.3,3.2c-1.4-0.8-1.4-3.7,0.1-6.2c1.4-2.5,3.9-4,5.3-3.2C86.6,48.8,86.6,51.7,85.1,54.2z
		 M80.9,42.8l-7.1,4.1V38l7.1-4.1V42.8z M88.7,38.3l-5.8,3.4v-8.9l5.8-3.4V38.3z M95.6,34.3l-4.9,2.8v-8.9l4.9-2.8V34.3z"/>
</g>
</svg>
