<?xml version="1.0" encoding="iso-8859-1"?>
<!-- Generator: Adobe Illustrator 16.0.0, SVG Export Plug-In . SVG Version: 6.00 Build 0)  -->
<!DOCTYPE svg PUBLIC "-//W3C//DTD SVG 1.1//EN" "http://www.w3.org/Graphics/SVG/1.1/DTD/svg11.dtd">
<svg version="1.1" id="&#x5716;&#x5C64;_1" xmlns="http://www.w3.org/2000/svg" xmlns:xlink="http://www.w3.org/1999/xlink" x="0px"
	 y="0px" width="230px" height="230px" viewBox="0 0 230 230" style="enable-background:new 0 0 230 230;" xml:space="preserve">
<g>
	<path style="fill:#EEF5E8;" d="M230,115c0,63.517-51.484,115-115,115S0,178.517,0,115C0,51.483,51.484,0,115,0S230,51.483,230,115z
		"/>
	<g>
		<g>
			<g>
				<path style="fill:#807E74;" d="M101.279,49.267c-0.266-2.022-1.539-3.717-3.216-4.321c-0.17-0.054-0.35-0.108-0.515-0.154
					c-0.106-0.026-0.243-0.065-0.29-0.026c-0.006-0.079,0-0.176,0-0.253c0.004-0.286,0.002-0.581-0.04-0.855
					c-0.288-1.947-2.236-3.059-3.953-3.019c-1.494,0.039-2.769,0.771-3.792,1.48c-4.492,3.069-7.9,4.487-9.573,9.663
					c-1.059,3.255-1.389,7.037-0.943,10.486c0.001,0.023,0.009,0.034,0.012,0.048c0.517,2.02,1.311,3.76,2.288,5.472
					c0.61,0.301,1.117,0.692,1.531,1.136c-0.002-0.013-0.006-0.03-0.008-0.046c0.098,0.026,0.207,0.051,0.304,0.064
					c9.371,1.121,15.623-8.292,17.631-15.079C101.144,52.417,101.497,50.858,101.279,49.267z M97.873,53.022
					c-1.938,6.537-7.409,13.39-14.069,12.991c-0.002,0-0.004,0.002-0.005,0.002c-0.006,0-0.008-0.002-0.011-0.002
					c-0.012-0.001-0.023,0-0.038-0.001l0.007-0.005c-0.076-0.002-0.138-0.023-0.218-0.049c-0.039,0.003-0.08,0.009-0.118,0.009
					c-0.181,0.006-0.323-0.044-0.43-0.114c-0.061-0.006-0.107-0.009-0.142-0.025c-0.006,0.006-0.014,0.014-0.021,0.02
					c-0.195-0.065-0.389-0.159-0.585-0.271c0.039-1.219-0.146-2.325-0.27-3.029c-0.519-3.207-0.252-6.797,0.751-9.854
					c0-0.001,0-0.001,0-0.001c1.466-4.553,4.449-5.428,8.409-8.134c0.681-0.465,1.482-0.954,2.217-0.967
					c0.451-0.009,0.917,0.28,0.944,0.512c0.023,0.119,0.012,0.247,0.01,0.371c-0.01,0.487-0.016,1.228,0.446,1.924
					c0.223,0.336,0.501,0.559,0.795,0.741c-0.018,0.01-0.025,0.021-0.033,0.033c0.223,0.088,0.431,0.174,0.637,0.267
					c0.022,0.009,0.054,0.034,0.075,0.043c0-0.001,0.002-0.003,0.002-0.006c0.173,0.061,0.357,0.118,0.517,0.159l0.324,0.101
					c0.632,0.224,1.172,1.015,1.287,1.923C98.506,50.755,98.179,51.973,97.873,53.022z"/>
			</g>
			<g>
				<path style="fill:#807E74;" d="M70.727,71.253c-2.327,0-4.798-0.54-7.865-1.923c-0.682-0.34-1.365-0.606-2.026-0.865
					c-2.197-0.869-4.683-1.854-5.664-4.817c-1.632-4.913,1.29-6.317,3.031-7.15c0.594-0.278,1.162-0.549,1.473-0.869l0.152-0.127
					c0.891-0.668,1.745-1.497,2.681-2.379c3.13-3.011,7.039-6.753,12.757-3.255c3.079,2.045,4.006,5.824,4.905,9.473
					c0.513,2.102,1.014,4.087,1.848,5.655c0.283,0.5,0.196,1.102-0.138,1.516c0.093,0.12,0.169,0.266,0.233,0.418
					c0.249,0.713-0.135,1.498-0.848,1.754l-0.615,0.211C76.851,70.226,73.919,71.253,70.727,71.253z M61.54,57.646
					c-0.644,0.615-1.433,0.993-2.139,1.332c-1.715,0.814-2.49,1.193-1.63,3.799c0.563,1.668,1.854,2.247,4.082,3.129
					c0.715,0.278,1.451,0.574,2.185,0.942c6.167,2.771,9.142,1.756,15.595-0.503c-0.008-0.013-0.017-0.036-0.022-0.051
					c-1.02-1.87-1.565-4.117-2.109-6.295c-0.799-3.284-1.574-6.391-3.705-7.811c-3.697-2.252-5.976-0.356-9.392,2.922
					C63.488,55.982,62.544,56.896,61.54,57.646z"/>
			</g>
			<g>
				<path style="fill:#807E74;" d="M66.279,88.995c-0.25,0-0.5-0.017-0.755-0.052c-3.045-0.519-5.116-2.897-5.582-6.378
					c-0.503-3.786,1.03-8.659,4.467-10.254c1.776-0.919,3.498-1.184,5.154-1.432c2.325-0.35,4.341-0.656,6.406-2.921
					c0.513-0.563,1.386-0.602,1.938-0.096c0.571,0.514,0.608,1.383,0.089,1.948c-2.716,2.986-5.531,3.414-8.018,3.786
					c-1.513,0.227-2.931,0.441-4.364,1.183c-2.039,0.943-3.363,4.33-2.948,7.422c0.179,1.329,0.844,3.611,3.289,4.027
					c0.993,0.143,2.118-0.413,3.322-0.999c0.973-0.481,1.974-0.984,3.073-1.161l0.222-0.022c1.019,0,1.953,0.247,2.784,0.457
					c1.51,0.396,2.334,0.571,3.208-0.146c2.028-1.38,5.97-10.103,5.028-14.311c-0.3-1.392-0.998-1.681-1.644-1.786
					c-0.743-0.121-1.264-0.833-1.135-1.578c0.129-0.753,0.834-1.256,1.578-1.134c2.025,0.331,3.405,1.716,3.886,3.9
					c1.185,5.32-3.088,15.096-6.078,17.115c-1.889,1.554-3.911,1.026-5.532,0.603c-0.704-0.174-1.344-0.349-1.972-0.365
					c-0.667,0.132-1.412,0.499-2.207,0.893C69.249,88.306,67.843,88.993,66.279,88.995z"/>
			</g>
			<g>
				<path style="fill:#807E74;" d="M99.517,76.739c-3.115,0-5.061-1.018-7.619-2.347c-1.571-0.815-3.335-1.74-5.907-2.74
					c-0.808-0.315-1.196-1.221-0.887-2.023c0.038-0.109,0.089-0.21,0.161-0.304c-0.086-0.114-0.146-0.238-0.187-0.373
					c-0.267-0.816,0.173-1.703,0.982-1.98c1.243-0.405,3.572-1.707,6.044-3.079c7.42-4.126,12.919-6.939,15.96-5.546
					c1.911,0.946,2.566,3.735,2.788,5.909c0.197,1.922,0.136,4.724-0.638,6.29c-2.435,4.06-4.773,5.682-8.717,6.071
					C100.79,76.704,100.132,76.739,99.517,76.739z M88.563,69.319c1.978,0.85,3.51,1.644,4.786,2.308
					c2.931,1.52,4.392,2.287,7.818,1.889c2.934-0.296,4.467-1.384,6.313-4.47c0.772-1.565,0.279-7.171-0.774-7.894
					c-1.788-0.812-9.123,3.279-13.079,5.469C91.694,67.701,89.953,68.668,88.563,69.319z"/>
			</g>
			<g>
				<path style="fill:#807E74;" d="M88.746,89.45c-1.295,0-2.406-0.288-3.403-0.87c-2.229-1.32-3.471-4.028-3.819-8.286
					c-0.064-0.863,0.58-1.61,1.443-1.682c0.836-0.063,1.61,0.572,1.675,1.435c0.248,3.126,1.029,5.088,2.29,5.843
					c1.449,0.844,3.959,0.446,7.676-1.232c0.466-0.202,0.892-0.384,1.306-0.55c1.884-0.78,3.639-1.52,3.882-2.237
					c0.062-0.218,0.1-0.906-0.987-2.595c-1.576-2.519-3.51-3.953-6.123-4.531c-0.848-0.191-1.374-1.029-1.187-1.869
					c0.177-0.845,1.01-1.375,1.862-1.188c3.43,0.766,6.079,2.697,8.087,5.916c0.85,1.316,1.908,3.298,1.324,5.198
					c-0.659,2.113-2.866,3.029-5.647,4.195c-0.403,0.162-0.822,0.34-1.254,0.52C92.988,88.815,90.673,89.45,88.746,89.45z"/>
			</g>
		</g>
		<g>
			<g>
				<path style="fill:#807E74;" d="M161.512,73.69c-0.468,0-0.92-0.262-1.135-0.714c-0.29-0.63-0.026-1.372,0.603-1.671
					c0.53-0.251,1.135-0.513,1.763-0.777c4.178-1.785,7.063-3.292,6.042-6.51c-0.335-1.049-1.033-1.599-1.92-2.291
					c-0.76-0.606-1.635-1.285-2.316-2.357c-0.553-0.854-0.783-1.69-0.954-2.363c-0.342-1.216-0.436-1.582-1.813-1.831
					c-3.128-0.603-7.886,3.47-9.97,6.506c-0.437,0.534-0.9,1.101-1.385,1.506c-0.058,0.482-0.192,1.025-0.319,1.593
					c-0.165,0.674-0.842,1.08-1.515,0.927c-0.675-0.156-1.092-0.833-0.927-1.507c0.11-0.503,0.19-0.856,0.229-1.099l-0.327-0.209
					l0.999-2.012l0.472,0.176c0.173-0.177,0.424-0.448,0.771-0.88c1.913-2.779,7.552-8.398,12.422-7.47
					c2.909,0.52,3.399,2.242,3.769,3.634c0.166,0.588,0.326,1.146,0.657,1.682c0.452,0.711,1.087,1.2,1.753,1.725
					c1.043,0.808,2.213,1.725,2.755,3.514c1.81,5.63-3.763,8.004-7.445,9.575c-0.584,0.253-1.159,0.495-1.662,0.734
					C161.882,73.654,161.697,73.69,161.512,73.69z"/>
			</g>
			<g>
				<path style="fill:#807E74;" d="M168.029,94.196c-4.536,0.002-8.695-2.13-12.468-4.055c-0.835-0.427-1.663-0.849-2.472-1.24
					c-0.629-0.304-0.887-1.057-0.592-1.675c0.315-0.628,1.059-0.886,1.685-0.589c0.823,0.405,1.67,0.836,2.521,1.27
					c4.546,2.319,9.25,4.733,14.271,3.397c3.107-0.814,6.702-5.386,5.95-8.565c-0.63-2.666-7.947-6.332-10.359-7.529
					c-2.69-1.425-7.875-2.339-10.556,0.168c-0.499,0.471-1.301,0.448-1.772-0.053c-0.474-0.51-0.446-1.304,0.053-1.776
					c3.607-3.382,10.025-2.371,13.42-0.571c5.314,2.647,10.86,5.83,11.657,9.183c1.103,4.618-3.44,10.428-7.75,11.571
					C170.403,94.057,169.209,94.196,168.029,94.196z"/>
			</g>
			<g>
				<path style="fill:#807E74;" d="M141.598,110.368c-0.18,0-0.359-0.009-0.54-0.039c-1.79-0.218-3.439-1.51-5.528-4.332
					c-2.425-3.229-3.835-8.816-1.859-13.235c0.296-0.633,1.034-0.91,1.669-0.632c0.618,0.289,0.911,1.034,0.614,1.661
					c-1.557,3.495-0.354,8.129,1.587,10.703c1.579,2.133,2.822,3.227,3.829,3.348c1.209,0.157,2.726-1.106,4.812-2.835l0.189-0.152
					c0.608-0.507,1.2-0.965,1.784-1.406c2.583-1.973,4.299-3.283,4.04-6.849c-0.181-3.662-2.342-9.689-4.956-12.32
					c-0.505-0.488-0.505-1.281,0-1.768c0.485-0.495,1.27-0.495,1.775,0c3.151,3.153,5.48,9.756,5.68,13.937
					c0.37,4.882-2.251,6.881-5.012,8.994c-0.562,0.423-1.123,0.852-1.709,1.341l-0.194,0.154
					C145.413,108.906,143.644,110.368,141.598,110.368z"/>
			</g>
			<g>
				<path style="fill:#807E74;" d="M120.989,95.01l-0.695-1.025c-3.107-4.569-8.301-12.209-2.1-17.967
					c3.692-3.325,10.512-5.711,18.646-2.479c0.646,0.254,0.971,0.986,0.719,1.625c-0.271,0.646-0.993,0.962-1.642,0.708
					c-5.99-2.387-11.992-1.638-16.032,1.993c-4.006,3.718-1.583,8.599,1.823,13.74c2.43-1.218,4.52-0.943,6.551-0.667
					c1.304,0.169,2.537,0.338,3.924,0.146c4.002-0.335,7.604-5.747,8.438-9.483c0.158-0.677,0.829-1.096,1.506-0.949
					c0.675,0.158,1.101,0.831,0.943,1.505c-1.015,4.503-5.275,10.973-10.616,11.418c-1.655,0.23-3.177,0.031-4.518-0.15
					c-2.131-0.289-3.801-0.515-5.922,0.897L120.989,95.01z"/>
			</g>
			<g>
				<path style="fill:#807E74;" d="M122.564,75.063c-0.314,0-0.644-0.122-0.888-0.365c-2.726-2.725-0.913-11.792,0.257-13.946
					c1.652-2.803,4.962-3.409,7.888-3.95c1.15-0.212,2.242-0.415,3.17-0.727c3.23-1.203,6.43-2.157,9.753-0.388
					c3.338,1.542,7.396,4.109,7.396,7.46c0,0.69-0.571,1.259-1.262,1.259c-0.692,0-1.262-0.569-1.262-1.259
					c0-1.527-2.244-3.483-5.989-5.214c-2.464-1.313-4.979-0.544-7.797,0.506c-1.14,0.387-2.372,0.612-3.556,0.831
					c-2.619,0.482-5.119,0.939-6.153,2.72c-1.059,1.93-2.123,9.487-0.671,10.933c0.488,0.496,0.488,1.289,0,1.776
					C123.209,74.941,122.876,75.063,122.564,75.063z"/>
			</g>
		</g>
		<g>
			<g>
				<path style="fill:#807E74;" d="M119.203,123.199c-1.085,0-2.145-0.063-3.093-0.109c-0.732-0.038-1.436-0.083-2.081-0.093
					c-0.753-0.012-1.364-0.632-1.353-1.394c0.014-0.761,0.677-1.396,1.395-1.35c0.674,0.01,1.411,0.047,2.196,0.093
					c5.204,0.281,8.927,0.199,9.334-3.46c0.16-1.199-0.315-2.09-0.924-3.217c-0.513-0.963-1.104-2.064-1.318-3.47
					c-0.158-1.114-0.016-2.06,0.112-2.824c0.216-1.337,0.282-1.789-1.078-2.729c-3.068-2.188-9.823-0.505-13.518,1.55
					c-0.698,0.306-1.444,0.642-2.148,0.806c-0.285,0.446-0.674,0.916-1.068,1.41c-0.479,0.592-1.347,0.674-1.942,0.197
					c-0.594-0.478-0.674-1.347-0.195-1.932c0.365-0.442,0.603-0.761,0.765-0.983l-0.236-0.37l1.945-1.494l0.397,0.405
					c0.256-0.088,0.662-0.236,1.25-0.499c3.276-1.813,11.741-4.613,16.329-1.337c2.779,1.917,2.461,3.854,2.212,5.415
					c-0.112,0.663-0.208,1.289-0.097,1.983c0.135,0.931,0.563,1.73,1.018,2.581c0.696,1.305,1.498,2.793,1.239,4.841
					C127.75,122.367,123.295,123.199,119.203,123.199z"/>
			</g>
			<g>
				<path style="fill:#807E74;" d="M116.382,147.859c-0.603,0.001-1.202-0.056-1.757-0.167c-6.896-1.348-11.023-6.452-14.995-11.395
					c-0.669-0.833-1.333-1.654-2.002-2.448c-0.487-0.579-0.419-1.448,0.167-1.935c0.573-0.495,1.44-0.419,1.928,0.161
					c0.684,0.808,1.359,1.652,2.039,2.492c3.684,4.561,7.483,9.273,13.385,10.427c3.633,0.72,9.522-2.037,10.212-5.549
					c0.396-1.959-2.063-6.18-7.292-12.563c-2.245-2.867-7.373-6.186-11.207-5.051c-0.72,0.218-1.5-0.201-1.715-0.926
					c-0.216-0.731,0.201-1.498,0.942-1.714c5.288-1.572,11.436,2.548,14.117,5.965c4.303,5.233,8.605,11.102,7.852,14.817
					C127.157,144.535,121.219,147.859,116.382,147.859z"/>
			</g>
			<g>
				<path style="fill:#807E74;" d="M78.147,149.997c-1.148,0-2.167-0.229-3.123-0.827c-1.711-1.076-2.813-3.161-3.674-6.957
					c-1.03-4.398,0.11-10.649,4.271-14.073c0.575-0.479,1.445-0.399,1.927,0.189c0.496,0.585,0.402,1.453-0.176,1.934
					c-3.263,2.684-4.158,7.847-3.342,11.342c0.667,2.937,1.441,4.602,2.465,5.243c1.233,0.772,3.423,0.271,6.439-0.425l0.279-0.066
					c0.865-0.203,1.696-0.36,2.509-0.512c3.619-0.697,6.021-1.154,7.396-4.791c1.527-3.718,2.083-10.746,0.563-14.628
					c-0.269-0.713,0.086-1.511,0.792-1.781c0.706-0.281,1.496,0.072,1.782,0.783c1.817,4.671,1.164,12.375-0.585,16.635
					c-1.904,5.045-5.572,5.741-9.437,6.482c-0.765,0.146-1.576,0.296-2.408,0.491l-0.268,0.065
					C81.462,149.585,79.691,149.995,78.147,149.997z"/>
			</g>
			<g>
				<path style="fill:#807E74;" d="M77.188,128.911c-1.137,0-2.252-0.182-3.315-0.576c-1.825-0.583-3.312-1.53-4.606-2.357
					c-2.113-1.337-3.77-2.397-6.667-2.028l-1.296,0.159l-0.232-1.277c-1.107-6.065-2.959-16.222,6.224-18.892
					c5.372-1.479,13.55-0.502,20.486,6.652c0.524,0.546,0.51,1.411-0.025,1.942c-0.538,0.53-1.412,0.519-1.951-0.027
					c-6.1-6.29-13.166-7.183-17.765-5.925c-5.906,1.721-5.64,7.763-4.479,14.541c3.096-0.035,5.175,1.268,7.172,2.535
					c1.233,0.777,2.486,1.581,4.044,2.084c4.366,1.636,10.665-1.966,13.284-5.256c0.485-0.593,1.342-0.689,1.942-0.217
					c0.593,0.472,0.687,1.339,0.214,1.93C87.628,125.431,82.206,128.911,77.188,128.911z"/>
			</g>
			<g>
				<path style="fill:#807E74;" d="M105.219,107.59c-0.199,0-0.402-0.039-0.591-0.128c-0.687-0.324-0.977-1.141-0.662-1.829
					c0.7-1.492-0.765-4.597-3.843-8.124c-1.982-2.538-4.99-3.023-8.453-3.36c-1.351-0.173-2.73-0.556-4.065-0.918
					c-2.86-0.781-5.814-1.584-7.744-0.326c-1.992,1.4-6.614,8.35-5.782,10.479c0.271,0.708-0.071,1.503-0.774,1.774
					c-0.724,0.279-1.509-0.071-1.782-0.783c-1.573-4.056,4.559-12.18,6.798-13.746c3.001-1.957,6.73-0.946,10.006-0.054
					c1.305,0.361,2.547,0.698,3.668,0.844c3.892,0.377,7.653,1.002,10.242,4.346c2.772,3.16,5.787,7.696,4.215,11.034
					C106.219,107.295,105.73,107.59,105.219,107.59z"/>
			</g>
		</g>
		<g>
			<g>
				<path style="fill-rule:evenodd;clip-rule:evenodd;fill:#807E74;" d="M153.545,133.17c-1.051-3.497-3.338-5.412-6.639-6.213
					c-1.023-0.248-2.246-0.262-2.018-1.724c0.272-1.663,1.609-1.223,2.643-1.002c4.127,0.881,6.926,3.357,8.523,7.261
					c0.239,0.578,0.835,1.016,1.264,1.514c0.442-0.484,1.051-0.9,1.29-1.471c1.714-4.147,4.674-6.738,9.152-7.344
					c0.631-0.089,1.363,0.645,2.051,0.994c-0.519,0.566-0.961,1.5-1.583,1.633c-3.539,0.767-5.876,2.716-7.147,6.31
					c1.046,0.317,1.87,0.567,2.678,0.82c12.447,3.759,18.991,17.454,14.109,29.37c-0.674,1.65-1.485,2.427-3.322,1.736
					c-2.113-0.804-4.292-1.464-6.594-2.238c-1.012,1.479-1.927,3.271-3.252,4.675c-1.737,1.862-3.797,3.426-5.748,5.103
					c-1.049,0.899-2.058,0.76-3.206,0.037c-3.933-2.435-6.816-5.785-8.863-9.869c-2.308,0.773-4.545,1.45-6.729,2.281
					c-1.827,0.69-2.655-0.047-3.338-1.706c-4.888-11.894,1.661-25.62,14.082-29.381C151.727,133.705,152.539,133.461,153.545,133.17
					z M149.065,161.798c2.256,2.39,4.588,4.961,7.058,7.397c0.407,0.398,1.604,0.559,2.071,0.26
					c3.198-2.059,5.438-4.984,7.047-8.059c-2.83-3.018-5.439-5.817-7.894-8.438C154.823,155.643,152.243,158.398,149.065,161.798z
					 M175.004,162.39c4.937-11.06-2.573-23.277-11.587-25.255c5.946,6.643,7.66,14.182,5.51,22.821
					C170.965,160.777,172.916,161.551,175.004,162.39z M145.766,159.977c-2.178-8.686-0.425-16.202,5.611-22.992
					c-10.442,2.854-16.329,15.883-11.677,25.364C141.643,161.591,143.588,160.826,145.766,159.977z M161.527,139.363
					c-0.842,3.316-1.65,6.416-2.43,9.522c-0.063,0.202-0.055,0.466,0.045,0.645c1.679,3.369,3.987,6.202,7.274,8.595
					C167.983,150.744,166.262,144.723,161.527,139.363z M153.136,139.375c-4.718,5.436-6.475,11.442-4.854,18.736
					c3.242-2.34,5.443-5.114,7.15-8.297c0.163-0.298,0.208-0.736,0.134-1.063C154.793,145.721,154.001,142.693,153.136,139.375z
					 M156.873,143.953c0.311,0,0.619,0,0.945,0c0.133-2.147,0.325-4.294,0.385-6.452c0.006-0.409-0.563-0.839-0.857-1.262
					c-0.307,0.423-0.856,0.853-0.849,1.262C156.54,139.657,156.731,141.805,156.873,143.953z"/>
			</g>
			<g>
				<path style="fill-rule:evenodd;clip-rule:evenodd;fill:#FFD400;" d="M151.815,163.183c2.093-2.238,3.806-4.057,5.464-5.827
					c1.623,1.73,3.34,3.577,5.213,5.569c-1.069,2.027-2.552,3.953-4.657,5.308c-0.305,0.199-1.093,0.096-1.357-0.174
					C154.854,166.453,153.31,164.76,151.815,163.183z"/>
			</g>
		</g>
		<g>
			<g>
				<path style="fill:#807E74;" d="M112.186,144.898c-6.502,4.381-9.93,6.366-17.479,8.397c-1.626,0.44-3.284,0.889-4.926,1.358
					c0.953-2.303,1.333-2.364,1.037-4.827c-0.206-1.67-0.736-3.302-1.499-4.813c-1.034,0.561-2.052,1.117-3.085,1.674
					c0.569,1.121,0.949,2.327,1.104,3.563c0.314,2.551-0.317,2.736-1.751,4.876c-0.17,0.281-0.245,0.587-0.255,0.896
					c-4.59,1.528-9.161,3.455-13.484,6.372c-3.874,2.612-10.525,8.229-11.48,16.444c-0.102,0.963,0.583,1.834,1.542,1.947
					c0.063,0.006,0.135,0.009,0.207,0.009c0.877,0,1.626-0.658,1.742-1.552c0.783-6.825,6.574-11.672,9.951-13.948
					c6.783-4.577,14.422-6.631,21.81-8.618c7.573-2.033,11.609-4.193,18.657-8.985C113.546,146.789,112.847,145.861,112.186,144.898
					z"/>
			</g>
			<g>
				<path style="fill:#807E74;" d="M122.381,172.026c0.601-0.025,1.135-0.354,1.429-0.873c0.311-0.516,0.325-1.145,0.059-1.675
					c-4.183-8.156-11.56-13.383-20.609-11.853c-2.059,0.514-2.979,3.24-3.318,7.093c-2.031-0.057-3.369-0.092-5.389,1.482
					c-1.853,1.45-2.553,4.985-2.265,6.954c0.72,4.883,1.988,7.513,4.25,11.726c0.866,1.609,2.459,2.928,4.223,4.144
					c1.074,0.736,3.79,1.685,4.761,1.247c0.815-0.345,0.702-0.955,0.815-1.426l0.367-1.76c3.886,3.141,8.836,4.902,13.818,4.902
					c0.596,0,1.206-0.033,1.816-0.08c0.43-0.043,1.437-0.122,2.219-0.906c0.854-0.866,0.842-2.01,0.839-2.5
					c-0.046-5.592-1.864-11.614-4.879-16.398L122.381,172.026z"/>
			</g>
			<g>
				<path style="fill:#807E74;" d="M76.482,152.62c-1.002-5.203-8.725-8.656-14.225-9.078c-1.912-0.14-2.617,0.766-2.868,1.314
					c-0.332,0.695-0.183,1.393-0.112,1.775l0.543,2.613c-2.334-0.378-4.888,0.524-6.916,2.438c-1.728,1.633-2.849,3.705-3.937,5.854
					c-1.133,2.246-0.349,3.416,0.209,3.925c0.661,0.581,1.492,0.64,1.983,0.679c5.546,0.394,11.265,0.804,16.939,0.162
					c1.478-0.161,3.042-0.408,4.477-1.118c0.324-0.147,0.614-0.3,0.887-0.457c3.465-1.912,2.408-3.324,1.917-5.161
					C75.667,155.231,76.55,153.001,76.482,152.62z"/>
			</g>
			<g>
				<path style="fill:#807E74;" d="M137.863,108.07c-0.307-0.786-0.608-1.578-0.862-2.379c-0.063-0.334-0.124-0.668-0.206-1.002
					c-1.747,2.62-3.616,5.134-5.465,7.618c-4.44,5.945-6.366,10.076-8.534,16.969c0.977,0.875,1.79,1.884,2.43,2.982
					c0.219,0.047,0.44,0.087,0.659,0.144c2.311-7.706,3.751-11.503,8.666-18.089c0.944-1.265,1.905-2.557,2.841-3.85
					C137.454,109.682,137.611,108.885,137.863,108.07z"/>
			</g>
		</g>
		<g>
			<path style="fill:#CE6161;" d="M154.47,61.718c-1.046-0.231-2.013,0.185-2.486,1.072c-0.517,0.948-0.345,2.323,0.435,3.21
				c0.328,0.377,0.739,0.624,1.192,0.723c0.257,1.82-0.225,3.701-0.682,5.152c-0.124,0.435-0.282,0.835-0.448,1.264
				c-0.736,1.518-1.721,2.853-2.854,3.913c0.219-0.666,0.402-1.341,0.546-2.015l0.029-0.149c0.285-1.474,0.404-2.929,0.315-4.328
				l-0.013,0c0.053-0.499-0.189-1.617-0.189-1.618c-0.002-0.021-0.39-1.883-0.818-2.498l0.026-0.012
				c-0.276-0.632-0.602-1.169-0.941-1.602c0.09-0.171,0.161-0.353,0.195-0.534c0.137-0.833-0.352-1.723-1.18-2.11
				c-0.741-0.364-1.575-0.198-2.092,0.395c-0.546,0.632-0.648,1.657-0.224,2.442c0.318,0.585,0.872,0.923,1.516,0.923
				c0.079,0,0.171-0.005,0.212-0.013l0.208-0.001c0.581,0.726,1.056,1.864,1.38,3.299c0.271,1.638,0.243,3.359-0.093,5.13
				c-0.007-0.025-0.013-0.051-0.019-0.087c-0.064-0.497-0.142-1.033-0.288-1.566c-0.191-0.728-1.593-2.492-2.1-3.087
				c0.07-0.151,0.115-0.298,0.142-0.437c0.27-1.214-0.521-2.33-1.426-2.802c-0.932-0.485-2.002-0.324-2.682,0.409
				c-0.738,0.791-0.915,2.167-0.403,3.2c0.42,0.856,1.262,1.33,2.193,1.23c0.315-0.03,0.643-0.138,0.957-0.33
				c0.889,1.02,1.538,2.261,1.883,3.581c0.112,0.816,0.145,1.618,0.096,2.34c-1.021-1.126-2.431-2.125-3.523-2.73
				c-0.903-0.51-2.384-1.159-3.464-1.583c-0.01-0.07-0.022-0.137-0.039-0.19c-0.234-0.801-1.061-1.38-1.986-1.38
				c-0.837,0.011-1.505,0.512-1.709,1.286c-0.211,0.812,0.165,1.776,0.882,2.283c0.608,0.43,1.379,0.441,1.984,0.037
				c0.137-0.087,0.247-0.202,0.369-0.344c1.756,0.701,2.992,1.274,3.698,1.708c1.046,0.638,2.422,1.825,3.201,3.067
				c-0.93-0.059-2.163-0.226-2.486-0.268l-0.077-0.013c-1.303-0.218-2.548-0.507-3.738-0.854c-0.023-0.342-0.11-0.658-0.272-0.935
				c-0.431-0.762-1.3-1.233-2.262-1.233c-0.229,0-0.452,0.025-0.665,0.074c-1.032,0.261-1.718,1.055-1.749,2.08
				c-0.032,1.081,0.758,2.23,1.819,2.67c0.302,0.121,0.595,0.176,0.885,0.176c0.599,0,1.164-0.248,1.572-0.703
				c0.12-0.121,0.212-0.258,0.31-0.42c0.094,0.027,0.204,0.058,0.298,0.081l0.336,0.087c0.145,0.054,0.468,0.136,1.133,0.293
				c0.232,0.061,0.462,0.121,0.694,0.182c0.787,0.211,1.619,0.431,2.45,0.431l0.148-0.002c0.403-0.013,0.79-0.002,1.145,0.008
				c0.265,0.007,0.504,0.014,0.745,0.014c0.577,0,1.276-0.036,2.052-0.331c1.836-0.699,3.62-2.741,5.289-6.078l0.051,0.026
				l0.163-0.444l0.062-0.091c0.29-0.619,0.962-2.789,1.001-3.513l0.01,0.001c0.277-1.415,0.34-2.678,0.155-3.843
				c0.208-0.144,0.406-0.333,0.604-0.565c0.154-0.213,0.3-0.434,0.399-0.656c0.173-0.357,0.246-0.721,0.225-1.088
				C156.51,62.818,155.46,61.947,154.47,61.718z M153.802,64.903c-0.021-0.017-0.04-0.036-0.06-0.065
				c-0.293-0.325-0.378-0.876-0.211-1.209c0.075-0.154,0.199-0.217,0.365-0.217c0.07,0,0.124,0.006,0.182,0.02
				c0.356,0.082,0.717,0.367,0.734,0.715c0.006,0.136-0.079,0.332-0.252,0.542c-0.021,0.03-0.046,0.062-0.069,0.09
				c-0.154-0.042-0.303-0.038-0.443,0.008C153.967,64.808,153.871,64.846,153.802,64.903z M143.664,69.485
				c-0.105,0-0.238-0.034-0.362-0.271c-0.186-0.365-0.133-0.926,0.114-1.224c0.08-0.086,0.162-0.134,0.279-0.134
				c0.125,0,0.229,0.053,0.298,0.088c0.32,0.157,0.604,0.544,0.535,0.884c-0.011,0.064-0.067,0.144-0.087,0.177
				c-0.024,0.022-0.069,0.05-0.083,0.071l-0.051,0.074c-0.058,0.049-0.117,0.102-0.164,0.137c-0.133,0.093-0.24,0.149-0.331,0.18
				L143.664,69.485z M137.873,72.37v0.313c0.133,0,0.253,0.079,0.264,0.107c0,0.014-0.01,0.078-0.053,0.178
				c-0.021,0.049-0.043,0.08-0.049,0.1c-0.117-0.084-0.188-0.256-0.192-0.393l0.028,0.007L137.873,72.37L137.873,72.37z
				 M138.18,78.363c-0.051,0.241-0.115,0.355-0.162,0.406c-0.104,0.103-0.254,0.197-0.495,0.093
				c-0.396-0.157-0.747-0.622-0.745-0.992c0.002-0.074,0.012-0.328,0.413-0.417c0.074-0.022,0.172-0.037,0.254-0.037
				c0.255,0,0.588,0.091,0.719,0.342C138.244,77.887,138.25,78.109,138.18,78.363z"/>
		</g>
		<g>
			<path style="fill:#CE6161;" d="M109.727,114.137c-0.562-1.023-1.65-1.56-2.656-1.357c-1.144,0.203-2.137,1.304-2.287,2.565
				c-0.064,0.512,0.017,0.996,0.23,1.426c-1.178,1.305-2.883,2.102-4.254,2.665c-0.435,0.174-0.858,0.312-1.256,0.445
				c-0.101,0.029-0.219,0.05-0.321,0.068l0.071-0.195c0.501-0.511,0.985-1.055,1.4-1.615l0.107-0.124
				c0.91-1.218,1.636-2.494,2.173-3.804c0.139-0.248,0.311-0.712,0.502-1.578c0.064-0.257,0.363-1.961,0.296-2.679h0.012
				c0.002-0.661-0.06-1.261-0.199-1.798c0.148-0.109,0.259-0.232,0.364-0.364c0.529-0.754,0.447-1.862-0.214-2.636
				c-0.599-0.697-1.514-0.933-2.311-0.606c-0.859,0.347-1.436,1.305-1.355,2.273c0.062,0.811,0.584,1.477,1.383,1.738l0.074,0.021
				c0.236,0.887,0.203,2.082-0.094,3.48c-0.372,1.34-0.97,2.634-1.77,3.871c0.068-0.273,0.127-0.563,0.193-0.853
				c0.126-0.77-0.421-2.872-0.663-3.704c0.1-0.094,0.199-0.189,0.271-0.29c0.816-1.046,0.523-2.489-0.171-3.37
				c-0.709-0.899-1.85-1.246-2.873-0.875c-1.11,0.41-1.898,1.649-1.849,2.885c0.035,1.022,0.671,1.876,1.653,2.224
				c0.306,0.109,0.638,0.162,1,0.142c0.386,1.266,0.455,2.613,0.227,3.887c-0.198,0.665-0.442,1.283-0.725,1.837
				c-0.521-1.396-1.369-2.815-2.111-3.794c-0.62-0.843-1.745-2.064-2.574-2.94c0.01-0.037,0.016-0.083,0.021-0.12
				c0.134-0.906-0.448-1.874-1.371-2.288c-0.852-0.39-1.778-0.21-2.348,0.449c-0.582,0.692-0.644,1.808-0.144,2.645
				c0.427,0.72,1.174,1.097,2,0.98c0.134-0.018,0.288-0.063,0.443-0.123c1.32,1.386,2.25,2.438,2.722,3.125
				c0.659,0.953,1.382,2.466,1.656,3.826c-0.792-0.454-1.711-1.025-1.967-1.199l-0.075-0.051c-1.107-0.755-2.159-1.548-3.105-2.375
				c0.11-0.3,0.145-0.616,0.118-0.938c-0.132-1.324-1.304-2.246-2.4-2.474c-1.14-0.244-2.221,0.228-2.706,1.186
				c-0.529,1.033-0.273,2.47,0.618,3.406c0.711,0.759,1.753,1.013,2.703,0.655c0.128-0.058,0.267-0.119,0.407-0.205
				c0.059,0.054,0.117,0.104,0.175,0.152l0.283,0.219l0.004-0.004c0.165,0.178,0.477,0.415,0.942,0.78
				c0.199,0.161,0.398,0.316,0.575,0.473c0.732,0.593,1.471,1.198,2.338,1.57c0.373,0.168,0.734,0.343,1.086,0.522
				c0.731,0.37,1.431,0.727,2.305,0.896c0.275,1.383,2.112,2.076,3.034,2.42c-0.008,0.166,0.025,0.324,0.063,0.481
				c0.221,0.895,1.121,1.546,2.13,1.546h0.004c0.928,0,1.69-0.526,1.967-1.373c0.283-0.872-0.066-1.932-0.858-2.505
				c-0.653-0.472-1.561-0.476-2.184-0.094l-0.13,0.073c-0.451-0.17-0.867-0.327-1.259-0.604c0.307-0.059,0.563-0.104,0.745-0.143
				l0.366-0.08c0.025-0.011,2.685-0.984,3.5-1.52l0.014,0.024c1.242-0.682,2.238-1.449,3.002-2.325
				c0.236,0.054,0.492,0.083,0.792,0.088c0.276-0.002,0.545-0.032,0.806-0.091c0.42-0.108,0.784-0.299,1.059-0.57
				C110.287,116.616,110.255,115.136,109.727,114.137z M107.891,115.976c-0.071,0.048-0.258,0.113-0.523,0.105
				c-0.076-0.138-0.189-0.25-0.302-0.326c-0.058-0.051-0.136-0.084-0.204-0.111c0.053-0.369,0.37-0.734,0.706-0.799
				c0.151,0,0.251,0.138,0.326,0.255C108.03,115.375,108.062,115.796,107.891,115.976z M106.447,116.032v0.002l0,0V116.032z
				 M97.717,109.816c-0.006,0.005-0.026,0.029-0.09,0.064c-0.032,0.004-0.064,0.012-0.075,0.025l-0.159,0.058
				c-0.043,0.012-0.1,0.021-0.135,0.029c-0.14,0.031-0.281,0.033-0.368,0.013l-0.038-0.017c-0.106-0.037-0.189-0.079-0.196-0.295
				c-0.021-0.386,0.248-0.783,0.511-0.899c0.192-0.074,0.327,0.059,0.432,0.176C97.791,109.209,97.883,109.604,97.717,109.816z
				 M86.734,114.686c0.047-0.063,0.091-0.131,0.243-0.131c0.062,0,0.11,0.006,0.163,0.016c0.326,0.07,0.673,0.323,0.694,0.606
				c0.006,0.065-0.037,0.225-0.202,0.42c-0.139,0.189-0.245,0.233-0.268,0.25c-0.086,0.032-0.23,0.038-0.378-0.118
				C86.707,115.438,86.628,114.917,86.734,114.686z"/>
		</g>
	</g>
</g>
</svg>
