<?xml version="1.0" encoding="iso-8859-1"?>
<!-- Generator: Adobe Illustrator 16.0.0, SVG Export Plug-In . SVG Version: 6.00 Build 0)  -->
<!DOCTYPE svg PUBLIC "-//W3C//DTD SVG 1.1//EN" "http://www.w3.org/Graphics/SVG/1.1/DTD/svg11.dtd">
<svg version="1.1" id="&#x5716;&#x5C64;_1" xmlns="http://www.w3.org/2000/svg" xmlns:xlink="http://www.w3.org/1999/xlink" x="0px"
	 y="0px" width="230px" height="230px" viewBox="0 0 230 230" style="enable-background:new 0 0 230 230;" xml:space="preserve">
<g>
	<path style="fill:#EBF7F7;" d="M230,115c0,63.518-51.499,115-115,115C51.483,230,0,178.518,0,115C0,51.483,51.483,0,115,0
		C178.501,0,230,51.483,230,115z"/>
	<g>
		<path style="fill:#6D6D6D;" d="M93.654,32.841c2.188,3.573,5.528,6.262,8.468,8.631l8.003,6.446
			c-0.925,5.059-1.74,10.145-2.488,15.241c-0.675-2.168-2.221-4.462-3.291-5.781c-2.107-2.615-4.857-4.662-7.792-6.308
			c-1.736-0.979-3.812-1.845-5.672-1.098c-1.654,0.669-2.613,2.55-2.582,4.338c0.034,1.793,0.907,3.469,2.041,4.86
			c2.068,2.526,5.005,4.243,8.095,5.321c2.738,0.969,5.815,1.688,8.737,1.896c-1.4,10.021-2.47,20.109-3.195,30.231l-5.602-3.384
			c-0.481-0.29-1.092-0.66-1.275-1.032c-0.188-0.303-0.15-0.821-0.124-1.583c0.049-9.405-7.076-18.421-16.234-20.546
			c-2.789-0.649-5.059,0.022-6.084,1.791c-0.854,1.474-0.492,3.051,0.015,4.251c0.258,0.605,0.568,1.115,0.777,1.468
			c2.187,3.725,4.476,7.574,7.647,10.79c3.491,3.533,7.646,5.661,11.731,6.036c0.579,0.698,1.336,1.151,1.913,1.507l6.997,4.223
			c-0.486,7.435-0.783,14.883-0.891,22.349l-21.313-3.087c-2.754-0.389-4.819-2.413-6.998-4.549
			c-0.224-0.22-0.453-0.435-0.691-0.652c1.302-2.784,1.271-6.371-1.174-9.771c0,0,0,0,0-0.002c-2.396-3.369-7.212-4.6-10.931-2.8
			c-3.737,1.8-5.763,6.325-4.622,10.31c0.092,0.351,0.227,0.703,0.381,1.051c0.443,1.032,1.088,2.029,1.895,2.929
			c4.017,4.439,8.9,3.944,11.945,1.486c0.237-0.188,0.479-0.396,0.679-0.613c0.113,0.103,0.213,0.201,0.326,0.305
			c2.454,2.392,4.986,4.868,8.739,5.413l1.972,0.278l-3.713,4.765c-0.617-0.622-1.333-1.134-2.167-1.509
			c-2.629-1.171-5.898-0.832-8.49,0.883c-1.015,0.663-1.7,1.4-2.105,2.245c-0.532,1.133-0.499,2.33-0.428,3.129
			c0.117,1.176,0.395,2.295,0.831,3.314c0.818,1.892,2.157,3.419,3.819,4.25c2.199,1.097,4.954,0.965,7.026-0.341
			c2.435-1.515,3.813-4.301,3.607-7.261c-0.042-0.646-0.161-1.264-0.351-1.846l5.526-7.111l16.167,2.34
			c-0.085,10.696,0.205,21.396,0.859,32.073c-2.287-2.812-7.851-6.22-9.341-7.027c-1.397-0.747-2.859-1.392-4.418-1.583
			c-1.56-0.196-3.226,0.101-4.466,1.07c-1.036,0.81-1.685,2.028-2.035,3.287c-0.232,0.815-0.364,1.662-0.239,2.502
			c0.221,1.587,1.306,2.96,2.646,3.843c1.34,0.884,2.918,1.327,4.494,1.632c1.963,0.377,10.819,1.311,13.55-0.395
			c1.55,22.666,4.275,38.707,7.206,48.604c0.026,0.096,0.049,0.184,0.084,0.276c0.303,0.678,1.037,1.077,1.778,0.907
			c0.85-0.183,1.42-1.031,1.201-1.864c-2.674-10.229-2.377-8.024-3.451-13.649c0.208-0.027,0.415-0.098,0.61-0.215l8.448-5.181
			c0.663,0.422,1.494,0.523,2.275,0.617c0.262,0.029,0.528,0.06,0.768,0.111c1.69,0.343,3.25-0.209,4.682-0.862
			c1.914-0.867,3.725-1.883,5.411-2.842c4.038-2.313,7.917-5.043,8.994-9.391c0.282-1.166,0.296-2.255,0.037-3.226
			c-0.231-0.833-0.672-1.638-1.351-2.483c-2.147-2.65-5.616-4.251-9.028-4.164c-3.412,0.082-6.791,1.844-8.818,4.595
			c-1.036,1.399-1.799,3.118-2.431,5.396c-0.989,3.604-1.524,6.697-1.57,9.201l-8.485,5.202c-0.985-7.183-1.826-14.394-2.475-21.622
			c1.208-1.434,2.404-2.861,3.67-4.229c6.269-6.838,14.048-12.449,22.524-16.224c1.165,2.201,2.009,4.604,2.448,7.046
			c0.104,0.603,0.329,1.853,1.462,2.481c0.703,0.396,1.434,0.365,1.968,0.289c0.005,0,0.013-0.002,0.017-0.004
			c1.279,5.393,3.48,10.468,6.54,15.079c0.964,1.434,2.329,3.114,4.42,3.375c1.798,0.236,3.724-0.76,4.771-2.476
			c0.766-1.227,1.105-2.73,1.068-4.605c-0.063-3.229-1.222-6.664-3.352-9.897c-0.691-1.055-1.359-2.013-2.026-2.896
			c2.665,0.771,5.455,1.282,8.328,1.072c2.189-0.164,3.854-0.749,5.115-1.792c1.796-1.492,2.463-4.003,1.609-5.895
			c-0.399-0.883-1.043-1.522-1.55-1.979c-2.977-2.673-6.639-3.557-9.201-3.824c-0.969-0.103-2.028-0.218-3.125-0.298
			c1.797-1.19,3.497-2.542,5.065-4.038c0.905-0.849,1.819-1.816,2.38-3.064c0.739-1.58,0.691-3.32-0.057-4.629
			c-0.89-1.536-2.769-2.448-4.8-2.331c-1.572,0.097-2.985,0.726-4.273,1.371c-1.132,0.557-2.25,1.142-3.358,1.754
			c1.258-2.747,2.15-5.732,2.047-8.922c-0.129-3.485-1.483-6.678-2.645-9.088c-0.323-0.682-1.008-2.089-2.52-2.533
			c-1.291-0.375-2.77,0.15-3.723,1.333c-0.683,0.856-0.964,1.857-1.195,2.66l-3.188,11.181c-0.056,0.205-0.13,0.415-0.19,0.627
			c-1.12-3.677-3.067-7.085-5.668-9.916c-1.719-1.85-3.327-2.983-5.073-3.565c-2.438-0.823-5-0.399-6.711,1.101
			c-2.354,2.085-2.461,5.576-1.344,8.182c0.09,0.187,0.169,0.362,0.255,0.54c1.28,2.457,3.403,4.121,5.521,5.794
			c2.444,1.917,4.854,3.881,7.226,5.883c-0.71,0.9-1.256,2.451-0.409,4.966c0.088,0.222,0.161,0.435,0.245,0.647
			c0.533,1.217,1.266,2.256,1.979,3.271l0.291,0.417c-8.707,3.948-16.729,9.739-23.193,16.787c-0.563,0.626-1.134,1.274-1.687,1.919
			c-1.383-17.335-1.81-34.77-1.219-52.159l9.98-5.035c0.198-0.1,0.427-0.217,0.665-0.358c0.025-0.001,0.05-0.002,0.073-0.006
			c5.265-0.623,10.695-1.26,15.923-2.812c3.543-1.048,5.565-2.971,5.689-5.395c0.098-1.658-0.775-3.345-2.449-4.76
			c-3.504-2.972-8.699-3.739-12.924-1.913c-4.224,1.835-7.216,6.146-7.464,11c-0.029,0.335-0.047,0.79-0.132,0.942
			c-0.095,0.151-0.544,0.381-0.805,0.501l-8.388,4.241c0.421-9.824,1.138-19.623,2.193-29.377c2.278-2.047,5.3-3.593,9.033-4.57
			c3.598-0.959,7.381-1.307,11.034-1.645c0.378-0.032,0.768-0.098,1.14-0.152c0.017,0.061,0.02,0.132,0.062,0.19
			c0.056,0.146,0.132,0.28,0.246,0.403c3.823,4.493,8.279,8.368,13.236,11.558c-0.006,0.047-0.017,0.102-0.02,0.149
			c-0.097,1.229,0.105,2.425,0.559,3.479c0.325,0.76,0.787,1.447,1.349,2.027c0.847,0.857,1.905,1.517,3.188,1.965
			c2.857,0.983,6.194,0.208,8.288-1.948c1.827-1.872,2.374-4.476,1.449-6.95c-0.888-2.384-3.024-4.282-5.555-5.006
			c-2.349-0.67-4.719-0.257-6.537,1.132c-0.733,0.55-1.312,1.249-1.765,2.043c-4.166-2.758-7.918-6.059-11.22-9.811
			c2.923-0.897,6.098-2.414,9.49-4.528c0.817,0.864,1.772,1.487,2.645,1.968c3.069,1.702,6.752,1.997,9.407,0.749
			c1.47-0.704,3.369-2.195,3.943-5.355c1.018-5.464-3.273-11.115-7.757-12.771c-2.396-0.884-4.666-0.688-6.239,0.533
			c-1.235,0.968-1.828,2.419-2.257,3.474c-0.642,1.58-1.305,3.221-1.539,5.044c-0.171,1.291-0.066,2.525,0.253,3.634
			c-4.81,3.013-9.068,4.722-12.65,5.055c-3.786,0.35-7.691,0.716-11.542,1.733c-2.969,0.784-5.542,1.898-7.75,3.309
			c1.221-10.43,2.802-20.8,4.747-31.077c1.27-6.626,0.799-11.515-1.674-17.452c-1.565-3.784-4.423-8.561-9.489-10.952
			c-2.163-1.024-4.243-1.253-6.002-0.656c-1.7,0.563-3.145,1.905-4.094,3.772C90.644,23.864,91.089,28.705,93.654,32.841z
			 M85.329,86.169c-2.904-2.935-5.083-6.621-7.18-10.177c-0.293-0.478-1.136-1.918-0.776-2.565c0.288-0.472,1.369-0.603,2.667-0.3
			c5.482,1.271,10.118,5.462,12.354,10.685c0.933,2.191,1.463,4.563,1.447,6.977c0,0.101,0,0.206,0,0.313
			C90.886,90.513,87.922,88.804,85.329,86.169z M78.307,132.482c0.134,1.802-0.691,3.484-2.134,4.391
			c-1.151,0.72-2.745,0.802-3.973,0.186c-1.896-0.944-2.759-3.22-2.925-5.044c-0.06-0.694-0.021-1.169,0.145-1.501
			c0.146-0.318,0.468-0.638,0.98-0.968c1.701-1.12,3.853-1.376,5.514-0.638C77.318,129.533,78.2,130.835,78.307,132.482z
			 M61.713,113.823c-0.763-0.858-1.31-1.819-1.571-2.752c-0.736-2.512,0.596-5.489,2.961-6.626c2.35-1.134,5.503-0.327,7.026,1.804
			v-0.003c1.867,2.623,1.735,5.193,0.671,7.053c-0.033,0.03-0.075,0.043-0.12,0.085c-0.147,0.161-0.25,0.359-0.311,0.563
			c-0.288,0.38-0.628,0.726-0.979,1.021C67.62,116.384,64.546,116.939,61.713,113.823z M122.456,185.039
			c3.439-4.969,7.402-9.609,11.733-13.837c1.509,0.485,2.885,1.387,3.873,2.604c-4.672,5.192-10.142,9.525-16.246,12.922
			c0.013-0.503,0.049-1.026,0.119-1.595C122.099,185.251,122.331,185.207,122.456,185.039z M138.852,175.158
			c0.111,0.45,0.095,1.008-0.052,1.651c-0.835,3.355-4.324,5.588-7.517,7.41c-1.626,0.937-3.372,1.905-5.151,2.717
			c-0.951,0.43-1.945,0.81-2.765,0.644c-0.307-0.059-0.663-0.109-1.021-0.148c-0.041-0.004-0.099-0.012-0.146-0.02
			c6.13-3.412,11.623-7.754,16.321-12.96c0.093,0.141,0.163,0.271,0.22,0.396C138.792,174.953,138.825,175.055,138.852,175.158z
			 M123.251,178.512c0.536-1.898,1.152-3.294,1.942-4.377c1.472-1.987,3.898-3.255,6.382-3.321c0.577-0.011,1.169,0.043,1.735,0.16
			c-4.146,4.091-7.942,8.555-11.28,13.313C122.263,182.575,122.677,180.626,123.251,178.512z M150.622,163.017
			c1.799,2.74,2.792,5.594,2.843,8.246c0.023,1.246-0.172,2.188-0.604,2.893c-0.413,0.663-1.128,1.085-1.701,1.014
			c-0.844-0.107-1.618-1.126-2.205-2.004c-2.911-4.365-4.972-9.167-6.148-14.275c1.057-0.537,2.018-1.275,2.827-2.157
			C147.399,158.507,148.937,160.424,150.622,163.017z M162.64,152.14c0.278,0.247,0.629,0.581,0.77,0.922
			c0,0.007,0.003,0.012,0.009,0.016c0.266,0.638-0.064,1.608-0.761,2.196c-0.729,0.611-1.822,0.96-3.332,1.069
			c-4.029,0.297-8.148-1.146-11.872-2.552c0.614-1.579,0.804-3.313,0.547-4.991c2.4-0.209,5.014,0.066,7.201,0.298
			C157.29,149.32,160.272,150.024,162.64,152.14z M152.097,135.799c1.062-0.521,2.08-0.994,3.074-1.051
			c0.823-0.055,1.617,0.267,1.904,0.774c0.242,0.379,0.225,1.113-0.07,1.747c-0.356,0.769-1.029,1.463-1.703,2.105
			c-2.276,2.164-4.832,4.008-7.618,5.475l-0.819,0.429c-0.047,0.018-0.077,0.033-0.107,0.049c-0.411-0.72-0.907-1.46-1.527-2.239
			c-0.501-0.641-1.04-1.239-1.608-1.82c0.208-0.329,0.42-0.659,0.633-1c0.499-0.479,1.226-0.885,2.015-1.322l0.758-0.433
			C148.695,137.558,150.378,136.651,152.097,135.799z M139.137,130.237l3.188-11.179c0.173-0.591,0.353-1.21,0.642-1.577
			c0.158-0.197,0.356-0.269,0.382-0.273c0.057,0.025,0.234,0.162,0.599,0.902c1.024,2.108,2.209,4.931,2.321,7.821
			c0.156,4.205-1.861,8.151-4.499,12.397c-0.206,0.226-0.394,0.477-0.567,0.738c-0.37-0.297-0.76-0.601-1.165-0.886
			c-0.604-0.417-1.366-0.81-2.209-1.12c-0.451-1.399,0.182-3.331,0.804-5.209C138.817,131.296,138.991,130.751,139.137,130.237z
			 M124.771,129.606c-1.783-1.4-3.624-2.85-4.582-4.709c-0.816-1.542-0.886-3.815,0.363-4.927c0.861-0.747,2.299-0.94,3.656-0.484
			c1.218,0.415,2.426,1.275,3.766,2.724c2.586,2.813,4.426,6.273,5.313,9.983c0.133,0.528,0.231,1.053,0.348,1.584
			c0.177,0.854,0.349,1.715,0.595,2.583c-0.358-0.002-0.728,0.023-1.087,0.08C130.421,134.132,127.66,131.87,124.771,129.606z
			 M135.181,146.025l-0.65-0.929c-0.758-1.058-1.458-2.066-1.82-3.127c-0.211-0.622-0.506-1.735,0.027-2.133
			c0.949-0.714,3.88-0.229,5.5,0.906c1.717,1.205,3.246,2.648,4.537,4.289c0.775,0.969,1.312,1.835,1.672,2.661
			c0.035,0.094,0.058,0.181,0.09,0.273c0.01,0.025,0.005,0.051,0.014,0.078c0.01,0.024,0.046,0.05,0.055,0.074
			c0.041,0.122,0.091,0.245,0.122,0.364c0.521,1.788,0.231,3.791-0.775,5.354c-0.976,1.479-2.563,2.525-4.476,2.852
			c-0.017-0.082-0.043-0.148-0.053-0.189C138.768,152.774,137.286,149.157,135.181,146.025z M118.791,104.488
			c0.164-3.428,2.404-6.655,5.561-8.021c3.163-1.365,7.048-0.793,9.661,1.43c0.589,0.49,1.002,1.006,1.21,1.482
			c0.1,0.248,0.145,0.486,0.133,0.707c-0.072,1.414-2.43,2.264-3.451,2.564c-4.254,1.26-8.74,1.902-13.158,2.438
			C118.756,104.893,118.764,104.69,118.791,104.488z M151.658,83.411c1.601,0.458,2.923,1.636,3.472,3.097
			c0.696,1.813-0.161,3.076-0.743,3.662c-1.24,1.277-3.315,1.764-5.009,1.166c-0.812-0.279-1.496-0.695-1.987-1.192
			c-0.732-0.749-1.114-1.875-1.033-3.092c0.099-1.239,0.657-2.374,1.524-3.038C149.277,82.949,150.843,83.18,151.658,83.411z
			 M143.807,63.271c0.187-1.42,0.763-2.868,1.333-4.271c0.321-0.805,0.699-1.722,1.283-2.171c0.686-0.532,1.888-0.557,3.223-0.061
			c2.094,0.767,4.2,2.854,5.212,5.241c0.565,1.304,0.806,2.69,0.563,4.016c-0.287,1.488-1.026,2.525-2.21,3.086
			c-1.748,0.826-4.382,0.559-6.544-0.644c-0.776-0.428-1.617-0.959-2.153-1.665C143.649,65.627,143.709,64.096,143.807,63.271z
			 M101.274,19.962c4.046,1.909,6.455,5.923,7.798,9.06c0.052,0.088,0.084,0.172,0.116,0.261c0.881,2.107,1.45,4.068,1.788,6.036
			c-1.607-2.952-3.314-5.937-5.412-8.63c-2.533-3.237-5.32-5.607-8.314-7.099c0.104-0.049,0.222-0.123,0.33-0.157
			C98.824,19.016,100.265,19.492,101.274,19.962z M95.283,21.662c0.316-0.644,0.737-1.162,1.197-1.564
			c3.054,1.415,5.905,3.784,8.463,7.071c2.409,3.077,4.292,6.578,6.121,9.971c0.029,0.052,0.098,0.072,0.144,0.112
			c0.079,1.067,0.097,2.16,0.036,3.291c-5.832-3.943-11.599-8.195-15.717-13.993c-0.356-0.499-0.713-1.05-1.028-1.63
			C94.543,23.809,94.76,22.699,95.283,21.662z M94.602,26.574c0.088,0.142,0.194,0.293,0.285,0.429
			c4.268,5.999,10.455,10.501,16.286,14.435c-0.096,0.963-0.205,1.936-0.394,2.983l-6.687-5.383
			c-2.884-2.323-5.86-4.721-7.769-7.835C95.521,29.903,94.854,28.278,94.602,26.574z"/>
		<path style="fill:#6D6D6D;" d="M118.648,40.626c0.738,7.739,13.25,0.696,16.676-1.105c2.634-1.381,5.339-2.845,7.149-5.195
			c1.811-2.354,2.48-5.867,0.764-8.283c-1.247-1.76-3.511-2.595-5.671-2.544c-2.144,0.059-4.203,0.89-6.103,1.923
			C127.214,27.75,118.104,34.933,118.648,40.626z"/>
	</g>
	<path style="fill:#6D6D6D;" d="M174.247,98.59c-1.001,0.284-1.936,0.814-2.968,1.67c-2.13,1.78-3.191,3.999-2.903,6.102
		c0.146,0.99,0.581,1.971,1.329,2.997c1.244,1.655,2.867,2.806,4.582,3.244c0.303,0.073,0.606,0.134,0.931,0.163
		c2.315,0.234,4.8-0.875,6.49-2.901c1.238-1.507,1.782-3.202,1.488-4.77c-0.146-0.894-0.556-1.644-0.846-2.128
		C180.665,100.199,177.674,97.597,174.247,98.59z"/>
	<path style="fill:#6D6D6D;" d="M197.206,100.598c0.193-0.761,0.094-1.472,0.038-1.942c-0.06-0.521-0.148-1.175-0.374-1.828
		c-0.729-2.164-2.471-3.689-4.574-3.964c-2.067-0.28-4.058,0.681-5.325,2.56c0,0,0,0,0,0.001c-1.246,1.867-1.432,4.376-0.478,6.523
		c0.731,1.649,2.063,2.831,3.574,3.214c0.257,0.069,0.514,0.107,0.787,0.135c2.322,0.162,4.053-1.443,5.142-2.672
		C196.456,102.102,196.982,101.478,197.206,100.598z M193.725,99.099c0.02,0.171,0.061,0.514,0.041,0.618
		c-0.025,0.087-0.155,0.267-0.4,0.549c-0.938,1.031-1.692,1.53-2.257,1.493c-0.531-0.04-1.067-0.555-1.389-1.255
		c-0.452-1.016-0.364-2.264,0.192-3.114c0.512-0.737,1.203-1.115,1.919-1.018c0.716,0.091,1.389,0.691,1.686,1.594
		C193.631,98.279,193.68,98.694,193.725,99.099z"/>
	<path style="fill:#6D6D6D;" d="M179.246,92.577c0.199,0.065,0.431,0.14,0.681,0.199c0.779,0.205,1.812,0.34,2.851-0.083
		c1.503-0.61,2.476-2.287,2.419-4.166c-0.05-2.016-1.326-4.073-3.072-5.002c-1.46-0.774-3.077-0.698-4.47,0.181
		c-1.108,0.714-1.917,1.909-2.258,3.396c-0.212,0.914-0.201,1.713,0.039,2.44C176.113,91.602,178.31,92.288,179.246,92.577z
		 M178.837,87.912c0.127-0.56,0.402-1.013,0.717-1.216c0.234-0.149,0.443-0.199,0.664-0.139c0.073,0.019,0.162,0.049,0.241,0.097
		c0.633,0.328,1.175,1.24,1.193,1.978c0.029,0.435-0.149,0.745-0.211,0.783c-0.134,0.056-0.517-0.016-1.15-0.218
		c-1.281-0.401-1.469-0.689-1.494-0.765C178.794,88.424,178.755,88.288,178.837,87.912z"/>
	<path style="fill:#6D6D6D;" d="M68.494,168.486c-2.476,1.284-3.987,3.227-4.155,5.344c-0.071,1.008,0.146,2.055,0.659,3.202
		c1.007,2.229,2.69,3.877,4.648,4.517c2.221,0.728,4.89,0.179,6.957-1.434c0.317-0.253,0.621-0.525,0.883-0.799
		c0.989-1.061,1.56-2.291,1.609-3.552c0.031-0.911-0.208-1.725-0.391-2.258c-1.033-3.062-3.42-6.256-6.971-6.021
		c0,0-0.002,0-0.004,0.002C70.693,167.56,69.674,167.88,68.494,168.486z M75.352,174.651c0.151,0.423,0.209,0.734,0.199,0.973
		c-0.02,0.522-0.433,1.154-1.133,1.696c-1.131,0.885-2.566,1.229-3.667,0.868c-1.017-0.332-1.93-1.281-2.514-2.6
		c-0.279-0.597-0.39-1.094-0.361-1.489c0.03-0.444,0.272-0.909,0.69-1.349c0.387-0.397,0.905-0.789,1.546-1.118
		c0.734-0.378,1.33-0.575,1.855-0.61C73.521,170.92,74.769,172.915,75.352,174.651z"/>
	<path style="fill:#6D6D6D;" d="M49.289,166.655c0.382-1.983-0.424-4.264-1.93-5.555c-1.256-1.057-2.861-1.341-4.408-0.771
		c-1.237,0.455-2.278,1.454-2.935,2.826c-0.412,0.845-0.571,1.631-0.481,2.395c0.225,2.15,2.222,3.29,3.06,3.784
		c0.747,0.421,1.967,1.121,3.434,0.874c0.778-0.141,1.491-0.548,2.067-1.154C48.675,168.433,49.105,167.597,49.289,166.655z
		 M45.419,166.712c-0.137,0.027-0.485-0.129-1.062-0.456c-1.175-0.677-1.285-0.988-1.311-1.074c0-0.004-0.011-0.144,0.16-0.501
		c0.135-0.262,0.28-0.49,0.45-0.671c0.168-0.168,0.344-0.291,0.504-0.358c0,0,0.004-0.002,0.004-0.001
		c0.358-0.128,0.614-0.086,0.892,0.157c0.554,0.461,0.888,1.465,0.761,2.188C45.723,166.433,45.485,166.682,45.419,166.712z"/>
</g>
</svg>
