<?xml version="1.0" encoding="iso-8859-1"?>
<!-- Generator: Adobe Illustrator 16.0.0, SVG Export Plug-In . SVG Version: 6.00 Build 0)  -->
<!DOCTYPE svg PUBLIC "-//W3C//DTD SVG 1.1//EN" "http://www.w3.org/Graphics/SVG/1.1/DTD/svg11.dtd">
<svg version="1.1" id="&#x5716;&#x5C64;_1" xmlns="http://www.w3.org/2000/svg" xmlns:xlink="http://www.w3.org/1999/xlink" x="0px"
	 y="0px" width="230px" height="230px" viewBox="0 0 230 230" style="enable-background:new 0 0 230 230;" xml:space="preserve">
<g>
	<circle style="fill:#FEF9E2;" cx="115" cy="115" r="115"/>
	<g>
		<path style="fill:#ED9D0F;" d="M92.136,46.407l-5.04-7.655 M83.792,35.845l-1.524-1.347c-0.209-0.168-0.603-0.532-1.147-0.711
			c-1.514-0.51-2.761,0.506-3.17,0.84c-4.429,3.598,4.325,19.029,5.25,26.274l-28.062-7.022c-2.846-1.53-4.079-2.099-5.491-1.789
			c-1.384,0.298-3.119,1.455-3.53,5.212C44.585,71.538,75.635,79.77,84.557,86.715c3.583,2.79,8.601,4.838,10.648,8.801
			c0.954,1.848,2.128,6.432,2.812,7.765c2.826,5.508,4.15,11.121,6.02,16.059c0.013,0.038,0.027,0.08,0.045,0.129
			c2.358,6.347,2.763,13.396,1.228,20.485c-1.085-1.558-2.477-3.074-3.852-4.493l-0.406-0.422h0.002
			c-8.7-9.07-17.474-17.458-29.055-20.423c-0.584-0.152-1.204,0.01-1.644,0.419c-0.441,0.415-0.644,1.02-0.535,1.621
			c0.867,4.653,3.738,8.456,6.276,11.81c3.707,4.893,7.534,9.95,12.309,14.121c0.073,0.059,0.146,0.123,0.211,0.181
			c3.968,3.412,9.417,7.518,13.855,7.006c-1.103,3.429-2.203,6.968-2.866,10.604c-2.851,15.689,3.261,32.875,15.271,43.347
			c0.439,0.376,0.884,0.753,1.335,1.113c0.766,0.61,1.879,0.487,2.489-0.268c0.616-0.768,0.545-1.916-0.271-2.497
			c-8.937-7.157-14.632-18.238-15.771-29.661c4.72,1.988,12.705-3.25,15.103-4.948c5.634-4.001,9.525-9.955,10.681-16.307
			c0.114-0.635-0.111-1.288-0.61-1.68c-0.49-0.409-1.165-0.523-1.758-0.298l-9.242,3.511c-3.892,1.471-7.91,2.989-11.396,5.613
			c0,0.002,0,0.002,0,0.002c-0.522,0.387-1.334,1.092-2.199,2.002c0.702-3.499,1.811-6.991,2.894-10.374
			c0.614-1.896,1.206-3.801,1.753-5.714c3.043-5.503,6.501-11.15,10.921-16.109c4.292-4.812,9.127-8.432,14.136-10.615
			c-0.007,0.276,0,0.554,0.021,0.847c1.077,12.938,10.158,19.625,21.499,26.729c4.1,2.569,5.747,9.466,7.816,7.679
			c2.361-2.033,2.778-8.723,0.697-13.06c-1.854-3.894-4.043-7.438-6.47-10.645l14.018,3.106c1.756,0.388,3.575,0.794,5.48,0.899
			c0.535,0.027,1.958,0.106,2.952-0.933c0.713-0.72,0.854-1.659,0.92-2.059c0.725-4.636-0.846-9.552-4.098-12.956
			c4.566-3.147,8.179-7.037,10.526-11.484c0.439-0.823,0.135-1.845-0.641-2.33c-9.236-5.661-21.073-6.632-31.17-2.812
			c1.235-3.662,1.917-7.857,2.126-13.099c0.291-7.285-1.551-12.158-5.493-14.46c-0.513-0.292-1.129-0.323-1.662-0.066
			c-0.531,0.252-0.898,0.748-0.988,1.325c-1.183,7.802-3.772,15.227-7.698,22.075c-0.459,0.802-0.945,1.604-1.425,2.415
			c-2.691,4.502-5.475,9.15-5.405,14.586c0,0.022,0.002,0.038,0,0.049c-6.334,2.204-12.47,6.497-17.779,12.451
			c-2.432,2.721-4.562,5.622-6.497,8.577c0.346-5.381-0.333-10.655-2.08-15.574c0.322-0.965,0.61-1.946,0.869-2.934
			c3.41-1.102,6.629-3.324,10.082-6.991c13.145-13.969,25.429-49.099,18.934-67.152c-0.184-0.532-0.705-1.939-2.123-2.397
			c-1.711-0.56-3.065,0.691-3.513,1.105c-0.245,0.227-0.479,0.464-0.721,0.696c0.01-0.176-12.47,18.47-12.626,18.76
			c-1.935,2.345-3.685,4.831-5.241,7.431c-0.14-1.987-0.582-3.959-1.501-5.819c-1.514-3.057-4.081-5.314-6.343-7.309
			 M90.931,140.084c-4.547-3.976-8.366-8.935-12.013-13.754c-1.064-1.409-2.169-2.905-3.146-4.481
			c0.831,0.988,1.654,2.009,2.454,3.025c1.245,1.583,2.531,3.226,3.852,4.614c3.997,4.2,8.219,8.278,12.569,12.102
			c0.069,0.052,0.127,0.111,0.193,0.162c2.409,2.106,5.013,3.983,7.876,4.344C101.413,146.649,98.257,146.396,90.931,140.084z
			 M115.707,164.575c-4.274,3.037-9.851,5.572-11.793,4.547c-0.285-0.156-0.468-0.308-0.61-0.453
			c7.601-2.427,14.481-6.868,19.842-12.766C121.486,159.262,118.932,162.282,115.707,164.575z M104.098,167.504
			c0.305-0.293,0.61-0.589,0.906-0.88c1.678-1.631,3.416-3.315,5.358-4.532c1.908-1.186,3.92-2.297,5.865-3.369
			c2.257-1.244,4.573-2.516,6.784-3.956C117.931,160.553,111.372,164.973,104.098,167.504z M107.563,161.134
			c3.079-2.322,6.862-3.757,10.524-5.137l3.253-1.234c-1.828,1.123-3.696,2.167-5.542,3.181c-1.953,1.082-3.978,2.196-5.9,3.406
			c-2.025,1.264-3.799,2.976-5.507,4.638c-0.462,0.452-0.939,0.883-1.404,1.323C103.329,165.367,105.764,162.487,107.563,161.134z
			 M103.573,145.279c-2.917-0.055-5.64-1.997-8.154-4.194c-0.065-0.052-0.126-0.112-0.187-0.16
			c-4.324-3.809-8.541-7.861-12.508-12.044c-1.298-1.367-2.516-2.91-3.804-4.555c-1.418-1.803-2.869-3.619-4.436-5.202
			c9.113,3.403,16.578,10.618,24.009,18.368l0.002,0.001l0.421,0.434c1.299,1.335,4.574,4.731,4.729,6.772
			C103.593,144.892,103.561,145.084,103.573,145.279z M134.195,43.025c5.977,16.804-6.014,50.394-18.236,63.373
			c-2.298,2.44-4.43,4.136-6.561,5.219c0.225-1.235,0.4-2.476,0.534-3.719c7.57-6.516,12.989-15.347,15.275-25.076
			c1.099-4.642,9.412-23.493,9.389-30.094c-0.014-3.227-0.171-6.476-0.411-9.693C134.189,43.031,134.193,43.028,134.195,43.025z
			 M133.382,43.815c0.205,2.959,0.315,5.95,0.327,8.92c0.023,6.531-8.284,25.314-9.364,29.89
			c-2.063,8.777-6.701,16.834-13.209,23.042c4.309-6.932,6.974-16.797,8.864-24.98c0.514-2.248,1.005-4.457,1.486-6.652
			c1.245-5.654,10.248-24.641,11.861-30.187C133.36,43.835,133.37,43.825,133.382,43.815z M111.54,79.11
			c0.004-0.015,0.01-0.031,0.021-0.045c2.729-7.585,14.874-28.158,20.518-33.958c-1.401,5.033-10.324,23.583-11.46,28.74
			c-0.478,2.186-0.964,4.399-1.485,6.647c-1.908,8.264-4.611,18.26-8.995,25.088c0.342-5.28-0.103-10.596-1.318-15.753
			c0.002-0.005,0.006-0.011,0.006-0.016c0.551-3.652,1.463-7.226,2.701-10.667C111.529,79.136,111.538,79.121,111.54,79.11z
			 M103.061,56.803c2.121,1.859,5.356,3.707,6.559,6.136c2.128,4.29-0.015,9.636-1.461,15.117c-0.562,1.576-1.056,3.175-1.486,4.803
			c-0.55-1.421-1.146-2.817-1.819-4.193c-0.502-1.014-1.013-1.95-1.54-2.847c-0.139-5.148-2.385-10.171-4.7-14.514
			c-0.624-1.181-1.262-2.292-1.88-3.373c-2.032-3.543-15.006-15.792-15.708-19.812L103.061,56.803z M80.134,38.274
			c0.736,4.193,13.84,16.628,15.83,20.099c0.612,1.071,1.248,2.175,1.864,3.348c2.022,3.792,4.01,8.113,4.505,12.531
			c-1.055-1.611-2.171-3.041-3.374-4.27c-2.467-2.523-5.426-4.436-8.445-6.055c-0.555-1.415-0.675-3.042-0.773-4.417
			C89.434,55.03,78.113,41.587,80.134,38.274z M79.119,38.269c-1.889,3.455,9.434,16.866,9.742,21.302
			c0.083,1.169,0.185,2.503,0.532,3.777c-1.613-0.822-1.071-0.502-2.623-1.223l-0.395-0.177
			C85.287,56.791,75.239,41.544,79.119,38.269z M105.289,113.979c-2.312-3.591-2.928-8.142-5.66-13.203
			c-0.657-1.223-1.154-6.035-2.441-7.758c-2.69-3.58-6.688-5.875-10.081-8.763c-7.817-6.639-38.879-13.384-37.47-26.566
			c0.169-1.529,0.586-2.103,0.77-2.138c0.244-0.057,0.898,0.248,1.212,0.391l31.501,8.317c4.218,1.96,8.565,3.975,12.02,6.985
			c0.441,0.392,0.873,0.791,1.29,1.215c1.926,1.973,3.638,4.51,5.245,7.767C106.795,90.661,108.051,102.742,105.289,113.979z
			 M175.191,102.702c-1.683,0.138-3.357,0.457-4.93,0.812c-7.036,1.569-14.032,3.584-20.86,5.974c1.103-1.26,2.11-2.671,2.981-4.22
			c0.018-0.008,0.038-0.006,0.063-0.015C159.37,101.625,167.635,100.802,175.191,102.702z M142.388,100.486
			c0.502-0.832,0.99-1.651,1.458-2.472c3.591-6.259,6.122-12.978,7.546-20.002c1.289,2.032,1.855,5.114,1.685,9.229
			c-0.216,5.394-0.94,9.557-2.291,13.114c-1.655,4.341-4.383,7.878-7.696,9.938c-1.077,0.68-2.261,1.229-3.501,1.812
			c-0.651,0.306-1.314,0.618-1.966,0.953c-0.047-0.046-0.086-0.084-0.133-0.121c0,0,0,0-0.006-0.003
			C137.54,108.6,139.896,104.655,142.388,100.486z M159.781,141.212c0.48,1.006,1.934,4.391,0.44,5.684
			c-1.264,1.092-3.341-4.114-4.141-4.974c-7.221-7.826-18.615-12.119-19.588-23.874c-0.027-0.276-0.022-0.523-0.019-0.7
			c1.876,0.777,3.692,1.729,5.455,2.839c0.033,0.031,0.074,0.07,0.108,0.1c0.562,0.485,1.271,0.96,2.08,1.394
			C150.433,126.269,155.843,132.967,159.781,141.212z M176.359,129.514c-0.05,0-0.095-0.001-0.161-0.006
			c-1.615-0.088-3.29-0.458-4.916-0.815l-18.383-4.068c-0.056-0.012-0.099,0.003-0.155-0.005c-0.063-0.075-0.143-0.148-0.214-0.217
			c2.025,0.309,3.947,0.37,5.414,0.065c5.465-1.133,10.445-2.99,14.752-5.436C175.543,121.59,176.9,125.526,176.359,129.514z
			 M153.222,120.921c0.807-0.053,1.605-0.116,2.392-0.2c1.975-0.209,3.942-0.489,5.891-0.794c-1.385,0.413-2.815,0.772-4.284,1.071
			C156.209,121.208,154.774,121.157,153.222,120.921z M166.357,118.195c-3.564,0.658-7.184,1.266-10.836,1.64
			c-2.059,0.217-4.209,0.35-6.315,0.137c-1.236-0.386-2.4-0.848-3.337-1.354c-0.28-0.205-0.565-0.41-0.857-0.603
			c3.461,0.122,6.854-0.379,9.727-0.939c8.966-1.732,17.578-4.739,25.664-8.923C177.008,112.33,172.186,115.768,166.357,118.195z
			 M181.626,106.489c-8.479,4.604-17.565,7.879-27.051,9.726c-3.259,0.625-7.179,1.175-11.077,0.805
			c-0.892-0.552-1.787-1.093-2.706-1.567c0.1-0.042,0.203-0.095,0.301-0.139c1.282-0.605,2.61-1.225,3.876-2.015
			c1.072-0.668,2.083-1.466,3.031-2.362c7.336-2.651,14.87-4.875,22.454-6.566c2.55-0.567,5.183-1.048,7.677-0.76
			c1.437,0.512,2.846,1.115,4.194,1.841C182.105,105.803,181.87,106.147,181.626,106.489z"/>
		<path style="fill:#ED9D0F;" d="M111.298,68.875c0.134-0.238,0.238-0.49,0.315-0.76c0.396-1.391-0.036-3.019-1.144-4.357
			c-0.663-0.809-1.406-1.304-2.199-1.489c-0.966-0.22-1.965,0.114-2.812,0.938c-1.18,1.15-1.866,3.062-1.591,4.433
			c0.354,1.773,1.9,3.153,3.674,3.295C109.062,71.053,110.58,70.186,111.298,68.875z M105.502,67.311
			c-0.151-0.718,0.277-2.095,1.123-2.918c0.293-0.288,0.765-0.612,1.276-0.498c0.431,0.099,0.866,0.402,1.287,0.92
			c0.588,0.705,1.109,1.827,0.825,2.849c-0.279,0.977-1.321,1.69-2.342,1.609C106.659,69.194,105.701,68.331,105.502,67.311z"/>
		<path style="fill:#ED9D0F;" d="M111.227,55.403c0.071,0.501,0.229,0.944,0.452,1.314c0.765,1.292,2.525,1.888,3.996,1.341
			c0.833-0.307,1.524-0.934,1.963-1.724c0.265-0.494,0.44-1.042,0.487-1.613c0.045-0.532-0.016-1.015-0.178-1.446
			c-0.363-0.943-1.264-1.678-2.358-1.909c-1.377-0.284-2.598-0.011-3.431,0.778C111.349,52.912,111.018,54.069,111.227,55.403z
			 M113.105,55.86c-0.118-0.183-0.191-0.424-0.24-0.709c-0.119-0.783,0.045-1.426,0.437-1.798c0.428-0.404,1.119-0.536,1.948-0.355
			c0.534,0.112,0.981,0.453,1.146,0.872c0.067,0.19,0.092,0.438,0.068,0.713c-0.067,0.863-0.629,1.647-1.366,1.915
			C114.384,56.762,113.471,56.476,113.105,55.86z"/>
		<path style="fill:#ED9D0F;" d="M98.764,61.564c0.777-0.391,1.539-0.905,1.937-1.681c0.506-1.004,0.26-2.269-0.383-3.191
			c-0.636-0.931-1.619-1.561-2.624-2.074c-3.935-1.983-5.488,4.194-3.238,6.607c0.352,0.374,0.777,0.692,1.273,0.858
			C96.721,62.413,97.819,62.041,98.764,61.564z"/>
		<path style="fill:#ED9D0F;" d="M108.041,42.551c0.527,1.034,1.755,1.602,2.91,1.52c0.779-0.05,1.579-0.405,1.977-1.078
			c0.157-0.278,0.243-0.582,0.281-0.896c0.151-1.132-0.354-2.351-1.312-2.969C109.786,37.782,106.893,40.282,108.041,42.551z"/>
	</g>
</g>
</svg>
