<?xml version="1.0" encoding="iso-8859-1"?>
<!-- Generator: Adobe Illustrator 16.0.0, SVG Export Plug-In . SVG Version: 6.00 Build 0)  -->
<!DOCTYPE svg PUBLIC "-//W3C//DTD SVG 1.1//EN" "http://www.w3.org/Graphics/SVG/1.1/DTD/svg11.dtd">
<svg version="1.1" id="&#x5716;&#x5C64;_1" xmlns="http://www.w3.org/2000/svg" xmlns:xlink="http://www.w3.org/1999/xlink" x="0px"
	 y="0px" width="230px" height="230px" viewBox="0 0 230 230" style="enable-background:new 0 0 230 230;" xml:space="preserve">
<g>
	<circle style="fill:#FFF0F0;" cx="115" cy="115" r="115"/>
	<g>
		<path style="fill:#9B5766;" d="M85.766,81.834l0.197,0.04c0.205,0.044,0.437,0.093,0.674,0.093h0.001
			c0.42,0,0.767-0.157,1.035-0.473c0.414-0.499,0.501-1.309-0.045-1.776c-0.076-0.077-0.162-0.138-0.299-0.228l-0.044-0.019
			c-0.304-0.234-0.633-0.248-0.927-0.261c-0.079-0.004-0.163-0.007-0.262-0.016l-0.099-0.004c-0.656,0-1.179,0.518-1.24,1.232
			C84.693,81.137,85.11,81.719,85.766,81.834z"/>
		<path style="fill:#9B5766;" d="M85.251,71.257c-0.389,0.081-0.719,0.367-0.882,0.766c-0.169,0.412-0.133,0.862,0.094,1.202
			c0.196,0.295,0.44,0.526,0.723,0.683c0.2,0.114,0.412,0.171,0.633,0.171c0.537,0,1.031-0.354,1.222-0.869
			c0.156-0.267,0.186-0.591,0.072-0.917c-0.353-0.894-0.981-1.081-1.446-1.081C85.535,71.212,85.394,71.227,85.251,71.257z"/>
		<polygon style="fill:#9B5766;" points="89.236,80.215 89.481,80.198 89.778,79.871 89.717,79.14 88.988,79.158 88.693,79.484 
			88.762,80.215 		"/>
		<path style="fill:#9B5766;" d="M84.135,70.385l0.118,0.051c0.179,0.078,0.405,0.177,0.701,0.208
			c0.017,0.002,0.033,0.003,0.048,0.003c0.081,0,0.16-0.021,0.229-0.061c0.32-0.071,0.612-0.269,0.805-0.556
			c0.22-0.327,0.28-0.712,0.169-1.067c-0.099-0.794-0.977-1.347-1.688-1.019c-0.545,0.103-1.006,0.593-1.094,1.182
			C83.341,69.687,83.612,70.168,84.135,70.385z"/>
		<path style="fill:#9B5766;" d="M79.361,74.018h0.055c0.385,0,0.677-0.121,0.975-0.404c0.204-0.193,0.32-0.473,0.317-0.767
			c-0.003-0.293-0.124-0.57-0.328-0.755c-0.285-0.264-0.565-0.39-1.039-0.38c-0.727,0.034-1.106,0.605-1.104,1.151
			C78.238,73.414,78.624,73.987,79.361,74.018z M79.415,73.532L79.415,73.532l0.001,0.006L79.415,73.532z"/>
		<path style="fill:#9B5766;" d="M80.255,80.203L80.255,80.203c0.321,0,0.627-0.124,0.839-0.338c0.209-0.21,0.318-0.488,0.315-0.805
			c-0.007-0.64-0.502-1.122-1.152-1.122c-0.32,0-0.625,0.124-0.838,0.338c-0.208,0.21-0.318,0.487-0.315,0.804
			C79.11,79.72,79.605,80.203,80.255,80.203z"/>
		<path style="fill:#9B5766;" d="M83.872,86.037l0.037,0c0.4,0,0.753-0.16,0.995-0.452c0.205-0.248,0.317-0.574,0.317-0.92
			c0-0.749-0.512-1.323-1.238-1.375c-0.688-0.233-1.516,0.159-1.776,0.827c-0.19,0.489-0.055,1.007,0.363,1.391
			C82.948,85.854,83.375,86.026,83.872,86.037z M83.909,85.554L83.909,85.554v0.005V85.554z"/>
		<path style="fill:#9B5766;" d="M96.529,111.872c-0.064,0-0.13,0.005-0.246,0.023c-0.045,0.011-0.094,0.019-0.129,0.028
			c-0.478,0-0.88,0.25-1.077,0.668c-0.219,0.462-0.141,1.044,0.193,1.447c0.222,0.27,0.467,0.384,0.707,0.482
			c0.146,0.057,0.292,0.085,0.437,0.085c0.502,0,0.934-0.345,1.105-0.87c0.242-0.327,0.294-0.764,0.127-1.147
			C97.454,112.147,97.027,111.872,96.529,111.872z"/>
		<path style="fill:#9B5766;" d="M93.439,117.539c-0.64-0.121-1.274-0.027-1.762,0.294c-0.422,0.27-0.683,0.675-0.732,1.138
			c-0.055,0.519,0.15,1.054,0.562,1.467c0.258,0.264,0.639,0.422,1.018,0.422c0.113,0,0.224-0.015,0.343-0.046h0.017
			c0.803,0,1.415-0.442,1.726-1.247c0.14-0.379,0.087-0.831-0.144-1.24C94.228,117.909,93.844,117.614,93.439,117.539z"/>
		<path style="fill:#9B5766;" d="M89.675,123.347c-0.296,0.234-0.286,0.825,0.009,1.055c0.36,0.281,0.682,0.389,1.141,0.271
			c0.095-0.023,0.155-0.092,0.227-0.148c0.255-0.081,0.46-0.331,0.384-0.678C91.267,123.04,90.221,122.906,89.675,123.347z"/>
		<path style="fill:#9B5766;" d="M91.606,115.772c0.402,0,0.772-0.173,1.05-0.494c0.118-0.141,0.2-0.312,0.236-0.49
			c0.151-0.319,0.142-0.691-0.03-1.012c-0.247-0.46-0.736-0.745-1.278-0.745c-0.549,0-1.029,0.299-1.254,0.783
			c-0.202,0.439-0.177,0.913,0.072,1.301C90.66,115.52,91.123,115.772,91.606,115.772z"/>
		<path style="fill:#9B5766;" d="M94.5,115.172c-0.199,0.283-0.237,0.636-0.092,1.043c0.174,0.491,0.608,0.81,1.105,0.81
			c0.391,0,0.763-0.2,1.019-0.576c0.299-0.421,0.263-0.945-0.051-1.283C96.054,114.547,94.924,114.569,94.5,115.172z"/>
		<path style="fill:#9B5766;" d="M88.383,117.586c-0.322,0-0.63,0.124-0.845,0.341c-0.21,0.211-0.32,0.491-0.317,0.81
			c0.005,0.645,0.504,1.132,1.161,1.132c0.323,0,0.632-0.124,0.846-0.34c0.21-0.212,0.32-0.492,0.317-0.813
			C89.538,118.072,89.039,117.586,88.383,117.586z"/>
		<path style="fill:#9B5766;" d="M100.735,112.583c0.594,0,1.121-0.368,1.312-0.916c0.171-0.496,0.029-1.014-0.372-1.369
			c-0.319-0.465-0.936-0.62-1.395-0.352c-0.3,0.066-0.479,0.247-0.601,0.426c-0.046,0.032-0.098,0.073-0.123,0.098
			c-0.052,0.055-0.09,0.12-0.11,0.189c-0.16,0.243-0.24,0.524-0.216,0.785c0.025,0.278,0.164,0.527,0.384,0.696
			c0.253,0.202,0.495,0.373,0.909,0.427C100.595,112.578,100.667,112.583,100.735,112.583
			C100.735,112.583,100.735,112.583,100.735,112.583z"/>
		<path style="fill:#9B5766;" d="M134.277,102.124L134.277,102.124c0.467,0,0.854-0.257,1.061-0.7
			c0.202-0.422,0.173-0.911-0.077-1.31c-0.437-0.693-1.41-0.828-2.006-0.226c-0.377,0.384-0.485,0.89-0.291,1.353
			C133.179,101.751,133.73,102.123,134.277,102.124z"/>
		<path style="fill:#9B5766;" d="M128.855,103.643c-0.624-0.276-1.113-0.315-1.734-0.162c-0.44,0.103-0.791,0.452-0.915,0.911
			c-0.128,0.474,0.003,0.966,0.345,1.288c0.389,0.362,0.918,0.576,1.418,0.576c0.628,0,1.14-0.326,1.396-0.878
			c0.072-0.142,0.113-0.296,0.12-0.461C129.602,104.369,129.354,103.862,128.855,103.643z"/>
		<path style="fill:#9B5766;" d="M123.342,100.759c-0.394,0.08-0.711,0.321-0.891,0.677c-0.196,0.384-0.21,0.869-0.04,1.28
			c0.167,0.711,0.876,1.241,1.675,1.242c0.624,0,1.134-0.331,1.361-0.883c0.23-0.548,0.19-1.1-0.111-1.555
			C124.94,100.926,124.167,100.6,123.342,100.759z"/>
		<path style="fill:#9B5766;" d="M121.416,97.841c-0.954-0.376-1.926,0.363-1.932,1.417c0,0.447,0.268,0.893,0.688,1.099
			l0.088,0.041c0.166,0.078,0.349,0.12,0.529,0.12c0.39,0,0.731-0.189,0.927-0.508l0.022-0.026c0.365-0.285,0.551-0.705,0.497-1.132
			C122.181,98.405,121.875,98.027,121.416,97.841z"/>
		<path style="fill:#9B5766;" d="M120.752,104.694l-0.107-0.006c-0.419,0-0.733,0.248-0.931,0.536l-0.148,0.217
			c-0.221,0.337-0.235,0.756-0.037,1.123c0.214,0.397,0.628,0.652,1.053,0.652c0.193,0,0.382-0.053,0.55-0.155l0.03-0.007
			c0.375-0.103,0.59-0.365,0.746-0.601c0.203-0.335,0.199-0.785-0.017-1.126C121.561,104.83,121.147,104.742,120.752,104.694z"/>
		<path style="fill:#9B5766;" d="M130.166,112.759l0.166,0.078c0.164,0.046,0.332,0.069,0.498,0.069c0.13,0,0.255-0.014,0.304-0.029
			c0.325-0.012,0.606-0.139,0.818-0.367c0.18-0.144,0.344-0.319,0.493-0.528c0.241-0.357,0.258-0.809,0.047-1.208
			c-0.201-0.378-0.573-0.635-0.988-0.679c-0.18-0.074-0.384-0.115-0.583-0.115h-0.001c-0.382,0.003-0.683,0.101-0.91,0.276
			l-0.127,0.071l-0.022,0.033c-0.448,0.318-0.697,0.916-0.599,1.463C129.345,112.289,129.669,112.63,130.166,112.759z"/>
		<path style="fill:#9B5766;" d="M173.012,126.058c-0.063-0.909-1.233-0.909-1.732-0.909c-0.036,0-3.568,0.074-4.182,0.991
			c-0.734,1.071-1.823,1.814-2.976,2.603c-1.274,0.869-2.592,1.768-3.452,3.168c-0.547,0.886-0.924,1.757-1.287,2.601
			c-0.344,0.798-0.679,1.572-1.146,2.318c-0.091,0.066-0.19,0.141-0.278,0.203c-0.764,0.554-1.372,0.994-1.743,1.404
			c-8.597,6.295-18.215,9.572-28.599,9.775c1.597-3.937,3.128-7.927,4.556-11.696c1.336-3.519,3.275-8.006,4.984-11.965
			c0.612-1.416,1.201-2.779,1.742-4.051c0.12,0.098,0.23,0.197,0.368,0.289c0.224,0.146,0.434,0.289,0.633,0.425
			c1.087,0.741,1.946,1.326,3.117,1.326c0.574,0,1.205-0.145,1.925-0.441c0.98-0.398,1.662-1.111,2.321-1.801l0.282-0.295
			c0.686-0.715,1.511-1.053,2.385-1.409c0.498-0.206,1.014-0.416,1.526-0.705c1.448-0.814,1.407-2.716,1.376-4.104
			c-0.006-0.266-0.012-0.516-0.006-0.74c0.058-2.786-0.886-4.644-2.224-6.963c-0.796-1.38-1.4-2.895-1.984-4.359
			c-0.538-1.348-1.096-2.743-1.806-4.05c-0.104-0.191-0.248-0.384-0.415-0.572c1.044-3.128,1.859-6.262,2.382-9.265l0.07-0.184
			c0.074-0.19,0.145-0.379,0.198-0.561c0.083-0.251,0.089-0.53,0.019-0.85c1.653-10.777,0.642-21.77-3.004-32.714
			c0.007-0.647,0.062-1.287,0.117-1.938c0.084-0.954,0.171-1.94,0.111-3.014c-0.087-1.701-0.829-3.16-1.547-4.57
			c-0.651-1.28-1.268-2.49-1.403-3.832c-0.099-1.081-3.521-3.309-4.48-3.309c-0.324,0-0.603,0.146-0.763,0.402
			c-1.475,2.369-1.076,4.719-0.656,7.206c0.14,0.822,0.283,1.672,0.363,2.549c0.247,2.761,2.76,7.244,5.614,10.208
			c2.612,9.495,3.123,19.025,1.499,28.409c-0.195,0.505-0.323,1.269-0.483,2.228c-0.142,0.843-0.324,1.871-0.589,2.958
			c0-0.361,0.011-0.727,0.022-1.099c0.047-1.489,0.097-3.027-0.617-4.494c-1.909-3.931-5.362-8.138-9.328-8.163
			c-0.271-0.002-0.523-0.014-0.763-0.026c-1.393-0.067-2.398-0.023-3.388,1.545c-0.226,0.356-0.381,0.699-0.489,1.033
			c-0.298-0.107-0.599-0.206-0.899-0.297c-0.328-0.1-0.655-0.199-0.964-0.317c-0.342-0.132-0.697-0.286-1.063-0.445
			c-0.75-0.327-1.568-0.678-2.396-0.892c-0.416-0.17-0.846-0.329-1.3-0.483c-0.466-0.158-0.919-0.323-1.364-0.486
			c-1.656-0.605-3.223-1.177-4.953-1.177c-0.308,0-0.613,0.025-0.915,0.062c-0.137-0.179-0.336-0.311-0.576-0.342
			c-0.786-0.092-1.525-0.305-2.309-0.532c-0.854-0.247-1.737-0.501-2.692-0.588c-1.257-0.109-1.939-0.421-2.904-1.035
			c-0.619-0.393-1.296-0.771-2.076-1.019c-0.142-0.902-0.354-1.783-0.573-2.644c-0.362-1.422-0.703-2.766-0.709-4.2
			c-0.009-1.959-2.501-5.551-5.084-6.836c0.156-0.223,0.292-0.461,0.383-0.73c0.619-1.822-0.386-4.22-1.331-6.104
			c-0.407-0.811-0.77-1.672-1.12-2.505c-0.497-1.184-1.013-2.408-1.673-3.535c-0.872-1.487-2.732-2.57-4.227-3.439l-0.483-0.282
			c-0.967-0.568-2.028-0.855-3.155-0.855c-2.795,0-5.542,1.725-7.862,3.413c-2.099,1.537-2.027,5.315-1.269,7.799
			c-3.487,0.113-5.929,1.622-8.704,4.021c-2.59,2.248-2.57,5.019-2.549,7.953c0.003,0.428,0.006,0.865,0.001,1.304
			c-0.056,4.182,1.052,7.12,3.589,9.527c0.337,0.32,0.646,0.606,0.945,0.876c-0.364,0.076-0.723,0.167-1.057,0.331
			c-1.529,0.766-2.929,2.109-4.164,3.294c-0.251,0.241-0.499,0.478-0.738,0.702c-2.12,1.969-2.629,5.625-1.158,8.328
			c1.467,2.672,3.73,6.237,6.172,8.046c1.23,0.909,2.424,1.332,3.757,1.332c0.167,0,0.333-0.02,0.5-0.033
			c-0.866,3.648,3.525,6.563,5.992,8.193l0.102,0.068c0.652,0.43,1.376,0.744,2.131,0.989c-0.225,0.188-0.442,0.378-0.647,0.559
			c-0.276,0.245-0.53,0.472-0.755,0.639c-1.212,0.89-2.306,2.037-3.363,3.146c-0.483,0.508-0.962,1.01-1.446,1.479
			c-1.564,1.53-1.462,3.585-1.248,5c0.194,1.269,0.067,2.568-0.057,3.827c-0.149,1.524-0.303,3.104,0.09,4.686
			c1.329,5.414,4.195,8.552,8.52,9.326c1.131,0.205,2.223,0.31,3.244,0.31c1.82,0,3.302-0.343,4.444-0.986
			c-0.039,0.109-0.073,0.215-0.113,0.325c-0.269,0.742-0.548,1.512-0.727,2.315c-0.314,1.465-0.114,2.898,0.579,4.145
			c0.502,0.911,1.291,1.393,2.279,1.393c2.273,0,5.234-2.571,6.825-3.952c0.325-0.283,0.589-0.513,0.772-0.653
			c1.043-0.806,1.71-1.841,2.355-2.843c0.511-0.792,0.994-1.54,1.649-2.184c0.888-0.876,1.475-2.087,1.718-3.459
			c0.639,0.474,1.335,0.788,2.061,0.788c0.237,0,0.472-0.033,0.699-0.098c1.849-0.526,2.134-3.339,2.287-4.851l0.02-0.195
			c0.056-0.515,0.181-1.094,0.313-1.707c0.274-1.271,0.558-2.583,0.336-3.758c-0.29-1.52-0.784-3.003-1.511-4.536
			c-0.402-0.853-0.924-1.673-1.476-2.472c1.406,0.953,3.226,1.43,5.512,1.43c0.442,0,0.907-0.022,1.39-0.056
			c-0.613,0.559-1.175,1.189-1.591,2.002c-0.943,1.853-1.176,5.3-0.078,7.139c1.186,2,2.708,2.432,4.471,2.932
			c0.289,0.082,0.59,0.169,0.904,0.266c0.428,0.129,0.848,0.276,1.265,0.423c1.175,0.412,2.388,0.836,3.651,0.836
			c0.768,0,1.484-0.151,2.188-0.466l0.183-0.08c1.496-0.66,3.56-1.574,5.49-2.728c-0.585,1.23-1.131,2.248-1.665,3.24
			c-0.955,1.776-1.858,3.453-2.878,6.137c-4.192,11.066-8.529,22.509-14.673,32.456c-2.845,4.608-6.147,8.804-9.818,12.468v0.001
			c-0.012,0.011-0.023,0.022-0.034,0.034l-0.977,0.977l0.059-0.01c-1.361,1.487-2.823,2.546-4.011,3.406
			c-0.765,0.554-1.375,0.995-1.745,1.405c-8.879,6.499-18.857,9.794-29.658,9.794h-0.276c-0.531,0-0.978,0.213-1.257,0.599
			c-0.295,0.408-0.357,0.965-0.169,1.534c0.186,0.534,0.582,1.041,1.088,1.392c0.417,0.283,0.897,0.443,1.353,0.447l0.281,0.002
			c0.001,0,0,0,0,0c11.117,0,21.395-3.244,30.55-9.644c0.299-0.059,0.546-0.182,0.732-0.363c0.148-0.146,0.283-0.294,0.419-0.444
			l0.067-0.087c6.56-4.849,12.299-11.21,17.057-18.907c2.539-4.131,4.96-8.802,7.4-14.281l1.436-3.331
			c0.383,0.227,0.793,0.354,1.197,0.355l0.324,0.002c11.092,0,21.353-3.244,30.5-9.644c0.294-0.058,0.54-0.178,0.745-0.366
			c0.177-0.178,0.348-0.369,0.515-0.56c0.964-0.713,1.921-1.488,2.872-2.291c2.837-1.367,5.442-3.247,6.541-4.888
			c0.472-0.704,0.984-1.357,1.481-1.989C171.785,130.545,173.211,128.731,173.012,126.058z M120.423,114.03
			c3.644-1.096,6.789-3.725,9.941-6.57c0.248-0.227,0.325-0.59,0.195-0.923c-0.172-0.441-0.648-0.67-1.072-0.492
			c-1.628,0.694-3.012,1.754-4.349,2.779c-0.994,0.763-2.024,1.552-3.131,2.166c-1.42,0.787-4.437,1.622-7.229,1.622
			c-2.44,0-5.361-0.635-5.417-3.662c-0.011-0.569-0.209-1.197-0.419-1.862c-0.322-1.016-0.654-2.066-0.213-2.693
			c0.736-1.059,1.296-2.443,1.765-4.355c0.201-0.829,0.133-1.644,0.068-2.43c-0.055-0.653-0.105-1.268-0.007-1.861
			c0.244-1.436,1.631-2.032,3.099-2.664c0.422-0.181,0.819-0.359,1.193-0.554c1.464,1.411,3.594,2.083,5.532,2.683
			c0.447,0.138,0.883,0.273,1.297,0.415c0.737,0.251,1.534,0.314,2.314,0.36c1.233,0.503,2.48,1.104,3.295,2.004
			c0.206,0.228,0.383,0.505,0.571,0.797c0.123,0.191,0.257,0.388,0.398,0.581c-0.495-0.081-1.055,0.092-1.378,0.486
			c-0.27,0.335-0.376,0.739-0.299,1.139c0.078,0.406,0.344,0.765,0.717,0.976c0.173,0.104,0.364,0.157,0.572,0.157
			c0.047,0,0.094-0.002,0.142-0.008l0.048,0.001c0.4,0,0.747-0.146,0.982-0.417c0.272-0.329,0.396-0.751,0.34-1.16
			c-0.012-0.084-0.034-0.165-0.061-0.245c0.103,0.051,0.193,0.114,0.31,0.15l0.241,0.039c0.348,0,0.663-0.233,0.784-0.579
			c0.115-0.324,0.021-0.668-0.242-0.879c-0.129-0.103-0.242-0.237-0.349-0.384c0.231,0.108,0.461,0.213,0.685,0.314
			c0.339,0.151,0.671,0.3,0.975,0.453c0.153,0.079,0.313,0.119,0.475,0.119c0.431,0,0.818-0.298,0.946-0.723
			c0.054-0.18,0.056-0.36,0.012-0.529c0.286-0.103,0.492-0.349,0.531-0.665c0.155-1.117,0.055-2.065-0.055-3.07
			c-0.031-0.289-0.063-0.586-0.09-0.897c-0.078-0.893,0.175-1.699,0.44-2.551c0.205-0.657,0.417-1.336,0.479-2.073
			c0.196-2.315-1.016-4.543-3.022-5.762c-0.014-0.535-0.063-1.048-0.12-1.568c0.006-0.016,0.019-0.029,0.024-0.045
			c0.103-0.304,0.054-0.611-0.105-0.84c-0.024-0.434,0.048-0.779,0.247-1c0.322-0.358,0.937-0.433,1.395-0.433
			c1.088,0,2.312,0.4,2.703,0.583c3.166,1.469,5.956,5.582,5.972,8.802c0.002,0.361-0.022,0.711-0.048,1.059
			c-0.049,0.684-0.1,1.39,0.051,2.145c0.058,0.289,0.122,0.582,0.188,0.877c0.255,1.129,0.518,2.296,0.265,3.36
			c-0.449,1.874-1.32,2.132-2.192,2.132c-0.643,0-1.386-0.167-2.172-0.346c-0.746-0.168-1.517-0.343-2.359-0.399
			c-0.438,0-0.782,0.293-0.854,0.729c-0.078,0.473,0.185,0.924,0.62,1.071l0.226,0.077c0.558,0.193,1.198,0.412,1.871,0.608
			l-0.347,0.365c-0.269,0.289-0.547,0.586-0.826,0.766c-0.383,0.256-0.504,0.74-0.313,1.099c0.031,0.082,0.068,0.151,0.086,0.166
			c0.129,0.256,0.393,0.415,0.69,0.415c0.163,0,0.321-0.048,0.453-0.136c0.604-0.165,1.128-0.662,1.478-0.993
			c0.088-0.082,0.187-0.167,0.29-0.259c0.305-0.268,0.644-0.575,0.924-0.917c0.257,0.026,0.51,0.044,0.759,0.044
			c1.86,0,3.103-0.826,3.658-2.383c1.02,0.645,3.047,5.399,3.746,7.039c0.405,0.951,0.697,1.638,0.88,1.96l0.072,0.125
			c1.084,1.893,2.205,3.848,1.751,6.04c-0.086,0.4-0.062,0.82-0.038,1.226c0.009,0.157,0.019,0.312,0.02,0.46
			c0.007,0.812-0.996,1.258-2.209,1.717c-0.276,0.104-0.531,0.201-0.738,0.298c-0.716,0.323-1.353,0.995-1.97,1.645
			c-0.768,0.81-1.562,1.646-2.361,1.646c-0.388,0-0.786-0.188-1.218-0.579c-0.402-0.366-0.708-0.538-0.977-0.689
			c-0.375-0.21-0.67-0.377-1.217-1.118c-0.43-0.586-0.438-1.387-0.445-2.235c-0.006-0.575-0.012-1.171-0.156-1.723
			c-0.197-0.751-0.461-1.474-0.716-2.173c-0.461-1.264-0.896-2.458-0.957-3.785c-0.035-0.848-0.317-1.463-0.896-1.962
			c0.19-0.341,0.244-0.771-0.04-1.338c-0.294-0.57-0.959-0.923-1.736-0.923c-0.57,0-1.085,0.194-1.412,0.532
			c-0.005,0.005-0.009,0.013-0.015,0.02c0.059-0.119,0.103-0.247,0.114-0.39c0.039-0.47-0.193-0.954-0.582-1.207
			c-0.727-0.463-1.731-0.3-2.092,0.388c-0.173,0.317-0.344,0.91,0.363,1.398c0.085,0.122,0.182,0.22,0.3,0.305
			c0.197,0.14,0.415,0.21,0.645,0.21c0.278,0,0.52-0.102,0.729-0.199c0.127-0.055,0.229-0.135,0.322-0.224
			c-0.178,0.336-0.217,0.75-0.092,1.133c0.126,0.383,0.398,0.672,0.715,0.796c0.039,0.086,0.092,0.164,0.149,0.237
			c-0.266,0.025-0.519,0.16-0.672,0.375c-0.158,0.222-0.198,0.499-0.111,0.754l0.099,0.302c0.264,0.807,0.513,1.57,0.875,2.36
			c0.331,0.712,0.751,1.093,1.235,1.534l0.166,0.152c1.272,1.191,1.045,2.23,0.758,3.547c-0.099,0.449-0.2,0.912-0.238,1.395
			c-0.228,2.799-2.429,4.174-4.76,5.632c-0.396,0.246-0.791,0.494-1.177,0.749c-1.658,1.088-3.438,2.129-5.221,2.367
			c-0.988,0.142-2.262-0.386-3.495-0.886c-0.775-0.313-1.508-0.61-2.179-0.759c-1.479-0.327-2.123-1.634-2.375-2.382
			c-0.594-1.766-0.3-3.974,0.686-5.138c0.373-0.44,0.81-0.808,1.271-1.196c0.522-0.441,1.063-0.896,1.517-1.472
			C120.362,114.149,120.391,114.089,120.423,114.03z M95.856,106.736c0,0-0.002,0-0.004,0c-3.717,0.192-7.993-0.787-11.667-1.698
			c-1.948-0.477-4.222-1.897-6.235-3.895c-0.518-0.523-0.758-1.355-0.99-2.159l-0.123-0.421c-0.073-0.245-0.052-0.35-0.042-0.407
			c0.003-0.012,0.005-0.024,0.006-0.036c0.184-0.206,0.289-0.477,0.291-0.789c0.012-0.027,0.016-0.057,0.026-0.086
			c0.075-0.021,0.15-0.043,0.227-0.065c0.313-0.092,0.636-0.183,0.96-0.273c-0.019,0.044-0.042,0.085-0.061,0.128
			c-0.322,0.776-0.333,1.574-0.028,2.188c0.255,0.513,0.708,0.867,1.307,1.022c0.338,0.09,0.732,0.134,1.204,0.135
			c0.514,0,1.038-0.052,1.546-0.101c0.359-0.035,0.704-0.069,1.014-0.079c0.932-0.034,1.865-0.061,2.799-0.088
			c1.187-0.034,2.375-0.068,3.563-0.117c2.192-0.088,4.065-0.774,6.056-2.227c0.28,0.356,0.644,1.221,0.655,1.567l0.012,0.429
			c0.008,0.405,0.024,0.782,0.121,1.174c-0.095,1.259,0.35,2.526,0.792,3.76c0.21,0.59,0.409,1.161,0.553,1.718
			c-0.167-0.07-0.321-0.094-0.442-0.094c-0.438,0-0.801,0.244-1.032,0.572C96.222,106.802,96.055,106.736,95.856,106.736z
			 M74.333,95.781c-0.439,0-0.869-0.037-1.276-0.109c-2.034-0.36-3.833-3.186-5.146-5.249c-0.352-0.552-0.677-1.063-0.979-1.488
			c-2.274-3.193-1.614-5.886,2.21-9.008c1.353-1.106,2.268-1.798,3.93-2.075c0.211-0.037,0.437-0.111,0.656-0.204
			c0.679,0.26,1.427,0.394,2.364,0.394c0.488,0,1.029-0.035,1.656-0.107l0.573-0.067c0.437-0.051,0.868-0.102,1.299-0.15
			c0.749,0.071,1.5,0.091,2.227,0.11c1.058,0.028,2.15,0.057,3.219,0.248c0.754,0.134,1.506,0.271,2.258,0.408
			c1.08,0.196,2.159,0.394,3.238,0.58c0.054,0.009,0.106,0.013,0.157,0.014c-0.179,0.299-0.24,0.642-0.16,0.985
			c0.047,0.203,0.149,0.384,0.277,0.548c-0.39,0.586-0.693,1.264-0.906,1.841c-0.001,0.001-0.001,0.002-0.001,0.002
			c-0.176-0.274-0.437-0.443-0.755-0.468l-0.123-0.006c-0.359,0-0.671,0.146-0.876,0.408c-0.308,0.38-0.353,0.891-0.123,1.295
			c0.135,0.449,0.516,0.755,0.952,0.755c0.038,0,0.074-0.011,0.112-0.016c-0.072,0.165-0.14,0.323-0.214,0.494
			c-0.094,0.205-0.203,0.395-0.31,0.582c-0.062,0.108-0.12,0.223-0.181,0.336c-0.213,0.203-0.42,0.411-0.6,0.621
			c-0.027,0.032-0.042,0.071-0.065,0.108c-1.522,0.758-2.752,2.114-3.855,3.335l-0.084,0.094c-0.411,0.451-0.845,0.904-1.286,1.362
			c-0.979,1.02-1.972,2.062-2.811,3.187c-0.151,0.02-0.295,0.063-0.415,0.145l-0.857,0.296
			C77.315,95.353,75.833,95.781,74.333,95.781z M80.03,50.531c-0.257-1.601-0.019-3.61,1.123-4.403
			c3.313-2.303,6.143-2.84,8.38-1.569c0.944,0.54,1.892,1.238,2.669,1.971c0.669,0.62,0.894,1.327,1.155,2.145
			c0.163,0.514,0.333,1.046,0.624,1.576c0.16,0.294,0.396,0.675,0.667,1.11c1.208,1.941,3.23,5.19,1.641,6.395
			c-0.095,0.071-0.171,0.157-0.235,0.25c-0.257,0.062-0.505,0.155-0.734,0.294c-1.466,0.875-2.179,2.632-1.906,4.7
			c0.06,0.468,0.178,0.962,0.293,1.44c0.331,1.376,0.644,2.678-0.18,3.695c-0.145,0.18-0.255,0.36-0.358,0.54
			c-0.228-1.35-0.888-2.751-1.485-3.806c-0.011-0.02-0.02-0.04-0.029-0.058c-0.153-0.723-0.452-1.431-0.701-2.016l-0.119-0.278
			c-0.395-0.951-0.661-1.895-0.917-2.807c-0.563-2-1.097-3.891-2.854-5.614c-1.734-1.705-4.364-1.976-6.769-1.988
			c0.007-0.059,0.013-0.12,0.013-0.189C80.308,51.906,80.304,51.022,80.03,50.531z M85.893,56.516
			c1.155,1.13,1.633,2.974,2.095,4.757c0.257,0.994,0.523,2.022,0.907,2.904c0.309,0.713,0.307,1.463,0.305,2.256
			c0,0.274,0,0.552,0.011,0.829h-0.357l-0.557,0.063l0.015,0.494l0.077,0.52h0.465l0.25-0.018l0.201-0.224
			c0.058,0.349,0.13,0.69,0.208,1.024c0.136,0.581,0.263,1.129,0.276,1.693c0.002,0.092,0.033,0.172,0.056,0.254
			c-0.533,0.052-0.996,0.433-1.158,1.002c-0.182,0.642,0.059,1.298,0.604,1.637c0.471,0.287,0.919,0.432,1.335,0.432
			c0.57,0,1.057-0.273,1.41-0.792c0.266-0.4,0.278-0.917,0.029-1.38c-0.106-0.198-0.256-0.35-0.421-0.477
			c0.164-0.183,0.269-0.42,0.272-0.696c0-0.04-0.007-0.078-0.007-0.118c0.125,0.093,0.276,0.151,0.446,0.151
			c0.072,0,0.14-0.022,0.208-0.039c-0.017,0.31,0.071,0.608,0.277,0.842c0.073,0.082,0.159,0.15,0.25,0.21
			c-0.218,0.292-0.319,0.668-0.276,1.082c0.068,0.656,0.553,1.115,1.176,1.115c0.443,0,0.843-0.242,1.056-0.627
			c0.139-0.12,0.249-0.25,0.345-0.417c0.148-0.265,0.178-0.59,0.084-0.894c-0.087-0.283-0.273-0.508-0.534-0.637
			c-0.078-0.037-0.158-0.048-0.238-0.072c0.027-0.076,0.06-0.148,0.07-0.233c0.081-0.649,0.41-1.216,0.759-1.815
			c0.238-0.409,0.483-0.831,0.666-1.304c0.414-1.075,0.182-2.397-0.021-3.563c-0.051-0.288-0.099-0.562-0.135-0.821
			c-0.105-0.7-0.153-1.426-0.141-2.161c0.246-1.016,0.631-1.016,0.76-1.016c0.536,0,1.357,0.585,2.437,1.737
			c1.407,1.512,1.697,2.899,2.065,4.656c0.087,0.417,0.178,0.854,0.288,1.311c0.159,0.674,0.362,1.317,0.558,1.938
			c0.339,1.077,0.66,2.092,0.759,3.228c0.065,0.746-0.081,1.48-0.236,2.258c-0.125,0.631-0.254,1.284-0.267,1.957
			c-0.052,2.937-1.585,3.341-3.234,3.341c-0.245,0-0.508-0.025-0.767-0.043c-0.348-0.244-0.659-0.571-0.953-1.042
			c-0.161-0.257-0.312-0.52-0.463-0.782c-0.296-0.515-0.604-1.037-0.98-1.53c0.123-0.341,0.184-0.919-0.37-1.58
			c-0.229-0.271-0.576-0.421-0.979-0.421c-0.122,0-0.246,0.014-0.345,0.038c-0.109,0.021-0.197,0.059-0.27,0.099
			c-0.188,0.023-0.37,0.085-0.542,0.189l-0.199,0.107c-0.504,0.365-0.708,0.899-0.562,1.464c0.188,0.749,0.78,1.213,1.547,1.213
			c0.088,0,0.171-0.023,0.258-0.036c0.203,0.28,0.379,0.583,0.55,0.901c-0.01-0.01-0.015-0.024-0.024-0.033
			c-0.217-0.213-0.532-0.335-0.865-0.335c-0.417,0-0.76,0.188-0.966,0.457c-0.027-0.258-0.125-0.516-0.314-0.722
			c-0.309-0.337-0.755-0.458-1.176-0.385c0.024-0.064,0.056-0.125,0.066-0.195c0.033-0.219-0.016-0.428-0.121-0.602
			c0.209-0.111,0.383-0.271,0.499-0.479c0.215-0.387,0.218-0.876,0.01-1.291c-0.099-0.314-0.333-0.562-0.665-0.707l-0.118-0.051
			c-0.152-0.065-0.308-0.098-0.463-0.098c-0.04,0-0.078,0.001-0.071,0c-0.136-0.015-0.27-0.031-0.406-0.039l-0.121-0.005
			c-0.278,0-0.526,0.085-0.729,0.235c-0.957-0.091-1.956-0.142-3.026-0.142c-2.144,0-4.313,0.182-6.413,0.359
			c-1.439,0.12-2.927,0.246-4.484,0.315c-0.282,0-0.58-0.069-0.888-0.19c-0.233-0.312-0.591-0.5-0.954-0.518
			c-1.845-1.247-3.75-3.849-4.243-5.322c-0.637-1.892-0.552-4.094-0.469-6.223c0.026-0.676,0.053-1.342,0.055-1.986
			c0.015-3.704,4.793-6.351,8.09-6.766C81.18,54.258,84.198,54.859,85.893,56.516z M105.886,75.351
			c0.79,0.919,1.985,1.002,2.946,1.07l0.292,0.021c0.6,0.052,1.212,0.172,1.804,0.289c0.406,0.08,0.819,0.16,1.235,0.221
			c-0.011,0.011-0.021,0.022-0.031,0.033c-0.143-0.037-0.291-0.055-0.442-0.029l-0.027-0.006c-1.384-0.297-2.939-0.539-4.117-0.139
			c-0.836,0.283-1.33,1.022-1.736,1.776c-0.235,0.429-0.8,0.665-1.417,0.838c0.331-1.473,0.54-3.121,0.612-4.798
			C105.33,74.832,105.633,75.056,105.886,75.351z M90.74,78.589L90.74,78.589v0.009V78.589z M91.431,97.542
			c-1.188,0.341-2.514,0.411-4.136,0.411l-1.582-0.007c-0.485,0-0.961,0.006-1.421,0.028c-1.068,0.046-2.128,0.082-3.265,0.112
			c-0.475,0-0.644-0.103-0.666-0.158c-0.103-0.242,0.292-1.161,1.796-2.696c0.798-0.818,1.528-1.72,2.236-2.592
			c0.517-0.638,1.052-1.299,1.603-1.913c0.519-0.579,1.127-1.06,1.77-1.568c0.572-0.454,1.165-0.923,1.695-1.474
			c0.019-0.021,0.03-0.046,0.047-0.069c0.309-0.181,0.589-0.388,0.859-0.597c0.285-0.219,0.553-0.424,0.849-0.587
			c0.41-0.224,0.73-0.645,1.014-1.016c0.077-0.101,0.151-0.199,0.221-0.283c0.401-0.479,0.754-0.981,1.163-1.589
			c0.129-0.195,0.183-0.408,0.176-0.617c0.1-0.051,0.199-0.104,0.277-0.182c0.068-0.069,0.11-0.155,0.156-0.239
			c0.259,0.054,0.528,0.112,0.826,0.179c0.964,0.213,2.092,0.456,3.212,0.588c0.478,0.177,0.98,0.294,1.495,0.294
			c0.272,0,0.542-0.028,0.803-0.083c0.162-0.034,0.295-0.118,0.408-0.223c0.363-0.063,0.708-0.145,1.013-0.266
			c0.462,0.45,0.786,0.878,1.082,1.522c0.145,0.314,0.015,0.987-0.1,1.581c-0.105,0.548-0.206,1.067-0.159,1.51
			c0.266,2.61-3.647,4.978-4.934,5.755c-0.855,0.519-1.621,1.131-2.359,1.724C94.229,96.116,93.021,97.084,91.431,97.542z
			 M109.49,89.475l-0.231-0.589c-0.41-1.055-0.845-1.842-1.33-2.405c-0.363-0.422-0.928-0.657-1.382-0.847l-0.093-0.038
			c-0.183-0.077-0.434-0.116-0.723-0.162c-0.061-0.01-0.133-0.021-0.206-0.033c0.036-0.309,0.055-0.623,0.031-0.947
			c-0.075-0.942-0.512-1.683-1.072-2.315c0.247-0.033,0.495-0.064,0.758-0.064c0.422,0.001,0.842,0.018,1.264,0.034
			c0.425,0.016,0.851,0.032,1.287,0.035c0.184,0,0.35-0.009,0.505-0.017c0.437-0.024,0.708-0.127,1.223,0.396
			c0.198,0.187,0.439,0.296,0.692,0.401c0.119,0.243,0.326,0.427,0.567,0.528c0.292,1.253,0.99,2.512,1.722,3.699
			c0.349,0.569,0.485,1.234,0.631,1.938c0.096,0.464,0.197,0.938,0.361,1.4c-0.343,0.159-0.702,0.305-1.085,0.451
			c-0.714,0.271-1.442,0.559-2.083,0.988C110.125,91.091,109.808,90.275,109.49,89.475z M110.661,80.314
			c-0.3-0.242-0.645-0.475-1.08-0.607c-0.492-0.151-1.167-0.128-1.833-0.059c0.501-0.575,0.934-0.665,1.328-0.665
			c0.296,0,0.618,0.058,0.958,0.12c0.267,0.049,0.552,0.089,0.841,0.116C110.773,79.585,110.706,79.953,110.661,80.314z
			 M98.049,97.699c-0.158-0.333-0.382-0.798-0.698-1.221c0.727-0.58,1.46-1.104,2.175-1.595c1.792-1.232,3.485-2.396,4.852-4.534
			c0.512-0.799,0.656-1.741,0.767-2.719c0.939,0.242,1.286,0.671,1.816,1.779c0.233,0.479,0.413,0.971,0.604,1.492
			c0.179,0.488,0.364,0.993,0.598,1.489c0.218,0.454,0.262,0.906,0.308,1.384c0.013,0.137,0.029,0.276,0.047,0.417
			c-0.445,1.081-0.478,2.198-0.4,3.338c-0.092,0.276-0.16,0.574-0.167,0.91c-0.028,1.031-0.389,1.581-1.136,2.357
			c-0.366,0.381-0.693,0.798-1.009,1.2c-0.502,0.639-0.99,1.244-1.592,1.692c-0.367-0.656-0.694-1.303-0.865-2.038
			c-0.283-1.231-1.383-1.916-2.294-2.482c-0.692-0.435-1.531-0.694-2.247-0.694c-0.177,0-0.333,0.036-0.493,0.066
			C98.259,98.261,98.185,97.981,98.049,97.699z M95.515,80.561c-0.085-0.01-0.167-0.018-0.251-0.026
			c0.023-0.16,0.026-0.321-0.008-0.476c0.003,0.005,0.006,0.011,0.009,0.017C95.347,80.236,95.429,80.398,95.515,80.561z
			 M105.519,106.479c0.119-0.014,0.239-0.029,0.355-0.044c0.043-0.006,0.088-0.008,0.131-0.015c0.106,0.236,0.213,0.404,0.24,0.444
			c0.482,0.739,0.552,1.452,0.625,2.206c0.022,0.22,0.047,0.443,0.08,0.667c-0.617-0.998-1.133-2.026-1.387-3.114
			C105.55,106.573,105.532,106.528,105.519,106.479z M132.197,99.045v0.006V99.045L132.197,99.045z M129.108,81.931
			c-0.086-0.072-0.176-0.138-0.259-0.214c0.087,0.026,0.17,0.055,0.248,0.086C129.102,81.846,129.104,81.888,129.108,81.931z
			 M126.915,83.102c0.262,0.254,0.532,0.515,0.814,0.784c0.68,0.638,1.19,0.837,1.838,1.089c0.215,0.083,0.452,0.175,0.728,0.296
			c2.28,1.009,1.799,4.09,1.227,5.579c-0.521,1.363-0.217,2.837,0.076,4.262c0.149,0.721,0.291,1.408,0.317,2.041
			c-0.594-0.403-1.176-0.82-1.745-1.227c-0.749-0.535-1.494-1.068-2.259-1.571c-0.646-0.429-1.278-0.454-1.89-0.479l-0.159-0.007
			c-1.646-0.082-3.027-0.184-4.561-0.692l-0.105-0.037c-2.749-0.923-5.865-1.969-5.978-5.1c-0.023-0.717-0.331-1.245-0.627-1.755
			l-0.161-0.28c-1.096-1.978-1.735-3.763-1.295-6.058c0.277-1.447,1.094-2.121,2.568-2.121c1.384,0,3.03,0.582,4.353,1.048
			c0.417,0.147,0.798,0.282,1.128,0.382C123.747,80.035,125.146,81.389,126.915,83.102z M135.074,107.617
			c0.023,0.08,0.044,0.165,0.063,0.249c-0.023-0.039-0.047-0.077-0.071-0.11C135.078,107.709,135.072,107.663,135.074,107.617z
			 M100.179,136.396c-0.958,0.963-2.116,1.81-3.235,2.628c-0.544,0.398-1.085,0.794-1.604,1.201
			c-0.917,0.722-1.464,0.873-1.762,0.873c-0.204,0-0.353-0.068-0.483-0.222c-0.457-0.536-0.485-1.878-0.359-2.659
			c0.131-0.825,0.421-1.604,0.729-2.432l0.087-0.234c0.548-1.478,0.778-3.072,1.002-4.614c0.378-2.61,0.735-5.074,2.507-6.957
			c0.201-0.213,0.421-0.411,0.641-0.61c0.648-0.586,1.382-1.25,1.644-2.279c0.184-0.749,0.306-1.478,0.425-2.184
			c0.084-0.499,0.168-1,0.277-1.521c0.069-0.352-0.013-0.69-0.229-0.954c-0.14-0.169-0.331-0.29-0.539-0.36
			c0.143-0.33,0.287-0.66,0.408-1.008c0.095-0.278,0.05-0.576-0.122-0.816c-0.343-0.477-1.122-0.562-1.517-0.123
			c-1.176,1.327-1.554,3.174-1.633,4.755c-0.336-0.121-0.713-0.107-1.039,0.094c-0.176,0.106-0.298,0.23-0.407,0.339
			c-0.047,0.047-0.094,0.094-0.145,0.139c-0.393,0.332-0.529,0.802-0.363,1.254c0.189,0.515,0.734,0.889,1.297,0.889
			c0.157,0,0.308-0.035,0.456-0.092c-0.216,0.282-0.467,0.56-0.781,0.836c-1.847,1.615-2.486,4.126-2.866,6.366
			c-0.118,0.673-0.192,1.354-0.263,2.015c-0.011,0.098-0.023,0.197-0.035,0.295c-0.033,0.044-0.066,0.087-0.091,0.141
			c-1.115,2.443-3.819,2.807-5.332,2.807c-2.146,0-4.485-0.727-5.957-1.852c-3.373-2.584-3.498-7.274-3.008-10.753
			c0.159-1.084,0.002-2.134-0.148-3.147c-0.295-2.009,0.341-3.446,2.194-4.958c0.629-0.508,1.162-1.105,1.678-1.684
			c0.554-0.62,1.076-1.205,1.709-1.698c0.212-0.163,0.45-0.408,0.701-0.668c0.171-0.177,0.378-0.389,0.59-0.583
			c0.159,0.009,0.32-0.009,0.47-0.087c0.532-0.275,1.11-0.409,1.767-0.409c1.024,0,2.115,0.339,3.148,0.731
			c-0.205,0.056-0.413,0.138-0.623,0.275c-0.35,0.235-0.703,0.681-0.649,1.23c0.104,0.958,0.825,1.654,1.715,1.654l0,0
			c0.195,0,0.394-0.033,0.579-0.095c0.46-0.139,0.828-0.503,0.964-0.939l0.062-0.13c0.18-0.415,0.111-0.852-0.126-1.228
			c0.494,0.198,0.971,0.463,1.431,0.726c0.963,0.548,1.96,1.116,3.235,1.116l0.122-0.002c0.429-0.009,0.765-0.293,0.836-0.705
			c0.073-0.424-0.17-0.845-0.583-1.002c-0.833-0.305-1.633-0.685-2.419-1.073c0.561-0.029,1.089-0.082,1.563-0.184
			c0.078-0.018,0.144-0.055,0.211-0.091c0.16,0.223,0.4,0.398,0.712,0.493c0.117,0.035,0.238,0.053,0.356,0.053
			c0.001,0,0.001,0,0.001,0c0.374,0,0.719-0.177,0.959-0.466c0.201,0.221,0.486,0.363,0.822,0.363c0.307,0,0.602-0.119,0.806-0.325
			c0.204-0.203,0.311-0.473,0.31-0.781c-0.004-1.271-0.228-2.254-0.521-3.404c-0.175-0.714-0.433-1.352-0.718-2.028
			c0.631-1.002,1.011-1.084,1.118-1.084c0.276,0,0.727,0.509,1.172,1.933c0.036,0.409,0.145,0.814,0.338,1.239
			c0.746,1.308,1.467,2.614,2.188,3.92c1.165,2.109,2.37,4.29,3.663,6.441l0.067,0.112c1.039,1.712,1.938,3.192,2.446,5.104
			c0.415,1.581-0.423,6.302-1.024,8.043c-0.095,0.271-0.205,0.409-0.326,0.409c-0.804,0.002-2.549-2.443-2.878-3.078
			c-0.699-1.373-1.152-2.452-1.489-3.52c0.008-0.32-0.057-0.675-0.126-1.023c-0.044-0.22-0.11-0.552-0.091-0.661l0.025-0.1
			c0.057-0.203,0.132-0.482,0.032-0.769c-0.093-0.249-0.073-0.591-0.052-0.953c0.019-0.327,0.039-0.666-0.019-1.002
			c-0.125-0.706-0.295-1.407-0.461-2.085c-0.122-0.495-0.242-0.99-0.346-1.49c-0.093-0.441-0.434-0.726-0.868-0.726
			c-0.292,0-0.581,0.135-0.776,0.361c-0.19,0.222-0.269,0.505-0.223,0.799c0.08,0.508,0.18,1.011,0.277,1.517
			c-0.38-0.102-0.82,0.015-1.022,0.359c-0.155,0.263-0.154,0.577,0.004,0.862c0.628,1.139,0.871,2.402,1.126,3.739
			c0.084,0.444,0.17,0.889,0.27,1.329c0.33,1.448,0.915,2.682,1.535,3.989l0.221,0.468c0.252,0.531,0.653,1.225,1.156,1.907
			C104.42,131.247,102.072,134.477,100.179,136.396z"/>
	</g>
</g>
</svg>
