<?xml version="1.0" encoding="utf-8"?>
<!-- Generator: Adobe Illustrator 21.1.0, SVG Export Plug-In . SVG Version: 6.00 Build 0)  -->
<svg version="1.1" id="Layer_3" xmlns="http://www.w3.org/2000/svg" xmlns:xlink="http://www.w3.org/1999/xlink" x="0px" y="0px"
	 viewBox="0 0 141.7 141.7" style="enable-background:new 0 0 141.7 141.7;" xml:space="preserve">
<style type="text/css">
	.st0{fill:#9FDCFF;}
	.st1{fill:#EBF7FE;}
	.st2{fill:#FFD98D;}
	.st3{fill:#FFFFFF;}
</style>
<g>
	<circle class="st0" cx="70.9" cy="70.9" r="70.9"/>
	<circle class="st1" cx="70.9" cy="70.9" r="54.3"/>
	<path class="st2" d="M58.2,61.4l2,44.9c0,3.9-2.6,7.1-5.9,7.1s-5.9-3.2-5.9-7.1l2-44.9"/>
	<path class="st2" d="M93.7,63.8l2,42.5c0,3.9-2.6,7.1-5.9,7.1s-5.9-3.2-5.9-7.1l2-42.5"/>
	<ellipse class="st2" cx="54.3" cy="47.2" rx="14.2" ry="16.5"/>
	<path class="st2" d="M99.2,30.7v16.5h-7.1V30.7h-4.7v16.5h-7.1V30.7h-4.7V52c0,7.8,6.4,14.2,14.2,14.2s14.2-6.4,14.2-14.2V30.7
		H99.2z M89.8,61.4c-5.2,0-9.4-4.2-9.4-9.4h18.9C99.2,57.2,95,61.4,89.8,61.4z"/>
	<g>
		<path class="st3" d="M70.9,134.6v-4.7c32.6,0,59.1-26.5,59.1-59.1h4.7C134.6,106,106,134.6,70.9,134.6z"/>
	</g>
	<g>
		<path class="st3" d="M11.8,70.9H7.1c0-35.2,28.6-63.8,63.8-63.8v4.7C38.3,11.8,11.8,38.3,11.8,70.9z"/>
	</g>
</g>
</svg>
