<?xml version="1.0" encoding="utf-8"?>
<!-- Generator: Adobe Illustrator 21.1.0, SVG Export Plug-In . SVG Version: 6.00 Build 0)  -->
<svg version="1.1" id="Layer_1" xmlns="http://www.w3.org/2000/svg" xmlns:xlink="http://www.w3.org/1999/xlink" x="0px" y="0px"
	 viewBox="0 0 141.7 132.1" style="enable-background:new 0 0 141.7 132.1;" xml:space="preserve">
<style type="text/css">
	.st0{fill:#DDC7A8;}
	.st1{fill:#B59A7F;}
	.st2{fill:#6B8E75;}
</style>
<g>
	<polyline class="st0" points="73.9,96.3 73.9,130.2 67.8,130.2 67.8,96.3 	"/>
	<polyline class="st1" points="73.9,96.3 73.9,103 67.8,103 67.8,96.3 	"/>
	<g>
		<rect x="43.9" y="92.2" class="st0" width="53.9" height="6.1"/>
		<rect x="11.2" y="48.7" class="st0" width="10.6" height="81.4"/>
	</g>
	<polyline class="st1" points="44.7,48.7 21.7,71.7 21.7,60.1 33.1,48.7 	"/>
	<rect x="120" y="48.7" class="st0" width="10.6" height="81.4"/>
	<g>
		<rect x="11.2" y="48.7" class="st1" width="10.6" height="10.4"/>
		<rect x="120" y="48.7" class="st1" width="10.6" height="10.4"/>
		<polyline class="st1" points="120,71.7 97.1,48.7 108.6,48.7 120,60.1 		"/>
	</g>
	<rect x="0.2" y="128.2" class="st2" width="141.4" height="3.8"/>
	<polygon class="st0" points="141.7,49.2 0,49.2 70.9,0 	"/>
	<path class="st1" d="M70.9,7.8L11.2,49.2h4.5L27.5,41h86.8l11.7,8.1h4.5L70.9,7.8z M70.9,10.9l10.6,7.3H60.3L70.9,10.9z M56.6,20.8
		h28.6L96,28.4H45.7L56.6,20.8z M31.2,38.5L42,30.9h57.7l10.9,7.5H31.2z"/>
</g>
</svg>
