<?xml version="1.0" encoding="utf-8"?>
<!-- Generator: Adobe Illustrator 16.0.0, SVG Export Plug-In . SVG Version: 6.00 Build 0)  -->
<!DOCTYPE svg PUBLIC "-//W3C//DTD SVG 1.1//EN" "http://www.w3.org/Graphics/SVG/1.1/DTD/svg11.dtd">
<svg version="1.1" id="圖層_1" xmlns="http://www.w3.org/2000/svg" xmlns:xlink="http://www.w3.org/1999/xlink" x="0px" y="0px"
	 width="77.086px" height="98.441px" viewBox="0 0 77.086 98.441" enable-background="new 0 0 77.086 98.441" xml:space="preserve">
<g>
	<g>
		<g>
			<path fill="#FFFFFF" d="M76.978,46.482c-0.104-0.091-0.234-0.204-0.319-0.367c-0.107-0.206-0.188-0.414-0.266-0.616
				c-0.126-0.325-0.246-0.635-0.461-0.888c-0.301-0.355-0.605-0.692-1.018-0.9c-0.271-0.137-0.574-0.213-0.895-0.295
				c-0.242-0.062-0.492-0.125-0.74-0.217c-0.121-0.046-0.249-0.012-0.35,0.091c-0.084,0.087-0.343,0.354-0.773,0.285
				c-0.968-0.152-1.874,0.128-2.935,0.595c-0.102,0.045-0.207,0.085-0.312,0.125c-0.11,0.042-0.221,0.084-0.328,0.133
				c-0.301,0.142-0.61,0.215-0.91,0.287c-0.382,0.092-0.743,0.178-1.027,0.397c-0.248,0.19-0.558,0.195-0.776,0.014
				c-0.013,0.014-0.029,0.034-0.047,0.058l-0.029,0.04c-0.087,0.121-0.248,0.344-0.552,0.367c-0.245,0.019-0.451,0.19-0.689,0.39
				c-0.289,0.241-0.642,0.535-1.141,0.572c-0.548,0.634-1.284,0.785-1.935,0.92l-0.221,0.045c-1.056,0.23-1.724,0.82-2.043,1.804
				c-0.19,0.587-0.237,0.962,0.057,1.27c0.145,0.151,0.306,0.291,0.475,0.438c0.256,0.223,0.521,0.455,0.749,0.742
				c0.453-0.024,0.762,0.223,1.012,0.422l0.046,0.037c0.515,0.407,0.954,0.719,1.521,0.729c0.348,0.007,0.675,0.166,0.999,0.486
				c0.069,0.066,0.131,0.15,0.191,0.233c0.032,0.045,0.08,0.112,0.102,0.13c0.576,0.188,0.858,0.671,1.086,1.059
				c0.111,0.19,0.217,0.371,0.347,0.505c0.32,0.331,0.752,0.753,1.271,1.081c0.125,0.047,0.394,0.148,0.444,0.473
				c0.021,0.139,0.022,0.485-0.44,0.684c-0.078,0.034-0.152,0.116-0.238,0.212l-0.091,0.099c-0.293,0.308-0.634,0.465-1.042,0.484
				c-0.414,0.02-0.904,0.017-1.4-0.141c-0.808-0.254-1.642-0.23-2.525-0.206l-0.161,0.004c-0.016,0.001-0.033,0.003-0.051,0.005
				c-0.52,0.073-0.642-0.236-0.669-0.372c-0.009-0.045-0.02-0.061-0.02-0.061c-0.012,0-0.105-0.007-0.167-0.011
				c-0.086-0.007-0.173-0.014-0.256-0.03c-0.446-0.09-0.837-0.29-1.162-0.598c-0.551-0.522-1.072-1.016-1.777-1.197
				c-0.097-0.025-0.28-0.09-0.402-0.246c-0.134-0.172-0.285-0.332-0.444-0.502c-0.309-0.33-0.628-0.672-0.854-1.12l-0.019-0.036
				c-0.168-0.337-0.211-0.345-0.333-0.325c-0.172,0.031-0.415-0.002-0.59-0.343c-0.123-0.193-0.212-0.361-0.296-0.523
				c-0.187-0.357-0.348-0.663-0.654-0.846c-0.241-0.144-0.377-0.356-0.373-0.583c0.001-0.084,0.023-0.215,0.127-0.343
				c-0.199-0.19-0.334-0.408-0.458-0.608c-0.065-0.104-0.128-0.208-0.202-0.305c-0.01-0.012-0.237-0.307-0.345-0.244
				c-0.207,0.12-0.346,0.281-0.381,0.442c-0.032,0.144,0.014,0.305,0.135,0.48c0.029,0.042,0.06,0.083,0.09,0.123
				c0.125,0.165,0.281,0.37,0.342,0.659c0.119,0.554,0.367,1.025,0.761,1.443l0.039,0.041c0.243,0.256,0.544,0.575,0.605,1.019
				c0.073,0.524,0.335,0.885,0.852,1.172c0.689,0.382,0.684,0.951,0.62,1.256c-0.015,0.071-0.025,0.206,0.071,0.311
				c0.297,0.321,0.38,0.688,0.454,1.012c0.086,0.38,0.586,0.831,0.758,0.845l0.071,0.003c0.697,0.024,1.488,0.053,2.101,0.748
				c0.072,0.081,0.213,0.128,0.359,0.117c0.125-0.008,0.416-0.029,0.598,0.226c0.184,0.258,0.484,0.368,0.832,0.495
				c0.091,0.034,0.183,0.066,0.271,0.104c0.565,0.229,1.15,0.465,1.723,0.53c0.367,0.042,0.733,0.093,1.099,0.146
				c0.52,0.073,1.057,0.149,1.584,0.192c0.123,0.01,0.268-0.004,0.42-0.021c0.134-0.014,0.278-0.029,0.429-0.029
				c0.237,0,0.488,0.039,0.73,0.179c0.175-0.068,0.346-0.077,0.48-0.084c0.061-0.003,0.121-0.005,0.18-0.017
				c0.371-0.073,0.747-0.129,1.123-0.184c1.161-0.172,2.256-0.333,3.21-0.991c0.701-0.483,1.133-0.813,1.146-1.453
				c-0.006-0.073-0.006-0.15-0.006-0.225c0-0.022,0-0.05,0-0.077c-0.404-0.066-0.664-0.316-0.783-0.746
				c-0.062-0.225-0.169-0.314-0.426-0.355c-0.166-0.028-0.404-0.092-0.595-0.25c-0.585-0.484-1.279-0.788-2.013-1.107
				c-0.801-0.35-1.629-0.712-2.329-1.333c-0.053-0.047-0.141-0.093-0.251-0.132c-0.49-0.169-0.922-0.428-1.324-0.677
				c-0.167-0.104-0.315-0.22-0.461-0.332c-0.234-0.182-0.457-0.353-0.707-0.438c-0.796-0.271-1.347-0.875-1.639-1.794
				c-0.053-0.169-0.107-0.265-0.2-0.358c-0.243-0.241-0.35-0.537-0.304-0.833c0.047-0.299,0.244-0.554,0.556-0.713
				c0.077-0.04,0.112-0.081,0.14-0.162c0.123-0.358,0.358-0.621,0.565-0.852l0.032-0.037c0.425-0.475,0.948-0.739,1.454-0.995
				c0.163-0.082,0.327-0.165,0.486-0.255c0.321-0.182,0.665-0.312,1.114-0.418c0.117-0.028,0.233-0.058,0.351-0.089
				c0.51-0.133,1.038-0.271,1.622-0.221c0.425-0.276,0.812-0.078,0.961-0.003c0.281,0.144,0.534,0.308,0.77,0.503
				c0.372,0.305,0.717,0.432,1.088,0.4c0.801-0.068,1.59,0.054,2.413,0.377c0.028,0.011,0.045,0.014,0.052,0.015
				c0.002-0.003,0.011-0.011,0.025-0.025c0.275-0.294,0.63-0.371,1.002-0.215c0.104,0.044,0.212,0.08,0.321,0.118
				c0.186,0.062,0.38,0.128,0.57,0.228c0.198,0.105,0.422,0.16,0.722-0.146c0.281-0.288,0.448-0.554,0.507-0.808
				C77.06,46.553,77.013,46.511,76.978,46.482"/>
			<path fill="#FFFFFF" d="M44.18,56.647c0.071,0.227,0.143,0.452,0.219,0.675c0.216,0.623,0.494,0.725,0.711,0.746
				c0.335,0.03,0.604,0.122,0.87,0.293c0.132,0.087,0.315,0.05,0.414,0.019c0.291-0.09,0.573-0.331,0.672-0.57
				c0.125-0.301,0.061-0.613-0.014-0.976c-0.075-0.366-0.16-0.776-0.037-1.21l-0.021-0.026c-0.268-0.324-0.593-0.719-0.609-1.278
				c-0.017-0.013-0.033-0.027-0.046-0.039c-0.025-0.022-0.054-0.042-0.083-0.063c-0.113-0.083-0.268-0.195-0.341-0.39
				c-0.218-0.583-0.508-1.125-0.815-1.697l-0.168-0.315c-0.257-0.483-0.468-0.582-0.726-0.583l-0.032-0.002
				c-0.011,0-0.018,0-0.021,0c0,0.002-0.019,0.02-0.054,0.08c-0.147,0.254-0.139,0.552-0.129,0.898l0.006,0.231
				c0.008,0.35,0.016,0.709-0.045,1.099c-0.031,0.203-0.039,0.418-0.047,0.644c-0.013,0.383-0.028,0.777-0.157,1.178
				C43.912,55.798,44.048,56.229,44.18,56.647"/>
		</g>
		<g>
			<path fill="#FFFFFF" d="M51.428,94.004c0.157-0.111,0.202-0.204,0.182-0.379c-0.03-0.274-0.133-0.451-0.585-0.598
				c-0.154-0.049-0.313-0.084-0.472-0.122c-0.448-0.101-0.955-0.216-1.376-0.615c-0.034-0.018-0.184-0.039-0.233-0.045
				c-0.265-0.035-0.489-0.132-0.707-0.305c-0.152-0.122-0.321-0.231-0.499-0.348c-0.402-0.262-0.853-0.558-1.162-1.038
				c-0.307,0-0.564-0.114-0.78-0.212c-0.143-0.065-0.291-0.133-0.377-0.123c-0.779,0.095-1.448-0.11-2.095-0.308l-0.212-0.064
				c-0.199-0.06-0.405-0.104-0.623-0.149c-0.49-0.106-0.994-0.213-1.463-0.51c-0.2-0.126-0.383-0.267-0.562-0.404
				c-0.357-0.274-0.696-0.534-1.118-0.639c-0.467-0.116-0.786-0.459-1.066-0.763c-0.068-0.074-0.136-0.147-0.204-0.214
				c-0.036-0.035-0.087-0.048-0.203-0.075c-0.152-0.035-0.36-0.083-0.532-0.264c-0.512-0.544-0.728-1.214-0.886-1.854
				c-0.082-0.332,0.054-0.657,0.354-0.848c0.18-0.113,0.353-0.247,0.535-0.388c0.383-0.299,0.78-0.606,1.297-0.765
				c0.349-0.106,0.628-0.361,0.923-0.633c0.289-0.263,0.587-0.536,0.985-0.717c0.053-0.023,0.11-0.046,0.17-0.071
				c0.093-0.037,0.265-0.105,0.306-0.149c0.16-0.319,0.422-0.558,0.654-0.769c0.243-0.221,0.453-0.411,0.538-0.677
				c0.111-0.344,0.331-0.615,0.526-0.854l0.117-0.146c0.49-0.622,0.671-1.161,0.607-1.8l-0.012-0.12l0.055-0.105
				c0.027-0.053,0.002-0.12-0.128-0.343c-0.103-0.176-0.223-0.385-0.261-0.635c-0.241-0.046-0.421-0.173-0.561-0.271
				c-0.039-0.028-0.077-0.057-0.118-0.081c-0.273-0.172-0.642-0.173-0.963-0.002c-0.3,0.159-0.486,0.427-0.498,0.719
				c-0.017,0.455-0.162,0.814-0.445,1.1l-0.106,0.107c-0.458,0.462-0.931,0.94-1.438,1.374c-0.117,0.099-0.134,0.141-0.127,0.315
				c0.005,0.134,0.025,0.271,0.044,0.407c0.068,0.48,0.152,1.078-0.32,1.623c-0.141,0.163-0.269,0.337-0.404,0.523
				c-0.07,0.094-0.14,0.19-0.211,0.284c-0.135,0.176-0.315,0.414-0.622,0.427c-0.162,0.009-0.316-0.048-0.463-0.168
				c-0.323,0.138-0.96,0.363-1.365-0.253c-0.425-0.038-0.682-0.331-0.86-0.535c-0.046-0.05-0.091-0.102-0.139-0.148
				c-0.324,0.176-0.616,0.046-0.782-0.028l-0.08-0.035c-0.478-0.188-0.862-0.485-1.139-0.88c-0.007-0.01-0.019-0.027-0.132-0.052
				c-0.455-0.103-0.779,0.07-0.971,0.232c-0.297,0.253-0.469,0.643-0.447,1.021c0.011,0.185,0.029,0.37,0.047,0.557
				c0.057,0.576,0.116,1.171-0.03,1.79c0.65,0.807,0.611,1.726,0.503,2.437c-0.059,0.388-0.125,0.827-0.106,1.234
				c0.041,0.835,0.01,1.677-0.019,2.49c-0.022,0.605-0.043,1.23-0.036,1.841c0.001,0.131,0.014,0.265,0.027,0.4
				c0.031,0.33,0.063,0.67-0.035,1.013c-0.073,0.257-0.076,0.46-0.01,0.724c0.217,0.871-0.232,1.265-0.648,1.444
				c-0.139,0.059-0.276,0.177-0.408,0.351c-0.251,0.33-0.236,0.483,0.074,0.783c0.299,0.288,0.571,0.613,0.858,1.027
				c0.056,0.081,0.108,0.17,0.162,0.26c0.191,0.328,0.285,0.454,0.509,0.457c0.543,0.002,1.049-0.43,1.135-0.978
				c0.237-1.511,0.22-3.058,0.187-4.389c-0.004-0.138-0.016-0.278-0.027-0.419c-0.045-0.55-0.097-1.168,0.27-1.752
				c-0.146-0.348-0.095-0.673-0.032-0.922c0.076-0.301,0.076-0.624,0.076-0.965c0-0.319-0.001-0.649,0.062-0.991
				c0.075-0.416,0.232-0.703,0.512-0.925c0.372-0.299,0.75-0.043,0.892,0.053c0.023,0.017,0.047,0.033,0.07,0.047l0.219,0.128
				c0.171,0.1,0.342,0.2,0.509,0.306l0.067,0.042c0.57,0.363,1.16,0.738,1.595,1.329c0.091,0.123,0.171,0.255,0.25,0.389
				c0.224,0.374,0.364,0.589,0.681,0.654c0.207,0.042,0.348,0.178,0.452,0.279c0.024,0.023,0.048,0.047,0.072,0.066
				c0.318,0.268,0.615,0.556,0.901,0.837c0.259,0.253,0.504,0.494,0.766,0.719c0.318,0.274,0.666,0.535,1.001,0.788
				c0.435,0.325,0.885,0.663,1.299,1.049c0.05,0.046,0.147,0.085,0.25,0.127c0.204,0.082,0.457,0.184,0.629,0.442
				c0.581,0.876,1.481,0.951,2.522,1.036l0.224,0.02c0.423,0.036,0.837-0.01,1.108-0.123c0.59-0.247,1.174-0.359,1.769-0.463
				C50.156,94.683,50.844,94.415,51.428,94.004"/>
			<path fill="#FFFFFF" d="M31.738,79.393c0.495-0.082,1.005-0.167,1.492-0.284c0.529-0.127,1.068-0.185,1.588-0.239
				c0.83-0.089,1.612-0.171,2.334-0.518c0.094-0.045,0.291-0.111,0.518-0.027c-0.001-0.46,0.064-0.894,0.2-1.316
				c0.301-0.935,0.439-1.934,0.56-2.813c0.02-0.144,0.036-0.288,0.053-0.434c0.079-0.684,0.159-1.39,0.558-2.035
				c0.345-0.559,0.679-1.155,0.992-1.771c0.31-0.609,0.62-1.313,0.386-1.958c-0.323-0.893-1.145-1.305-1.776-1.493
				c-0.854-0.255-1.77-0.054-2.72,0.6c-0.656,0.452-1.341,0.456-1.947,0.46c-0.287,0.001-0.558,0.003-0.815,0.048
				c-0.235,0.042-0.425-0.109-0.496-0.175c-0.217-0.202-0.464-0.282-0.783-0.252C31.517,67.218,31.19,67,31.086,66.65
				c-0.06-0.2-0.051-0.501,0.33-0.796c0.151-0.117,0.308-0.202,0.46-0.283l0.081-0.043c0.192-0.106,0.344-0.279,0.385-0.441
				c0.024-0.098-0.005-0.143-0.016-0.158l-0.112-0.173c-0.358-0.556-0.698-1.081-1.26-1.276c-0.491-0.169-0.892-0.172-1.129-0.008
				c-0.211,0.146-0.322,0.443-0.333,0.88l-0.021,0.12l-0.038,0.111c-0.098,0.304-0.249,0.761-0.616,1.125
				c-0.036,0.037-0.074,0.072-0.111,0.107c-0.095,0.087-0.194,0.178-0.199,0.239c-0.082,1.088-0.762,1.767-1.345,2.237
				c-0.04,0.032-0.083,0.063-0.128,0.096c-0.05,0.036-0.13,0.094-0.164,0.131c0.005,0.254-0.069,0.444-0.224,0.564
				c-0.238,0.185-0.516,0.099-0.666,0.053c-0.457-0.141-0.894-0.276-1.307-0.479c-0.189-0.094-0.304-0.057-0.611,0.194
				c-0.044,0.037-0.163,0.134-0.036,0.414c0.062,0.138,0.123,0.277,0.183,0.416c0.132,0.306,0.258,0.595,0.407,0.873
				c0.257,0.478,0.256,0.991-0.003,1.57c-0.137,0.308-0.128,0.551,0.028,0.789l0.173,0.266c0.297,0.457,0.604,0.93,0.947,1.344
				c0.059,0.072,0.12,0.142,0.182,0.212c0.396,0.451,0.886,1.009,0.639,1.875c0.011,0.051,0.018,0.085,0.022,0.119
				c0.065,0.603,0.128,1.172,0.257,1.74l0.014,0.053c0.042,0.159,0.131,0.488-0.116,0.711c-0.169,0.152-0.378,0.146-0.534,0.11
				c-0.18,0.281-0.477,0.458-0.844,0.498c-0.264,0.028-0.462,0.174-0.712,0.396c0.058,0.028,0.116,0.054,0.176,0.082
				c0.31,0.141,0.66,0.3,0.913,0.654c0.433-0.142,0.89-0.21,1.458-0.204c0.46-0.007,0.85-0.182,1.224-0.379
				c0.672-0.354,1.231-0.578,1.757-0.704C30.71,79.564,31.232,79.477,31.738,79.393 M29.234,78.572
				c-0.017,0.001-0.034,0.001-0.051,0.001c-0.265,0-0.484-0.096-0.623-0.271c-0.142-0.183-0.179-0.424-0.104-0.681
				c0.051-0.169,0.038-0.36,0.022-0.579c-0.015-0.228-0.032-0.479,0.025-0.743c-0.332-0.432-0.261-0.914-0.207-1.275
				c0.015-0.099,0.03-0.196,0.036-0.292c0.007-0.098-0.025-0.213-0.062-0.346c-0.025-0.096-0.051-0.189-0.068-0.286
				c-0.076-0.427-0.202-0.841-0.335-1.28c-0.188-0.613-0.381-1.249-0.427-1.93c-0.625-0.743-0.237-1.539-0.048-1.927
				c0.206-0.419,0.685-0.713,1.192-0.729c0.42-0.015,0.778,0.172,0.963,0.496c0.144,0.252,0.373,0.407,0.637,0.586
				c0.217,0.147,0.441,0.298,0.637,0.517c-0.005-0.01,0.056-0.003,0.115-0.018c0.378-0.089,0.739-0.077,1.088-0.066
				c0.278,0.008,0.542,0.017,0.789-0.027c0.034-0.007,0.068-0.012,0.104-0.016c0.037-0.005,0.093-0.013,0.111-0.021
				c0.596-0.355,1.241-0.455,1.866-0.552c0.172-0.027,0.344-0.053,0.515-0.086c0.08-0.014,0.167-0.058,0.269-0.109
				c0.144-0.072,0.309-0.155,0.517-0.188c0.237-0.039,0.538-0.055,0.76,0.155c0.246,0.232,0.21,0.576,0.199,0.688
				c-0.011,0.104-0.007,0.209-0.004,0.309c0.001,0.044,0.003,0.088,0.003,0.13c0.099,0.657-0.076,1.226-0.245,1.775l-0.038,0.124
				c0.052,0.91-0.548,1.39-1.079,1.816c-0.378,0.303-0.529,0.81-0.466,1.519c0.102,1.129-0.416,1.93-1.418,2.199
				c-0.636,0.17-1.287,0.292-1.916,0.408c-0.284,0.053-0.558,0.167-0.847,0.289c-0.247,0.104-0.502,0.211-0.779,0.286
				c-0.35,0.094-0.687,0.108-1.012,0.121L29.234,78.572z"/>
			<path fill="#FFFFFF" d="M24.99,92.736c0.225-0.314,0.498-0.564,0.761-0.807c0.312-0.287,0.605-0.559,0.784-0.901
				c0.21-0.403,0.426-0.716,0.68-0.987c0.208-0.221,0.361-0.529,0.508-0.828c0.056-0.113,0.111-0.225,0.168-0.332
				c0.301-0.559,0.551-1.174,0.727-1.781c0.053-0.187,0.112-0.4,0.306-0.574c0.358-0.325,0.464-0.777,0.565-1.215
				c0.031-0.131,0.061-0.256,0.095-0.374c0.003-0.587-0.17-1.011-0.457-1.112c-0.251-0.088-0.53-0.173-0.853-0.26
				c-0.59-0.159-0.601-0.162-0.841,0.419c-0.18,0.438-0.476,0.692-0.931,0.805c-0.104,0.026-0.21,0.048-0.316,0.069
				c-0.273,0.056-0.532,0.107-0.726,0.24c-0.05,0.033-0.094,0.078-0.139,0.119c-0.16,0.148-0.433,0.402-0.831,0.338
				c-0.3,0.4-0.714,0.594-1.084,0.767c-0.162,0.076-0.314,0.148-0.45,0.233c-0.453,0.28-0.935,0.474-1.401,0.661
				c-0.379,0.152-0.736,0.296-1.077,0.482c-0.204,0.111-0.206,0.139-0.219,0.32c-0.016,0.218,0.092,0.33,0.379,0.566
				c0.079,0.065,0.158,0.131,0.229,0.199c0.515,0.489,0.992,0.533,1.597,0.151c0.688-0.437,1.316-0.854,1.919-1.274
				c0.255-0.178,0.521-0.282,0.771-0.368c0.076-0.025,0.226-0.077,0.393-0.077c0.176,0,0.369,0.056,0.513,0.262
				c0.18,0.257,0.172,0.596-0.019,0.926c-0.063,0.111-0.125,0.222-0.187,0.334c-0.281,0.514-0.573,1.047-1.101,1.456
				c-0.296,0.229-0.349,0.357-0.357,0.39c-0.191,0.73-0.54,1.367-0.876,1.982c-0.115,0.211-0.229,0.421-0.338,0.635
				c-0.226,0.446-0.058,0.592,0.006,0.646c0.183,0.157,0.446,0.13,0.704-0.074C24.313,93.442,24.709,93.13,24.99,92.736"/>
			<path fill="#FFFFFF" d="M30.104,73.352c-0.186,0.221-0.347,0.413-0.38,0.639c-0.023,0.159-0.051,0.354-0.135,0.55
				c0.013-0.001,0.026-0.001,0.039-0.001l0.2-0.002c1.022-0.018,2.093-0.197,3.469-0.584c0.066-0.019,0.135-0.036,0.204-0.052
				c0.36-0.09,0.587-0.158,0.705-0.388c0.169-0.33,0.134-0.765-0.009-0.919c-0.234-0.253-0.63-0.501-1.18-0.246l-0.246,0.117
				c-0.75,0.355-1.525,0.723-2.456,0.624C30.247,73.181,30.175,73.268,30.104,73.352"/>
		</g>
		<g>
			<path fill="#FFFFFF" d="M35.679,30.784c0.005-0.286,0.012-0.641,0.221-0.965c0.186-0.286,0.332-0.577,0.447-0.885
				c0.089-0.24,0.216-0.442,0.338-0.639c0.133-0.214,0.259-0.417,0.308-0.629c0.066-0.297,0.178-0.563,0.285-0.821
				c0.089-0.211,0.172-0.411,0.226-0.614c0.094-0.356,0.255-0.667,0.411-0.97c0.165-0.318,0.32-0.62,0.381-0.944
				c0.014-0.075,0.014-0.167,0.013-0.266c0-0.204-0.002-0.457,0.129-0.711c0.214-0.415,0.319-0.873,0.429-1.359
				c0.079-0.34,0.16-0.693,0.282-1.041c0.01-0.028,0.024-0.084,0.001-0.113c-0.023-0.029-0.09-0.053-0.187-0.042
				c-0.333,0.043-0.565,0.204-0.691,0.477c-0.426,0.934-0.904,1.737-1.462,2.46c-0.111,0.144-0.211,0.302-0.315,0.472
				C36.3,24.506,36.1,24.825,35.799,25.1c-0.005,0.013-0.009,0.027-0.014,0.042c-0.014,0.043-0.029,0.084-0.047,0.125
				c-0.218,0.482-0.538,0.887-0.955,1.202c-0.196,0.149-0.385,0.192-0.564,0.127c-0.158-0.056-0.273-0.191-0.315-0.368
				c-0.011-0.045-0.03-0.086-0.048-0.128c-0.059-0.143-0.138-0.338-0.104-0.59c0.028-0.205,0.046-0.408,0.064-0.614
				c0.043-0.488,0.087-0.994,0.258-1.505c0.082-0.248,0.187-0.473,0.288-0.69c0.06-0.128,0.12-0.258,0.173-0.39
				c0.355-0.872,0.749-1.908,0.977-2.989c0.019-0.091,0.042-0.183,0.063-0.274c0.084-0.344,0.156-0.643,0.057-0.929
				c-0.053-0.154-0.104-0.311-0.155-0.467c-0.189-0.583-0.368-1.133-0.698-1.593c-0.215-0.299-0.334-0.62-0.449-0.932
				c-0.123-0.333-0.239-0.647-0.463-0.882c-0.222-0.229-0.308-0.504-0.238-0.751c0.049-0.172,0.19-0.397,0.585-0.501
				c0.019-0.01,0.037-0.053,0.035-0.144c-0.003-0.3-0.056-0.371-0.331-0.448c-0.091-0.024-0.179-0.057-0.266-0.089
				c-0.254-0.094-0.33-0.111-0.438-0.049l-0.153,0.085c-0.237,0.129-0.442,0.242-0.527,0.427l-0.056,0.124
				c-0.132,0.288-0.256,0.56-0.306,0.828l-0.019,0.102c-0.157,0.856-0.305,1.665,0.041,2.445c0.119,0.268,0.183,0.542,0.244,0.81
				c0.062,0.267,0.12,0.52,0.227,0.722c0.259,0.497,0.373,0.965,0.334,1.394c-0.009,1.067-0.051,1.224-0.54,2.042
				c-0.087,0.146-0.126,0.284-0.124,0.435c0.009,0.494-0.006,0.912-0.046,1.277c-0.018,0.163-0.032,0.326-0.046,0.491
				c-0.029,0.325-0.058,0.664-0.116,1.001c-0.063,0.375-0.117,0.739-0.068,1.064c0.029,0.185,0.071,0.367,0.113,0.55
				c0.106,0.467,0.218,0.951,0.14,1.486c0.344,0.353,0.462,0.776,0.566,1.15c0.065,0.23,0.126,0.448,0.233,0.625
				c0.158,0.261,0.348,0.661,0.364,1.082c0.013,0.388,0.209,0.657,0.522,0.968c0.099,0.098,0.168,0.205,0.229,0.3
				c0.231,0.353,0.612,0.518,0.983,0.442c0.14-0.029,0.35-0.073,0.44-0.682c0.002-0.019,0-0.04,0-0.061
				c-0.002-0.06-0.006-0.142,0.01-0.231C35.674,31.033,35.676,30.912,35.679,30.784"/>
			<path fill="#FFFFFF" d="M33.699,9.597c0.217-0.002,0.553-0.225,0.59-0.333c0.054-0.284,0.178-0.513,0.288-0.715
				c0.038-0.068,0.076-0.138,0.11-0.209c0.427-0.891,1.135-1.386,2.229-1.556c0.643-0.101,1.116-0.213,1.357-0.734
				c0.048-0.104,0.07-0.217,0.097-0.349c0.023-0.114,0.049-0.242,0.096-0.373c0.183-0.518,0.015-0.908-0.472-1.096
				c-0.225-0.088-0.446-0.186-0.668-0.283c-0.72-0.315-1.402-0.614-2.161-0.563c-0.18,0.012-0.334-0.054-0.447-0.103l-0.064-0.026
				c-0.11-0.042-0.166-0.036-0.198-0.029c-0.688,0.162-1.268-0.097-1.697-0.342c-0.115-0.064-0.223-0.142-0.329-0.218
				c-0.147-0.106-0.275-0.198-0.415-0.246c-0.028-0.008-0.06-0.014-0.093-0.014c-0.121,0-0.27,0.057-0.382,0.154
				c-0.093,0.079-0.119,0.151-0.115,0.178c0.055,0.307,0.221,0.576,0.497,0.798c0.427,0.347,0.862,0.686,1.295,1.024
				c0.225,0.175,0.449,0.35,0.673,0.527c0.372,0.293,0.533,0.724,0.429,1.153c-0.063,0.255-0.067,0.485-0.016,0.729
				c0.035,0.166-0.009,0.317-0.039,0.417l-0.013,0.041c-0.192,0.716-0.461,1.26-0.847,1.714c-0.025,0.03-0.092,0.108,0.038,0.34
				C33.471,9.534,33.505,9.587,33.699,9.597"/>
			<path fill="#FFFFFF" d="M60.057,25.281c0.178,0.062,0.354,0.132,0.531,0.202c0.596,0.237,1.159,0.46,1.773,0.381
				c0.195-0.025,0.335-0.094,0.386-0.19c0.048-0.09,0.03-0.23-0.052-0.394c-0.121-0.24-0.255-0.528-0.348-0.829
				c-0.009-0.029-0.061-0.093-0.098-0.139c-0.107-0.131-0.269-0.329-0.258-0.613c0.013-0.376-0.137-0.623-0.528-0.863
				c-0.066-0.016-0.126-0.046-0.179-0.091c-0.022-0.019-0.042-0.039-0.058-0.062c-0.24-0.05-0.386-0.179-0.474-0.305l-0.177-0.122
				c-0.249-0.124-0.529-0.262-0.748-0.528l-0.011-0.008c-0.128-0.02-0.314-0.076-0.46-0.244l-0.006-0.004
				c-0.099-0.021-0.186-0.064-0.256-0.129l-0.43-0.113c-0.07-0.019-0.14-0.031-0.209-0.045c-0.221-0.043-0.495-0.095-0.741-0.28
				l-0.116-0.073c-0.76-0.057-1.529-0.217-2.289-0.479c-0.155-0.053-0.289-0.097-0.419-0.183c-0.681-0.447-1.467-0.51-2.215-0.511
				c-0.33-0.001-0.679-0.035-1.014-0.285l-0.078-0.077l-0.178-0.231l-0.032-0.154c-0.011-0.197-0.042-0.397-0.076-0.608
				c-0.075-0.483-0.155-0.985-0.01-1.536c0.041-0.157,0.022-0.363,0.001-0.582c-0.007-0.081-0.015-0.16-0.02-0.24
				c-0.005-0.081-0.018-0.161-0.031-0.241c-0.041-0.266-0.092-0.594,0.071-0.943c-0.006-0.025-0.017-0.062-0.025-0.089
				c-0.015-0.047-0.028-0.094-0.04-0.141c-0.135-0.582-0.226-1.338,0.263-2.021l0.069-0.076l0.158-0.129
				c0.142-0.123,0.3-0.21,0.469-0.256l0.077-0.045c0.252-0.361,0.639-0.492,0.993-0.569c0.233-0.052,0.459-0.147,0.698-0.248
				c0.186-0.077,0.378-0.157,0.583-0.22c0.249-0.078,0.49-0.189,0.747-0.308c0.533-0.247,1.086-0.499,1.771-0.482
				c0.084,0.001,0.155-0.026,0.219-0.09c0.125-0.127,0.2-0.367,0.19-0.613c-0.013-0.371-0.167-0.7-0.329-1.048
				c-0.041-0.086-0.081-0.174-0.12-0.262c-0.059-0.132-0.215-0.185-0.545-0.249c-0.749-0.147-1.442-0.285-2.126,0
				c-0.122,0.051-0.24,0.08-0.355,0.109c-0.146,0.036-0.271,0.066-0.365,0.133c-0.212,0.149-0.454,0.217-0.667,0.277L52.924,8.45
				c-0.315,0.091-0.587,0.066-0.809-0.071c-0.231-0.144-0.382-0.399-0.449-0.757c-0.082-0.439-0.052-0.874,0.094-1.368
				c-0.049-0.092-0.173-0.274-0.078-0.496c0.072-0.168,0.049-0.375,0.022-0.617c-0.035-0.322-0.075-0.687,0.108-1.057
				c0.43-0.866,0.396-1.611-0.105-2.341c-0.095-0.139-0.148-0.28-0.195-0.405c-0.037-0.096-0.068-0.179-0.112-0.241
				c-0.259-0.368-0.47-0.539-0.751-0.607c-0.165-0.041-0.324-0.129-0.504-0.278c-0.359-0.297-0.772-0.246-1.321-0.066
				c-0.353,0.116-0.441,0.629-0.321,1.042c0.112,0.386,0.32,0.715,0.542,1.045c0.3,0.446,0.318,0.954,0.333,1.402
				c0.005,0.161,0.01,0.322,0.03,0.478c0.018,0.131,0.026,0.268,0.034,0.403c0.012,0.184,0.022,0.358,0.057,0.515
				c0.086,0.389,0.18,0.813,0.02,1.266c0.217,0.389,0.224,0.791,0.229,1.149c0.002,0.151,0.004,0.292,0.022,0.422
				c0.121,0.926-0.302,1.707-1.104,2.039c-0.243,0.1-0.465,0.251-0.699,0.409c-0.199,0.136-0.406,0.277-0.639,0.394
				c-0.129,0.064-0.259,0.127-0.389,0.191c-0.301,0.146-0.612,0.297-0.898,0.467c-0.125,0.075-0.242,0.17-0.365,0.27
				c-0.122,0.098-0.247,0.198-0.39,0.291c-0.143,0.089-0.284,0.184-0.425,0.275c-0.729,0.473-1.481,0.962-2.33,1.287
				c-0.375,0.144-0.803,0.238-1.27,0.281c-0.166,0.014-0.383,0.065-0.481,0.217c-0.081,0.127-0.078,0.329,0.006,0.566
				c0.111,0.308,0.28,0.451,0.672,0.564c0.14,0.04,0.278,0.105,0.4,0.187c0.545,0.371,0.999,0.517,1.474,0.472
				c0.186-0.018,0.393,0.033,0.553,0.134c0.129,0.082,0.256,0.13,0.508-0.096c0.24-0.215,0.505-0.351,0.762-0.482
				c0.218-0.112,0.425-0.219,0.589-0.363c0.076-0.067,0.162-0.124,0.249-0.179c0.091-0.059,0.169-0.108,0.208-0.164
				c0.186-0.274,0.516-0.383,0.819-0.274c0.197,0.073,0.29,0.203,0.333,0.299c0.101,0.224,0.017,0.441-0.024,0.545
				c-0.122,0.316-0.249,0.61-0.375,0.905l-0.185,0.404l-0.247,0.337c-0.013,0.167-0.098,0.317-0.241,0.424l-0.027,0.06
				c-0.081,0.33-0.305,0.52-0.472,0.66c-0.034,0.029-0.067,0.057-0.1,0.087c-0.084,0.241-0.245,0.402-0.381,0.535
				c-0.016,0.058-0.047,0.12-0.102,0.184l-0.072,0.084c-0.019,0.11-0.071,0.214-0.154,0.299c-0.054,0.126-0.134,0.218-0.192,0.286
				c-0.001,0.001-0.003,0.003-0.004,0.005c-0.037,0.163-0.106,0.425-0.367,0.579l-0.169,0.244c-0.019,0.127-0.082,0.213-0.128,0.258
				c-0.04,0.041-0.108,0.094-0.207,0.12l-0.104,0.104c-0.073,0.276-0.199,0.545-0.377,0.797l-0.047,0.055
				c-0.142,0.139-0.262,0.313-0.389,0.497c-0.131,0.19-0.267,0.386-0.44,0.565c-0.074,0.076-0.145,0.157-0.215,0.237
				c-0.324,0.37-0.728,0.829-1.423,0.875c-0.303,0.021-0.505,0.246-0.62,0.431l-0.032,0.052c-0.335,0.536-0.652,1.042-0.715,1.645
				c-0.017,0.157,0,0.276,0.045,0.329c0.036,0.043,0.125,0.067,0.247,0.072c0.412,0.015,0.829-0.052,1.349-0.217l0.245-0.077
				c0.888-0.277,1.727-0.537,2.313-1.226c0.185-0.217,0.399-0.376,0.606-0.531c0.25-0.186,0.467-0.346,0.584-0.572
				c0.142-0.27,0.314-0.502,0.48-0.728c0.102-0.136,0.203-0.273,0.294-0.417c0.493-0.775,1.161-1.248,1.986-1.406
				c0.083-0.017,0.164-0.024,0.24-0.024c0.202,0,0.375,0.056,0.511,0.164c0.159,0.129,0.25,0.323,0.257,0.548l0.017,0.507
				c0.016,0.461,0.033,0.938,0.028,1.413c-0.003,0.365-0.047,0.717-0.089,1.057l-0.037,0.288c-0.045,0.395-0.019,0.793,0.01,1.217
				c0.031,0.471,0.064,0.963-0.008,1.464c-0.024,0.163-0.009,0.232-0.002,0.254c0.286,0.844,0.235,1.688,0.186,2.504l-0.013,0.215
				c-0.023,0.411,0.108,0.772,0.247,1.153c0.056,0.153,0.113,0.305,0.159,0.462c0.094,0.312,0.207,0.631,0.45,0.805
				c0.31,0.222,0.287,0.597,0.277,0.757c-0.006,0.092-0.008,0.124,0.328,0.247l0.048,0.018c0.092,0.034,0.16-0.083,0.178-0.119
				c0.239-0.476,0.382-0.855,0.358-1.28c-0.032-0.553,0.064-1.087,0.157-1.603l0.053-0.305c0.094-0.561,0.188-1.117,0.143-1.595
				c-0.057-0.588-0.042-1.173-0.028-1.74c0.016-0.673,0.033-1.31-0.061-1.954c-0.116-0.798-0.096-1.706,0.06-2.856
				c0.024-0.177,0.081-0.431,0.306-0.593c0.161-0.117,0.364-0.152,0.604-0.107c0.545,0.101,1.125,0.261,1.82,0.503
				c1.134,0.395,1.991,0.831,2.694,1.371c0.006,0.001,0.053,0.015,0.083,0.023c0.645,0.186,1.384,0.424,2.008,0.928
				c0.181,0.146,0.31,0.158,0.392,0.154c0.319-0.017,0.576,0.087,0.8,0.18C59.933,25.233,59.994,25.259,60.057,25.281"/>
		</g>
		<path fill="#F2A300" d="M22.959,41.376c0.332,0.084,0.625-0.03,0.944-0.194c0.423-0.218,0.887-0.055,1.33,0.038
			c0.299,0.064,0.583,0.195,0.9,0.188c0.387-0.009,0.489-0.121,0.462-0.508c-0.012-0.178,0.12-0.287,0.273-0.251
			c0.474,0.11,0.982,0.079,1.424,0.334c0.174,0.101,0.299,0.243,0.423,0.394c0.289,0.352,0.499,0.382,0.87,0.144
			c0.534-0.341,0.697-0.329,1.073,0.17c0.196,0.258,0.41,0.158,0.6,0.061c0.502-0.254,0.995-0.243,1.453,0.055
			c0.702,0.456,1.413,0.905,2.04,1.466c0.196,0.176,0.454,0.253,0.636,0.471c0.178,0.212,0.274,0.44,0.287,0.693
			c0.015,0.298,0.127,0.552,0.328,0.734c0.384,0.353,0.437,0.757-0.012,1.189c-0.297,0.283-0.295,0.417-0.014,0.714
			c0.15,0.159,0.281,0.328,0.39,0.516c0.217,0.378,0.118,0.917-0.164,1.25c-0.35,0.413-0.828,0.672-1.194,1.061
			c-0.173,0.184-0.229,0.333-0.051,0.556c0.219,0.274,0.234,0.608-0.022,0.871c-0.357,0.367-0.511,0.81-0.646,1.275
			c-0.046,0.159-0.123,0.303-0.222,0.438c-0.229,0.308-0.461,0.596-0.572,0.994c-0.124,0.442-0.765,0.483-1.022,0.089
			c-0.126-0.191-0.252-0.202-0.402-0.082c-0.422,0.333-0.931,0.212-1.401,0.271c-0.264,0.033-0.431-0.28-0.316-0.531
			c0.143-0.308,0.308-0.601,0.587-0.809c0.063-0.047,0.114-0.094,0.096-0.177c-0.018-0.08-0.09-0.066-0.149-0.08
			c-0.17-0.036-0.329-0.104-0.5-0.141c-0.325-0.072-0.504-0.473-0.372-0.788c0.057-0.135,0.061-0.244-0.045-0.366
			c-0.363-0.417-0.185-1.112,0.451-1.207c0.292-0.043,0.395-0.176,0.392-0.496c-0.005-0.467-0.191-0.909-0.143-1.377
			c0.009-0.081-0.002-0.171-0.113-0.189c-0.143-0.023-0.195,0.086-0.205,0.181c-0.024,0.274-0.153,0.484-0.346,0.668
			c-0.196,0.189-0.436,0.308-0.679,0.416c-0.237,0.104-0.461-0.03-0.398-0.275c0.136-0.513-0.009-1.109,0.459-1.536
			c0.197-0.18,0.09-0.469-0.155-0.585c-0.103-0.049-0.205-0.089-0.313-0.125c-0.394-0.132-0.564-0.004-0.732,0.387
			c-0.17,0.398-0.161,0.823-0.282,1.225c-0.054,0.182-0.136,0.278-0.319,0.32c-0.286,0.067-0.488,0.192-0.532,0.544
			c-0.04,0.314-0.356,0.294-0.598,0.291c-0.475-0.01-0.832-0.184-1.013-0.675c-0.112-0.303-0.45-0.325-0.724-0.398
			c-0.468-0.125-0.832-0.384-1.048-0.819c-0.114-0.228-0.229-0.451-0.269-0.717c-0.047-0.326-0.329-0.418-0.612-0.461
			c-0.142-0.022-0.289-0.008-0.434-0.014c-0.359-0.016-0.679-0.072-0.837-0.477c-0.089-0.227-0.33-0.288-0.55-0.188
			c-0.194,0.088-0.406,0.135-0.579,0.271c-0.332,0.259-0.65,0.012-0.962-0.054c-0.655-0.136-1.21-0.477-1.271-1.186
			c-0.068-0.792-0.12-1.07,0.808-1.289c0.355-0.083,0.668-0.306,1.045-0.333c0.036-0.002,0.094-0.037,0.099-0.065
			c0.048-0.292,0.347-0.325,0.498-0.495c0.249-0.28,0.567-0.468,0.825-0.722c0.352-0.351,0.793-0.48,1.231-0.635
			C22.746,41.377,22.845,41.387,22.959,41.376"/>
		<path fill="#F2A300" d="M27.029,56.052c-0.163,0.263-0.217,0.542-0.447,0.737c-0.154,0.13-0.309,0.203-0.468,0.123
			c-0.17-0.085-0.372-0.196-0.386-0.423c-0.028-0.473-0.012-0.939,0.208-1.38c0.128-0.256,0.401-0.419,0.681-0.333
			c0.171,0.052,0.227,0.014,0.295-0.145c0.146-0.338,0.083-0.69,0.108-1.036c0.011-0.152-0.112-0.178-0.234-0.175
			c-0.322,0.008-0.442-0.205-0.519-0.468c-0.125-0.427,0.045-0.858-0.023-1.29c-0.025-0.157,0.592-0.622,0.755-0.602
			c0.194,0.023,0.25,0.193,0.335,0.328c0.032,0.048,0.014,0.13,0.047,0.176c0.097,0.135,0.129,0.367,0.333,0.354
			c0.174-0.012,0.285-0.169,0.349-0.342c0.06-0.165,0.167-0.268,0.363-0.279c0.191-0.01,0.329,0.059,0.397,0.225
			c0.054,0.131,0.145,0.227,0.234,0.323c0.208,0.222,0.234,0.482,0.146,0.749c-0.156,0.473-0.334,0.938-0.509,1.405
			c-0.028,0.076-0.069,0.158-0.128,0.208c-0.408,0.349-0.421,0.84-0.342,1.278c0.048,0.271,0.127,0.544,0.143,0.825
			c0.019,0.345-0.207,0.542-0.545,0.449c-0.179-0.049-0.406-0.003-0.528-0.194C27.196,56.413,27.194,56.21,27.029,56.052"/>
		<path fill="#F2A300" d="M1.113,55.893c0.129-0.444-0.03-0.989,0.214-1.483c0.094-0.19-0.034-0.3-0.178-0.365
			C0.846,53.906,0.7,53.65,0.567,53.369c-0.117-0.249-0.25-0.492-0.395-0.723C0.046,52.444-0.004,52.233,0,52.001
			c0.002-0.137,0-0.275,0.157-0.334c0.157-0.057,0.288,0.01,0.39,0.116c0.172,0.177,0.353,0.338,0.561,0.473
			c0.145,0.095,0.221,0.03,0.242-0.102c0.041-0.257,0.033-0.509-0.143-0.732c-0.132-0.167-0.243-0.357-0.052-0.549
			c0.229-0.229,0.485-0.234,0.711-0.053c0.167,0.134,0.353,0.246,0.518,0.383c0.114,0.094,0.256,0.199,0.183,0.384
			c-0.067,0.165-0.221,0.164-0.368,0.169c-0.367,0.012-0.433,0.089-0.391,0.455c0.048,0.423,0.33,0.653,0.762,0.625
			c0.192-0.012,0.35,0.055,0.429,0.233c0.084,0.191,0.047,0.397-0.119,0.502C2.601,53.75,2.432,54.16,1.98,54.02
			c-0.083-0.025-0.24,0.023-0.25,0.175c-0.01,0.181,0.102,0.306,0.226,0.417c0.101,0.089,0.19,0.038,0.272-0.038
			c0.039-0.033,0.074-0.071,0.111-0.107c0.147-0.149,0.318-0.251,0.525-0.153c0.197,0.093,0.127,0.293,0.104,0.444
			c-0.049,0.318,0,0.53,0.383,0.532c0.105,0.001,0.194,0.083,0.212,0.194c0.018,0.106-0.072,0.167-0.148,0.217
			c-0.255,0.164-0.521,0.295-0.84,0.225c-0.255-0.055-0.438,0.033-0.563,0.263c-0.2,0.368-0.359,0.455-0.658,0.367
			C1.023,56.458,1.149,56.178,1.113,55.893"/>
		<path fill="#F2A300" d="M5.717,37.777c0.031-0.158-0.055-0.378,0.074-0.58c0.427-0.658,1.005-0.904,1.685-0.512
			c0.253,0.145,0.324,0.043,0.402-0.137c0.1-0.232,0.162-0.501,0.484-0.503c0.341-0.001,0.537,0.19,0.714,0.485
			c0.214,0.356,0.253,0.772,0.46,1.125c0.065,0.11-0.221,0.411-0.415,0.435c-0.417,0.052-0.802-0.025-1.116-0.33
			c-0.08-0.076-0.16-0.078-0.253-0.048c-0.117,0.038-0.152,0.129-0.156,0.24c-0.009,0.276,0.012,0.552-0.104,0.818
			c-0.131,0.304-0.348,0.439-0.679,0.382C6.059,39.021,5.655,38.739,5.717,37.777"/>
		<path fill="#F2A300" d="M7.696,56.259c0,0.075-0.072,0.186-0.167,0.256c-0.255,0.188-0.5,0.428-0.868,0.296
			c-0.131-0.047-0.235,0.005-0.344,0.077c-0.082,0.052-0.199,0.121-0.286,0.053c-0.089-0.07-0.101-0.193-0.056-0.312
			c0.026-0.065,0.037-0.139,0.05-0.21c0.047-0.245-0.063-0.352-0.309-0.272c-0.271,0.089-0.534,0.208-0.729,0.424
			c-0.432,0.479-1.077,0.66-1.529,1.11c-0.034,0.034-0.091,0.046-0.139,0.065c-0.204,0.076-0.285-0.01-0.292-0.213
			c-0.008-0.251,0.156-0.419,0.321-0.538c0.545-0.389,0.973-0.928,1.591-1.228c0.417-0.203,0.998-0.167,1.36,0.137
			c0.098,0.081,0.166,0.033,0.237-0.04c0.101-0.101,0.203-0.191,0.349-0.24C7.282,55.49,7.708,55.783,7.696,56.259"/>
		<path fill="#F2A300" d="M3.003,42.618c-0.031,0.16-0.078,0.302-0.217,0.371c-0.117,0.058-0.229,0.013-0.341-0.066
			c-0.292-0.204-0.577-0.418-0.907-0.569c-0.376-0.172-0.432-0.506-0.175-0.803c0.063-0.072,0.147-0.141,0.241-0.11
			c0.569,0.194,1.102,0.439,1.356,1.043C2.979,42.53,2.991,42.581,3.003,42.618"/>
		<path fill="#F2A300" d="M0.335,54.069c0.315,0.032,0.539,0.226,0.518,0.413c-0.025,0.21-0.173,0.279-0.352,0.248
			c-0.233-0.038-0.384-0.206-0.405-0.434C0.078,54.111,0.245,54.083,0.335,54.069"/>
		<path fill="#F2A300" d="M24.774,54.789c-0.096-0.124-0.293-0.094-0.416,0.076c-0.077,0.108-0.18,0.198-0.28,0.287
			c-0.116,0.105-0.204,0.098-0.29-0.055c-0.193-0.342-0.07-0.633,0.31-0.7c0.391-0.069,0.742-0.343,0.727-0.598
			c-0.047-0.764,0.014-1.526-0.001-2.291c-0.004-0.208-0.045-0.376-0.22-0.51c-0.17-0.13-0.201-0.284-0.06-0.48
			c0.126-0.175,0.193-0.392,0.131-0.612c-0.125-0.442-0.413-0.799-0.724-1.107c-0.373-0.369-0.918-0.509-1.324-0.848
			c-0.257-0.212-0.565-0.342-0.811-0.584c-0.29-0.286-0.672-0.584-1.07-0.549c-0.574,0.051-1.161,0.11-1.726,0.267
			c-0.249,0.067-0.508,0.041-0.693-0.154c-0.261-0.272-0.575-0.468-0.896-0.646c-0.446-0.247-0.9-0.453-1.45-0.281
			c-0.586,0.182-1.1,0.533-1.702,0.682c-0.275,0.068-0.489,0.1-0.709-0.092c-0.222-0.195-0.46-0.365-0.653-0.596
			c-0.23-0.275-0.611-0.318-0.889-0.524c-0.208-0.155-0.443-0.146-0.644-0.064c-0.801,0.329-1.616,0.622-2.426,0.926
			c-1.013,0.384-2.038,0.732-3.049,1.116c-0.316,0.121-0.54-0.054-0.507-0.386c0.063-0.627,0.029-1.256,0.021-1.884
			c-0.001-0.174-0.045-0.348-0.042-0.522c0.003-0.161,0.109-0.272,0.274-0.279c0.157-0.008,0.249,0.077,0.244,0.247
			c-0.001,0.062,0.002,0.131,0.064,0.165c0.351,0.189,0.467,0.519,0.549,0.881c0.025,0.108,0.135,0.203,0.218,0.29
			c0.208,0.218,0.478,0.261,0.74,0.172c0.263-0.09,0.198-0.347,0.196-0.56c0-0.051,0-0.104-0.007-0.155
			c-0.083-0.561-0.127-1.146-0.792-1.371c-0.09-0.031-0.121-0.116-0.113-0.202c0.022-0.235,0.04-0.47,0.088-0.7
			c0.092-0.451,0.15-0.483,0.568-0.321c0.228,0.091,0.448,0.183,0.659-0.017c0.233-0.22,0.44-0.466,0.803-0.489
			c0.071-0.003,0.137-0.141,0.199-0.222c0.255-0.332,0.488-0.688,0.881-0.883c0.097-0.048,0.153-0.152,0.112-0.229
			c-0.131-0.25-0.165-0.553-0.396-0.749c-0.235-0.2-0.238-0.349-0.017-0.549c0.255-0.23,0.265-0.37,0.08-0.668
			c-0.08-0.126-0.226-0.17-0.308-0.289c-0.194-0.284-0.519-0.376-0.759-0.221c-0.194,0.126-0.198,0.462-0.08,0.75
			c0.116,0.284,0.407,0.448,0.458,0.786c0.025,0.168,0.078,0.304-0.085,0.379c-0.177,0.083-0.344,0.023-0.442-0.163
			C8.44,40.118,8.38,39.962,8.29,39.826c-0.271-0.403-0.718-0.415-1.038-0.064c-0.17,0.186-0.25,0.448-0.494,0.571
			c-0.104,0.051-0.16,0.233-0.303,0.16c-0.14-0.07-0.143-0.239-0.16-0.378c-0.041-0.333-0.255-0.574-0.615-0.651
			c-0.306-0.065-0.47,0.138-0.614,0.36c-0.051,0.076-0.082,0.165-0.132,0.242c-0.152,0.232-0.094,0.498-0.133,0.748
			c-0.017,0.107-0.018,0.301-0.199,0.223c-0.131-0.056-0.208-0.221-0.352-0.286c0.009,0.005,0.019,0.01,0.027,0.014
			c0.016-0.168,0.026-0.336,0.049-0.504c0.008-0.059,0.054-0.112,0.069-0.171c0.035-0.14,0.084-0.283-0.007-0.456
			c0.001-0.007,0.003-0.011,0.004-0.018c0.1-0.354,0.109-0.678-0.222-0.933c-0.104-0.08-0.217-0.18-0.266-0.297
			c-0.154-0.367-0.465-0.351-0.758-0.313c-0.417,0.054-0.521,0.164-0.441,0.429c0.081,0.274,0.091,0.55,0.064,0.826
			c-0.048,0.5,0.089,0.898,0.49,1.226c0.429,0.351,0.712,0.768,0.672,1.385c-0.017,0.263,0.02,0.639,0.371,0.788
			c0.313,0.133,0.333,0.357,0.182,0.676c-0.261-0.294-0.586-0.325-0.936-0.327c-0.294,0-0.443,0.241-0.673,0.34
			c-0.302,0.129-0.213,0.398-0.179,0.619c0.03,0.194,0.184,0.279,0.389,0.273c0.161-0.002,0.344-0.049,0.472,0.084
			c0.151,0.155,0.342,0.219,0.532,0.29C4.48,44.833,4.51,44.876,4.429,45.3c-0.109,0.568-0.185,1.135-0.103,1.716
			c0.042,0.297,0.118,0.51,0.455,0.559c0.077,0.011,0.223-0.011,0.243,0.141c0.015,0.126-0.084,0.188-0.161,0.244
			c-0.363,0.264-0.732,0.522-1.107,0.77c-0.538,0.356-1.086,0.694-1.622,1.054c-0.112,0.075-0.229,0.184-0.204,0.354
			c0.019,0.123,0.126,0.166,0.223,0.185c0.322,0.066,0.645,0.136,0.971,0.171c0.294,0.033,0.416,0.168,0.412,0.46
			c-0.01,0.63-0.004,1.259-0.004,1.888c0,0.156-0.016,0.319,0.071,0.452c0.153,0.238,0.194,0.489,0.177,0.767
			c-0.015,0.252,0.21,0.542,0.452,0.59c0.373,0.075,0.748,0.162,1.125,0.185c0.265,0.017,0.426,0.098,0.57,0.324
			c0.231,0.365,0.451,0.394,0.844,0.155c0.145-0.088,0.288-0.147,0.461-0.142c0.516,0.012,1.031,0.015,1.547,0.026
			c0.095,0.002,0.222-0.03,0.238,0.126c0.013,0.134-0.075,0.217-0.178,0.263c-0.12,0.055-0.257,0.065-0.38,0.113
			c-0.388,0.154-0.571,0.559-0.4,0.849c0.282,0.476,1.314,0.595,1.576,0.061c0.099-0.201,0.292-0.333,0.484-0.409
			c0.2-0.08,0.29-0.137,0.14-0.339c-0.033-0.045-0.038-0.126,0.028-0.165c0.075-0.044,0.159-0.046,0.235,0.002
			c0.069,0.042,0.044,0.106,0.022,0.164c-0.02,0.048-0.042,0.095-0.068,0.138c-0.13,0.216-0.034,0.394,0.101,0.556
			s0.29,0.111,0.438,0.012c0.068-0.046,0.14-0.02,0.209-0.015c0.247,0.019,0.408-0.066,0.401-0.339
			c-0.004-0.191,0.102-0.211,0.258-0.213c0.203-0.004,0.372,0.12,0.567,0.129c0.705,0.032,1.342,0.374,2.041,0.446
			c0.823,0.084,1.608,0.436,2.458,0.366c0.261-0.021,0.507,0.05,0.752,0.141c0.395,0.145,0.825,0.172,1.205,0.027
			c0.237-0.089,0.386-0.137,0.615-0.003c0.245,0.145,0.542,0.155,0.799,0.013c0.182-0.101,0.163-0.313,0.171-0.5
			c0.006-0.119-0.084-0.185-0.114-0.281c-0.039-0.122-0.059-0.27,0.041-0.35c0.184-0.146,0.414-0.086,0.626-0.063
			c0.131,0.015,0.15,0.12,0.153,0.231c0.006,0.333,0.152,0.632,0.26,0.934c0.112,0.323,0.537,0.45,0.756,0.253
			c0.144-0.129,0.301-0.269,0.386-0.438c0.179-0.352,0.41-0.541,0.825-0.476c0.139,0.022,0.356,0.017,0.382-0.162
			c0.05-0.341,0.221-0.544,0.52-0.703c0.137-0.074,0.279-0.17,0.402-0.278C24.899,55.141,24.872,54.914,24.774,54.789 M3.292,50.083
			c-0.142-0.021-0.318-0.002-0.358-0.175c-0.042-0.188,0.124-0.287,0.25-0.386c0.055-0.041,0.137-0.042,0.203-0.072
			c0.326-0.147,0.626-0.294,0.855-0.618c0.255-0.36,0.628-0.633,1.087-0.756c0.319-0.084,0.559,0.013,0.783,0.223
			c0.746,0.704,1.368,1.526,2.127,2.216c0.179,0.161,0.104,0.263-0.081,0.327c-0.085,0.03-0.18,0.035-0.215,0.042
			c-0.167-0.008-0.269-0.028-0.378-0.071c-0.207-0.084-0.438-0.167-0.654-0.157c-0.655,0.033-1.254-0.219-1.882-0.309
			C4.449,50.264,3.871,50.168,3.292,50.083 M5.342,53.955c-0.139-0.001-0.173-0.116-0.174-0.24
			c-0.003-0.144,0.037-0.287,0.194-0.292c0.152-0.005,0.119,0.156,0.144,0.248C5.479,53.792,5.527,53.955,5.342,53.955 M6.868,54.34
			c-0.243,0.001-0.466-0.272-0.47-0.576c-0.003-0.208,0.138-0.256,0.301-0.262c0.232-0.01,0.407,0.217,0.406,0.541
			C7.073,54.16,7.093,54.339,6.868,54.34 M7.87,52.887c-0.76-0.03-1.502-0.23-2.269-0.212c-0.265,0.006-0.525-0.109-0.625-0.4
			c-0.109-0.318-0.198-0.643-0.272-0.886c0.004-0.335,0.12-0.419,0.347-0.32c0.16,0.069,0.325,0.049,0.485,0.045
			c0.542-0.007,1.065,0.075,1.586,0.229c0.181,0.052,0.39,0.038,0.583,0.024c0.237-0.016,0.433,0.119,0.659,0.144
			c0.129,0.014,0.168,0.154,0.115,0.241c-0.135,0.22-0.091,0.457-0.105,0.688C8.35,52.813,8.236,52.901,7.87,52.887 M8.374,54.447
			C8.148,54.426,7.981,54.35,8,54.132c0.014-0.164-0.009-0.41,0.278-0.391c0.245,0.015,0.378,0.173,0.388,0.404
			C8.675,54.342,8.521,54.417,8.374,54.447 M8.493,49.556c-0.107-0.115-0.172-0.25-0.274-0.36c-0.333-0.356-0.618-0.762-1.083-0.977
			c-0.102-0.048-0.232-0.128-0.203-0.279c0.028-0.148,0.114-0.258,0.263-0.318c0.875-0.358,1.759-0.697,2.616-1.094
			c0.333-0.155,0.697-0.214,1.014-0.402c0.175-0.106,0.378-0.083,0.596-0.079c0.518-0.065,0.883,0.311,1.305,0.537
			c0.224,0.12,0.419,0.293,0.625,0.446c0.195,0.144,0.233,0.298,0.033,0.479c-0.811,0.739-1.668,1.411-2.651,1.91
			c-0.155,0.079-0.226,0.209-0.206,0.379c0.022,0.197-0.078,0.308-0.241,0.385c-0.202,0.095-0.404,0.191-0.607,0.285
			c-0.138,0.064-0.251,0.009-0.323-0.101C9.135,50.027,8.764,49.846,8.493,49.556 M11.137,51.105c0.597-0.36,1.24-0.616,1.887-0.864
			c0.187-0.072,0.339-0.175,0.478-0.315c0.267-0.27,0.393-0.266,0.662,0.015c0.275,0.287,0.496,0.623,0.8,0.885
			c0.417,0.361,0.769,0.781,1.107,1.216c0.049,0.064,0.124,0.124,0.076,0.216c-0.042,0.08-0.126,0.045-0.166,0.049
			c-1.03-0.212-2.083-0.138-3.052-0.568c-0.285-0.126-0.643-0.135-0.972-0.106c-0.304,0.026-0.566-0.07-0.823-0.208
			c-0.069-0.037-0.164-0.06-0.161-0.165C10.976,51.157,11.067,51.147,11.137,51.105 M10.325,54.721
			c-0.231-0.001-0.23-0.155-0.231-0.254c-0.016-0.2,0.011-0.309,0.186-0.301c0.185,0.008,0.244,0.121,0.242,0.287
			C10.519,54.592,10.53,54.723,10.325,54.721 M11.828,55.039c-0.184-0.01-0.222-0.157-0.22-0.306
			c0.001-0.129,0.075-0.203,0.215-0.198c0.19,0.007,0.192,0.142,0.196,0.245C12.01,54.936,11.969,55.045,11.828,55.039
			 M12.054,53.696c-0.04,0.002-0.062-0.046-0.056-0.092c0.008-0.061,0.053-0.09,0.099-0.107c0.192-0.073,0.383-0.073,0.561,0.036
			c0.109,0.066,0.206,0.153,0.348,0.261C12.63,53.918,12.359,53.674,12.054,53.696 M13.525,55.542
			c-0.208,0.032-0.505-0.299-0.516-0.53c-0.01-0.198,0.077-0.273,0.275-0.272c0.287,0.003,0.504,0.151,0.51,0.397
			C13.748,55.283,13.756,55.506,13.525,55.542 M15.509,55.703c-0.253,0.075-0.532,0.164-0.749-0.06
			c-0.108-0.112-0.167-0.288-0.133-0.457c0.021-0.107,0.132-0.195,0.224-0.185c0.242,0.029,0.491-0.002,0.725,0.087
			c0.127,0.049,0.152,0.153,0.155,0.278C15.712,55.512,15.662,55.658,15.509,55.703 M18.263,55.881
			c-0.04,0.241-0.225,0.311-0.464,0.304c-0.443-0.016-0.886-0.022-1.316-0.148c-0.272-0.08-0.408-0.5-0.234-0.721
			c0.053-0.067,0.115-0.097,0.214-0.075c0.129,0.027,0.267,0.021,0.371,0.028c0.406-0.036,0.767,0.024,1.109,0.183
			C18.127,55.536,18.3,55.657,18.263,55.881 M21.091,55.223c-0.245,0.007-0.479,0-0.717-0.114c-0.368-0.177-0.78-0.229-1.177-0.318
			c-0.191-0.042-0.285-0.088-0.181-0.333c0.158-0.373-0.256-0.368-0.426-0.509c-0.155-0.127-0.361-0.094-0.496,0.069
			c-0.076,0.092,0.021,0.192,0.072,0.279c0.091,0.151,0.265,0.215,0.447,0.388c-0.447,0.08-0.849,0.075-1.204-0.029
			c-0.716-0.212-1.444-0.287-2.179-0.339c-0.279-0.021-0.543-0.067-0.802-0.181c-0.21-0.093-0.447-0.044-0.671-0.065
			c-0.092-0.007-0.188,0.005-0.276-0.018c-0.446-0.116-0.444-0.119-0.209-0.486c0.026-0.041,0.023-0.103,0.05-0.144
			c0.097-0.142,0.253-0.283,0.106-0.461c-0.158-0.188-0.373-0.299-0.629-0.259c-0.252,0.04-0.483-0.027-0.722-0.089
			c-0.415-0.106-0.843-0.076-1.259-0.02c-0.168,0.022-0.365,0.162-0.25,0.432c0.045,0.106,0.063,0.232-0.061,0.336
			c-0.131,0.11-0.208-0.018-0.305-0.048c-0.441-0.13-0.714-0.386-0.656-0.89c0.021-0.184-0.106-0.33-0.153-0.497
			c-0.049-0.177,0.014-0.234,0.177-0.218c0.334,0.034,0.683,0.008,0.955,0.276c0.113,0.112,0.267,0.131,0.429,0.134
			c0.552,0.008,1.101,0.1,1.646,0.16c0.459,0.051,0.944,0.166,1.376,0.377c0.161,0.078,0.318,0.09,0.479,0.082
			c0.51-0.031,0.988,0.107,1.479,0.207c0.548,0.113,1.105,0.237,1.676,0.18c0.471-0.046,0.934-0.056,1.397,0.098
			c0.187,0.063,0.413,0.054,0.613,0.024c0.534-0.083,1.019,0.109,1.518,0.23c0.123,0.029,0.226,0.109,0.214,0.23
			c-0.033,0.367,0.081,0.707,0.142,1.058C21.558,55.161,21.488,55.214,21.091,55.223 M17.068,51.692
			c0.187-0.194,0.466-0.262,0.621-0.489c0.26-0.377,0.66-0.564,1.046-0.767c0.247-0.131,0.457-0.071,0.671,0.113
			c0.467,0.406,0.838,0.894,1.248,1.347c0.115,0.128,0.267,0.223,0.393,0.341c0.119,0.114,0.276,0.25,0.2,0.418
			c-0.077,0.17-0.293,0.156-0.468,0.196c-0.209-0.051-0.426-0.082-0.626-0.158c-0.364-0.139-0.745-0.141-1.122-0.17
			c-0.623-0.048-1.257,0-1.861-0.215C16.852,52.196,16.824,51.945,17.068,51.692 M21.632,51.339
			c-0.18-0.262-0.407-0.452-0.646-0.658c-0.274-0.234-0.543-0.489-0.845-0.684c-0.471-0.305-0.976-0.507-1.499-0.151
			c-0.542,0.372-1.151,0.632-1.765,0.873c-0.134,0.054-0.258,0.116-0.36,0.229c-0.177,0.193-0.388,0.187-0.576,0.022
			c-0.508-0.442-1.054-0.849-1.472-1.39c-0.149-0.193-0.335-0.265-0.591-0.237c-0.327,0.035-0.659,0.011-0.99,0.024
			c-0.32,0.01-0.619,0.108-0.908,0.245c-0.222,0.105-0.472,0.007-0.701,0.102c0.31-0.335,0.646-0.581,1.1-0.672
			c0.451-0.089,0.885-0.236,1.268-0.532c0.32-0.247,0.743-0.316,1.091-0.548c0.241-0.16,0.346-0.322,0.346-0.589
			c0-0.468,0.078-0.553,0.525-0.596c0.186-0.018,0.361-0.063,0.524-0.165c0.246-0.153,0.47-0.106,0.716,0.047
			c0.484,0.3,0.931,0.663,1.426,0.936c0.367,0.204,0.797,0.25,1.211,0.023c0.984-0.536,1.281-0.381,1.911,0.16
			c0.188,0.161,0.38,0.312,0.599,0.426c0.279,0.144,0.505,0.345,0.7,0.589c0.207,0.26,0.48,0.444,0.766,0.606
			c0.5,0.283,0.525,0.653,0.091,1.037c-0.399,0.35-0.773,0.728-1.232,1.007C22.079,51.591,21.787,51.567,21.632,51.339
			 M22.997,55.509c-0.043,0.164-0.082,0.439-0.345,0.445c-0.182,0.005-0.224-0.248-0.257-0.422
			c-0.019-0.098,0.343-0.374,0.462-0.366C22.971,55.172,23.009,55.248,22.997,55.509 M22.514,54.735
			c-0.062,0.063-0.111,0.136-0.202,0.1c-0.102-0.04-0.147-0.126-0.167-0.24c-0.072-0.409-0.069-0.836-0.296-1.208
			c-0.088-0.146,0.028-0.276,0.125-0.337c0.623-0.397,1.11-0.946,1.644-1.444c0.087-0.081,0.165-0.248,0.284-0.2
			c0.142,0.058,0.045,0.238,0.066,0.334c-0.039,0.572-0.077,1.116-0.11,1.66c-0.006,0.1-0.026,0.199-0.107,0.246
			C23.259,53.92,22.903,54.347,22.514,54.735"/>
		<path fill="#F2A300" d="M16.384,54.227c-0.479,0.036-0.89-0.091-1.213-0.466c-0.055-0.063-0.13-0.104-0.095-0.202
			c0.034-0.091,0.116-0.11,0.2-0.115c0.307-0.016,0.617-0.057,0.914,0.065c0.176,0.074,0.364,0.049,0.547,0.061
			c0.227,0.015,0.385,0.145,0.395,0.346c0.012,0.241-0.19,0.311-0.408,0.31C16.61,54.227,16.497,54.227,16.384,54.227"/>
	</g>
</g>
</svg>
