<?xml version="1.0" encoding="utf-8"?>
<!-- Generator: Adobe Illustrator 21.1.0, SVG Export Plug-In . SVG Version: 6.00 Build 0)  -->
<svg version="1.1" id="圖層_1" xmlns="http://www.w3.org/2000/svg" xmlns:xlink="http://www.w3.org/1999/xlink" x="0px" y="0px"
	 viewBox="0 0 145.8 28.3" style="enable-background:new 0 0 145.8 28.3;" xml:space="preserve">
<style type="text/css">
	.st0{fill:#FFFFFF;}
	.st1{fill:#F1A200;}
</style>
<g>
	<g>
		<g>
			<path class="st0" d="M58.5,10.5c-0.1-0.1-0.2-0.2-0.3-0.3C58.1,10,58,9.9,58,9.8c-0.1-0.3-0.2-0.5-0.4-0.7
				c-0.2-0.3-0.5-0.6-0.8-0.7c-0.2-0.1-0.5-0.2-0.7-0.2S55.8,8.1,55.6,8c-0.1,0-0.2,0-0.3,0.1c-0.1,0.1-0.3,0.3-0.6,0.2
				c-0.8-0.1-1.5,0.1-2.3,0.5c-0.1,0-0.2,0.1-0.3,0.1C52,8.9,51.9,9,51.8,9c-0.2,0.1-0.5,0.2-0.7,0.2c-0.3,0.1-0.6,0.1-0.8,0.3
				c-0.2,0.2-0.5,0.2-0.6,0l0,0l0,0c-0.1,0.1-0.2,0.3-0.4,0.3S49,9.9,48.8,10c-0.2,0.2-0.5,0.4-0.9,0.5c-0.4,0.5-1,0.6-1.5,0.7h-0.2
				c-0.9,0.2-1.4,0.7-1.6,1.5c-0.2,0.5-0.2,0.8,0,1c0.1,0.1,0.2,0.2,0.4,0.4c0.2,0.2,0.4,0.4,0.6,0.6c0.4,0,0.6,0.2,0.8,0.3l0,0
				c0.4,0.3,0.8,0.6,1.2,0.6c0.3,0,0.5,0.1,0.8,0.4c0.1,0.1,0.1,0.1,0.2,0.2l0.1,0.1c0.5,0.2,0.7,0.5,0.9,0.9
				c0.1,0.2,0.2,0.3,0.3,0.4c0.3,0.3,0.6,0.6,1,0.9c0.1,0,0.3,0.1,0.4,0.4c0,0.1,0,0.4-0.4,0.6c-0.1,0-0.1,0.1-0.2,0.2l-0.1,0.1
				c-0.2,0.2-0.5,0.4-0.8,0.4s-0.7,0-1.1-0.1c-0.7-0.2-1.3-0.2-1.9-0.2h-0.1l0,0c-0.4,0.1-0.5-0.2-0.5-0.3l0,0h-0.1
				c-0.1,0-0.1,0-0.2,0c-0.4-0.1-0.7-0.2-0.9-0.5c-0.4-0.4-0.9-0.8-1.4-1c-0.1,0-0.2-0.1-0.3-0.2s-0.2-0.3-0.4-0.4
				c-0.2-0.3-0.5-0.5-0.7-0.9l0,0c-0.1-0.3-0.2-0.3-0.3-0.3c-0.1,0-0.3,0-0.5-0.3c-0.1-0.2-0.2-0.3-0.2-0.4
				c-0.2-0.3-0.3-0.5-0.5-0.7c-0.2-0.1-0.3-0.3-0.3-0.5c0-0.1,0-0.2,0.1-0.3c-0.2-0.2-0.3-0.3-0.4-0.5c-0.1-0.1-0.1-0.2-0.2-0.2
				c0,0-0.2-0.2-0.3-0.2c-0.2,0.1-0.3,0.2-0.3,0.4c0,0.1,0,0.2,0.1,0.4c0,0,0,0.1,0.1,0.1c0.1,0.1,0.2,0.3,0.3,0.5
				c0.1,0.4,0.3,0.8,0.6,1.2l0,0c0.2,0.2,0.4,0.5,0.5,0.8c0.1,0.4,0.3,0.7,0.7,0.9c0.6,0.3,0.6,0.8,0.5,1c0,0.1,0,0.2,0.1,0.3
				c0.2,0.3,0.3,0.6,0.4,0.8c0.1,0.3,0.5,0.7,0.6,0.7h0.1c0.6,0,1.2,0,1.6,0.6c0.1,0.1,0.2,0.1,0.3,0.1c0.1,0,0.3,0,0.5,0.2
				c0.1,0.2,0.4,0.3,0.7,0.4c0.1,0,0.1,0.1,0.2,0.1c0.5,0.2,0.9,0.4,1.4,0.4c0.3,0,0.6,0.1,0.9,0.1c0.4,0.1,0.9,0.1,1.3,0.2
				c0.1,0,0.2,0,0.3,0c0.1,0,0.2,0,0.3,0c0.2,0,0.4,0,0.6,0.1c0.1-0.1,0.3-0.1,0.4-0.1h0.1c0.3-0.1,0.6-0.1,0.9-0.1
				c0.9-0.1,1.7-0.3,2.5-0.8c0.6-0.4,0.9-0.7,0.9-1.2c0-0.1,0-0.1,0-0.2c0,0,0,0,0-0.1c-0.3-0.1-0.5-0.3-0.6-0.6
				c0-0.2-0.1-0.3-0.3-0.3c-0.1,0-0.3-0.1-0.5-0.2c-0.5-0.4-1-0.6-1.5-0.9c-0.6-0.3-1.3-0.6-1.8-1.1c0,0-0.1-0.1-0.2-0.1
				c-0.4-0.1-0.7-0.3-1.1-0.5c-0.1-0.1-0.3-0.2-0.4-0.3c-0.2-0.1-0.4-0.3-0.6-0.4c-0.6-0.2-1.1-0.7-1.3-1.4c0-0.1-0.1-0.2-0.2-0.3
				c-0.2-0.2-0.3-0.4-0.2-0.7c0-0.2,0.2-0.4,0.5-0.6c0.1,0,0.1-0.1,0.1-0.1c0.1-0.3,0.3-0.5,0.5-0.7l0,0c0.3-0.4,0.8-0.6,1.2-0.8
				c0.1-0.1,0.3-0.1,0.4-0.2c0.3-0.1,0.5-0.3,0.9-0.3c0.1,0,0.2,0,0.3-0.1c0.4-0.1,0.8-0.2,1.3-0.2c0.3-0.2,0.7-0.1,0.8,0
				c0.2,0.1,0.4,0.2,0.6,0.4c0.3,0.2,0.6,0.4,0.9,0.3c0.6-0.1,1.3,0,1.8,0.3l0,0l0,0c0.2-0.2,0.5-0.3,0.8-0.2c0.1,0,0.2,0.1,0.3,0.1
				c0.2,0,0.3,0.1,0.5,0.2c0.2,0.1,0.3,0.1,0.6-0.1C58.4,11,58.5,10.8,58.5,10.5C58.6,10.6,58.5,10.6,58.5,10.5"/>
			<path class="st0" d="M32.8,18.6c0.1,0.2,0.1,0.4,0.2,0.5c0.2,0.5,0.4,0.6,0.6,0.6c0.3,0,0.5,0.1,0.7,0.2c0.1,0.1,0.3,0,0.3,0
				c0.2-0.1,0.5-0.3,0.5-0.5c0.1-0.2,0-0.5,0-0.8c-0.1-0.3-0.1-0.6,0-1l0,0c-0.2-0.3-0.5-0.6-0.5-1l0,0c0,0,0,0-0.1-0.1
				c-0.1-0.1-0.2-0.2-0.3-0.3c-0.2-0.5-0.4-0.9-0.7-1.4l-0.1-0.3c-0.2-0.4-0.4-0.5-0.6-0.5l0,0l0,0c0,0,0,0,0,0.1
				c-0.1,0.2-0.1,0.4-0.1,0.7v0.2c0,0.3,0,0.6,0,0.9c0,0.2,0,0.3,0,0.5c0,0.3,0,0.6-0.1,1C32.6,17.9,32.7,18.2,32.8,18.6"/>
		</g>
		<g>
			<path class="st0" d="M93.2,23.8c0.1-0.1,0.2-0.2,0.1-0.3c0-0.2-0.1-0.4-0.5-0.5c-0.1,0-0.3-0.1-0.4-0.1c-0.4-0.1-0.8-0.2-1.1-0.5
				c0,0-0.1,0-0.2,0c-0.2,0-0.4-0.1-0.6-0.2c-0.1-0.1-0.3-0.2-0.4-0.3c-0.3-0.2-0.7-0.4-0.9-0.8c-0.2,0-0.5-0.1-0.6-0.2
				c-0.1-0.1-0.2-0.1-0.3-0.1c-0.6,0.1-1.2-0.1-1.6-0.2l-0.2-0.1c-0.2,0-0.3-0.1-0.5-0.1c-0.4-0.1-0.8-0.2-1.2-0.4
				c-0.2-0.1-0.3-0.2-0.5-0.3c-0.3-0.2-0.6-0.4-0.9-0.5c-0.4-0.1-0.6-0.4-0.9-0.6c-0.1-0.1-0.1-0.1-0.2-0.2c0,0-0.1,0-0.2-0.1
				c-0.1,0-0.3-0.1-0.4-0.2c-0.4-0.4-0.6-1-0.7-1.5c-0.1-0.3,0-0.5,0.3-0.7c0.1-0.1,0.3-0.2,0.4-0.3c0.3-0.2,0.6-0.5,1-0.6
				c0.3-0.1,0.5-0.3,0.7-0.5c0.2-0.2,0.5-0.4,0.8-0.6c0,0,0.1,0,0.1-0.1c0.1,0,0.2-0.1,0.2-0.1c0.1-0.3,0.3-0.4,0.5-0.6
				c0.2-0.2,0.4-0.3,0.4-0.5c0.1-0.3,0.3-0.5,0.4-0.7l0.1-0.1c0.4-0.5,0.5-0.9,0.5-1.5v-0.1v-0.1c0,0,0-0.1-0.1-0.3
				c-0.1-0.1-0.2-0.3-0.2-0.5c-0.2,0-0.3-0.1-0.5-0.2c0,0-0.1,0-0.1-0.1c-0.2-0.1-0.5-0.1-0.8,0c-0.2,0.1-0.4,0.3-0.4,0.6
				c0,0.4-0.1,0.7-0.4,0.9L84,11c-0.4,0.4-0.8,0.8-1.2,1.1c-0.1,0.1-0.1,0.1-0.1,0.3c0,0.1,0,0.2,0,0.3c0.1,0.4,0.1,0.9-0.3,1.3
				c-0.1,0.1-0.2,0.3-0.3,0.4s-0.1,0.2-0.2,0.2c-0.1,0.1-0.3,0.3-0.5,0.3c-0.1,0-0.3,0-0.4-0.1c-0.3,0.1-0.8,0.3-1.1-0.2
				c-0.3,0-0.6-0.3-0.7-0.4L79.3,14c-0.3,0.1-0.5,0-0.6,0h-0.1c-0.4-0.2-0.7-0.4-0.9-0.7c0,0,0,0-0.1,0c-0.4-0.1-0.6,0.1-0.8,0.2
				c-0.2,0.2-0.4,0.5-0.4,0.8c0,0.1,0,0.3,0,0.4c0,0.5,0.1,0.9,0,1.4c0.5,0.6,0.5,1.4,0.4,1.9c0,0.3-0.1,0.7-0.1,1
				c0,0.7,0,1.4,0,1.9c0,0.5,0,1,0,1.5c0,0.1,0,0.2,0,0.3c0,0.3,0.1,0.5,0,0.8c-0.1,0.2-0.1,0.4,0,0.6c0.2,0.7-0.2,1-0.5,1.2
				c-0.1,0-0.2,0.1-0.3,0.3c-0.2,0.3-0.2,0.4,0.1,0.6c0.2,0.2,0.5,0.5,0.7,0.8c0,0.1,0.1,0.1,0.1,0.2c0.2,0.3,0.2,0.4,0.4,0.4
				c0.4,0,0.8-0.3,0.9-0.8c0.2-1.2,0.2-2.4,0.2-3.4c0-0.1,0-0.2,0-0.3c0-0.4-0.1-0.9,0.2-1.4c-0.1-0.3-0.1-0.5,0-0.7
				c0.1-0.2,0.1-0.5,0.1-0.8s0-0.5,0.1-0.8s0.2-0.6,0.4-0.7c0.3-0.2,0.6,0,0.7,0c0,0,0,0,0.1,0l0.2,0.1c0.1,0.1,0.3,0.2,0.4,0.2h0.1
				c0.5,0.3,0.9,0.6,1.3,1.1c0.1,0.1,0.1,0.2,0.2,0.3c0.2,0.3,0.3,0.5,0.6,0.5c0.2,0,0.3,0.1,0.4,0.2c0,0,0,0,0.1,0.1
				c0.3,0.2,0.5,0.4,0.7,0.7c0.2,0.2,0.4,0.4,0.6,0.6c0.3,0.2,0.5,0.4,0.8,0.6c0.4,0.3,0.7,0.5,1.1,0.8c0,0,0.1,0.1,0.2,0.1
				c0.2,0.1,0.4,0.1,0.5,0.4c0.5,0.7,1.2,0.8,1.9,0.8H89c0.3,0,0.7,0,0.9-0.1c0.5-0.2,0.9-0.3,1.4-0.4
				C92.3,24.3,92.9,24.1,93.2,23.8"/>
			<path class="st0" d="M77.8,12.4c0.4-0.1,0.8-0.1,1.2-0.2c0.4-0.1,0.9-0.1,1.3-0.2c0.7-0.1,1.3-0.1,1.8-0.4c0.1,0,0.2-0.1,0.4,0
				c0-0.4,0.1-0.7,0.2-1.1c0.2-0.8,0.4-1.5,0.5-2.2c0-0.1,0-0.2,0-0.4c0.1-0.6,0.1-1.1,0.5-1.5C84,5.9,84.1,5.5,84.4,5
				s0.5-1.1,0.3-1.5c-0.3-0.8-1-1.1-1.5-1.3c-0.7-0.2-1.4,0-2.1,0.5c-0.5,0.4-1.1,0.4-1.5,0.4c-0.2,0-0.4,0-0.7,0
				c-0.2,0-0.3-0.1-0.4-0.1c-0.2-0.2-0.4-0.2-0.6-0.2c-0.3,0-0.6-0.2-0.6-0.4s0-0.4,0.3-0.6c0.1-0.1,0.2-0.2,0.4-0.2h0.1
				c0.2-0.1,0.3-0.2,0.3-0.4c0-0.1,0-0.1,0-0.1L78.3,1c-0.3-0.4-0.6-0.9-1-1s-0.7-0.1-0.9,0s-0.3,0.4-0.3,0.7v0.1v0.1
				c-0.1,0.2-0.2,0.6-0.5,0.9c-0.2-0.2-0.2-0.1-0.2-0.1c-0.1,0.1-0.2,0.1-0.2,0.2c-0.1,0.9-0.6,1.4-1.1,1.7c0,0-0.1,0-0.1,0.1
				l-0.1,0.1c0,0.2-0.1,0.4-0.2,0.5c-0.2,0.1-0.4,0.1-0.5,0c-0.4-0.1-0.7-0.2-1.1-0.4c-0.2-0.1-0.2,0-0.5,0.2c0,0-0.1,0.1,0,0.3
				c0.1,0.1,0.1,0.2,0.1,0.3c0.1,0.2,0.2,0.5,0.3,0.7c0.2,0.4,0.2,0.8,0,1.3c-0.1,0.2-0.1,0.4,0,0.6l0.1,0.2
				c0.2,0.4,0.5,0.8,0.8,1.1c0,0.1,0.1,0.1,0.1,0.2c0.3,0.4,0.7,0.8,0.5,1.5v0.1c0.1,0.5,0.1,0.9,0.2,1.4l0,0c0,0.1,0.1,0.4-0.1,0.6
				c-0.1,0.1-0.3,0.1-0.4,0.1c-0.1,0.2-0.4,0.4-0.7,0.4c-0.2,0-0.4,0.1-0.6,0.3c0,0,0.1,0,0.1,0.1c0.3,0.1,0.5,0.2,0.7,0.5
				c0.3-0.1,0.7-0.2,1.2-0.2c0.4,0,0.7-0.1,1-0.3c0.5-0.3,1-0.5,1.4-0.6C77.1,12.5,77.5,12.4,77.8,12.4 M75.9,11.7L75.9,11.7
				c-0.3,0-0.4-0.1-0.5-0.2c-0.1-0.1-0.1-0.3-0.1-0.6c0-0.1,0-0.3,0-0.5c0-0.2,0-0.4,0-0.6c-0.3-0.3-0.2-0.7-0.2-1
				c0-0.1,0-0.2,0-0.2c0-0.1,0-0.2-0.1-0.3c0-0.1,0-0.2-0.1-0.2c-0.1-0.3-0.2-0.7-0.3-1c-0.2-0.5-0.3-1-0.3-1.5
				c-0.5-0.6-0.2-1.2,0-1.5c0.2-0.3,0.6-0.6,1-0.6c0.3,0,0.6,0.1,0.8,0.4c0.1,0.2,0.3,0.3,0.5,0.5c0.2,0.1,0.4,0.2,0.5,0.4
				c0,0,0,0,0.1,0c0.3-0.1,0.6-0.1,0.9-0.1c0.2,0,0.4,0,0.6,0h0.1h0.1c0.5-0.3,1-0.4,1.5-0.4c0.1,0,0.3,0,0.4-0.1
				c0.1,0,0.1,0,0.2-0.1s0.3-0.1,0.4-0.2c0.2,0,0.4,0,0.6,0.1C82,4.2,82,4.5,82,4.6c0,0.1,0,0.2,0,0.3V5c0.1,0.5-0.1,1-0.2,1.4v0.1
				c0,0.7-0.4,1.1-0.9,1.5c-0.3,0.2-0.4,0.7-0.4,1.2c0.1,0.9-0.3,1.5-1.1,1.7c-0.5,0.1-1,0.2-1.5,0.3c-0.2,0-0.4,0.1-0.7,0.2
				c-0.2,0.1-0.4,0.2-0.6,0.2C76.5,11.7,76.3,11.7,75.9,11.7L75.9,11.7z"/>
			<path class="st0" d="M72.6,22.7c0.2-0.3,0.4-0.5,0.6-0.7c0.3-0.2,0.5-0.5,0.6-0.7c0.2-0.3,0.3-0.6,0.6-0.8
				c0.2-0.2,0.3-0.4,0.4-0.7c0-0.1,0.1-0.2,0.1-0.3c0.2-0.5,0.4-0.9,0.6-1.4c0-0.1,0.1-0.3,0.2-0.5c0.3-0.3,0.4-0.6,0.5-1
				c0-0.1,0-0.2,0.1-0.3c0-0.5-0.1-0.8-0.4-0.9c-0.2-0.1-0.4-0.1-0.7-0.2c-0.5-0.1-0.5-0.1-0.7,0.3c-0.1,0.4-0.4,0.6-0.8,0.6
				c-0.1,0-0.2,0-0.3,0.1c-0.2,0-0.4,0.1-0.6,0.2l-0.1,0.1C72.6,16.8,72.4,17,72,17c-0.2,0.3-0.6,0.5-0.9,0.6
				c-0.1,0.1-0.3,0.1-0.4,0.2c-0.4,0.2-0.8,0.4-1.1,0.5c-0.3,0.1-0.6,0.2-0.9,0.4c-0.2,0.1-0.2,0.1-0.2,0.3c0,0.2,0.1,0.3,0.3,0.5
				c0.1,0.1,0.1,0.1,0.2,0.2c0.4,0.4,0.8,0.4,1.3,0.1c0.6-0.4,1.1-0.7,1.5-1c0.2-0.1,0.4-0.2,0.6-0.3c0.1,0,0.2-0.1,0.3-0.1
				c0.1,0,0.3,0,0.4,0.2s0.1,0.5,0,0.7c-0.1,0.1-0.1,0.2-0.2,0.3c-0.2,0.4-0.5,0.8-0.9,1.2c-0.2,0.2-0.3,0.3-0.3,0.3
				c-0.2,0.6-0.4,1.1-0.7,1.5c-0.1,0.2-0.2,0.3-0.3,0.5c-0.2,0.4,0,0.5,0,0.5c0.1,0.1,0.4,0.1,0.6-0.1C72,23.3,72.4,23.1,72.6,22.7"
				/>
			<path class="st0" d="M76.6,7.6c-0.2,0.2-0.3,0.3-0.3,0.5c0,0.1,0,0.3-0.1,0.4l0,0h0.2c0.8,0,1.6-0.2,2.7-0.5c0.1,0,0.1,0,0.2,0
				c0.3-0.1,0.5-0.1,0.6-0.3C80,7.4,80,7.1,79.9,7c-0.2-0.2-0.5-0.4-1-0.2l-0.2,0.1c-0.6,0.3-1.2,0.6-1.9,0.5
				C76.7,7.4,76.7,7.5,76.6,7.6"/>
		</g>
		<g>
			<path class="st0" d="M3.3,25.7c0-0.2,0-0.5,0.2-0.8c0.1-0.2,0.3-0.5,0.4-0.7c0-0.2,0.2-0.3,0.2-0.5c0.1-0.2,0.2-0.3,0.2-0.5
				c0.1-0.2,0.1-0.5,0.2-0.7s0.1-0.3,0.2-0.5c0.1-0.3,0.2-0.5,0.3-0.8c0.1-0.3,0.3-0.5,0.3-0.8c0-0.1,0-0.1,0-0.2
				c0-0.2,0-0.4,0.1-0.6c0.2-0.3,0.3-0.7,0.3-1.1c0.1-0.3,0.1-0.6,0.2-0.8v-0.1c0,0-0.1,0-0.2,0c-0.3,0-0.5,0.2-0.6,0.4
				c-0.3,0.8-0.7,1.4-1.2,1.9c-0.1,0.1-0.2,0.2-0.3,0.4c-0.2,0.3-0.3,0.5-0.6,0.7l0,0v0.1c-0.2,0.4-0.4,0.7-0.8,1
				c-0.2,0.1-0.3,0.2-0.5,0.1c-0.1,0-0.2-0.2-0.3-0.3v-0.1c0-0.1-0.1-0.3-0.1-0.5s0-0.3,0.1-0.5c0-0.4,0.1-0.8,0.2-1.2
				c0.1-0.2,0.2-0.4,0.2-0.6c0-0.1,0.1-0.2,0.1-0.3c0.3-0.7,0.6-1.5,0.8-2.3c0-0.1,0-0.1,0.1-0.2c0.1-0.3,0.1-0.5,0-0.8
				c0-0.1-0.1-0.3-0.1-0.4c-0.2-0.5-0.3-0.9-0.6-1.3c-0.2-0.2-0.3-0.5-0.4-0.8c-0.1-0.3-0.2-0.5-0.4-0.7c-0.2-0.2-0.2-0.4-0.2-0.6
				c0-0.1,0.2-0.3,0.5-0.4c0,0,0,0,0-0.1c0-0.2,0-0.3-0.3-0.4c-0.1,0-0.1,0-0.2-0.1C1,11,0.9,11,0.8,11.1l-0.1,0.1
				c0.4,0.2,0.3,0.3,0.2,0.5v0.1c-0.1,0.2-0.2,0.5-0.2,0.7v0.1c-0.1,0.7-0.2,1.3,0,1.9c0.1,0.2,0.1,0.4,0.2,0.7
				C1,15.5,1,15.6,1.1,15.8c0.2,0.4,0.3,0.8,0.3,1.1c0,0.9,0,1-0.4,1.5c-0.1,0.1-0.1,0.2-0.1,0.4c0,0.4,0,0.7,0,1c0,0.1,0,0.3,0,0.4
				c0,0.3,0,0.5-0.1,0.8c-0.1,0.3-0.1,0.6-0.1,0.9c0,0.1,0.1,0.3,0.1,0.4c0.1,0.4,0.2,0.8,0.1,1.2c0.3,0.3,0.4,0.6,0.5,0.9
				c0.1,0.2,0.1,0.4,0.2,0.5c0.1,0.2,0.3,0.5,0.3,0.9c0,0.3,0.2,0.5,0.4,0.8c0.1,0.1,0.1,0.2,0.2,0.2c0.2,0.3,0.5,0.4,0.8,0.4
				c0.1,0,0.3-0.1,0.4-0.6l0,0c0,0,0-0.1,0-0.2C3.3,25.9,3.3,25.8,3.3,25.7"/>
			<path class="st0" d="M1.7,9.2c0.2,0,0.4-0.2,0.5-0.3c0-0.2,0.1-0.4,0.2-0.6c0-0.1,0.1-0.1,0.1-0.2c0.4-0.6,1-1,1.7-1.2
				c0.6,0,0.9-0.1,1.1-0.5c0-0.1,0.1-0.2,0.1-0.3c0-0.1,0-0.2,0.1-0.3c0.1-0.4,0-0.7-0.4-0.9C4.9,4.9,4.7,4.8,4.6,4.8
				C4.1,4.5,3.5,4.3,2.9,4.3c-0.1,0-0.3,0-0.4-0.1H2.4c-0.1,0-0.1,0-0.2,0c-0.6,0.1-1-0.1-1.4-0.3c0.1-0.1,0-0.1-0.1-0.2
				C0.7,3.7,0.6,3.7,0.5,3.6c0,0,0,0-0.1,0S0.2,3.7,0.1,3.7C0,3.8,0,3.8,0,3.8C0,4,0.2,4.3,0.4,4.4c0.3,0.3,0.7,0.6,1,0.8
				c0.2,0.2,0.4,0.3,0.6,0.5c0.3,0.2,0.4,0.6,0.3,0.9c-0.1,0.2-0.1,0.4,0,0.6c0,0.1,0,0.3,0,0.3l0,0C2,8,1.8,8.5,1.5,8.9
				c0,0-0.1,0.1,0,0.3C1.6,9.2,1.6,9.2,1.7,9.2"/>
			<path class="st0" d="M22.4,21.5c0.1,0,0.3,0.1,0.4,0.2c0.5,0.2,0.9,0.4,1.4,0.3c0.2,0,0.3-0.1,0.3-0.2s0-0.2,0-0.3
				c-0.1-0.2-0.2-0.4-0.3-0.7c0,0,0-0.1-0.1-0.1c-0.1-0.1-0.2-0.3-0.2-0.5c0-0.3-0.1-0.5-0.4-0.7c-0.1,0-0.1,0-0.1-0.1l0,0
				c-0.2,0-0.3-0.1-0.4-0.2l-0.1-0.1c-0.2-0.1-0.4-0.2-0.6-0.4l0,0c-0.1,0-0.3-0.1-0.4-0.2l0,0c-0.1,0-0.1-0.1-0.2-0.1l-0.4-0.2
				c-0.1,0-0.1,0-0.2,0c-0.2,0-0.4-0.1-0.6-0.2L20.4,18c-0.6,0-1.2-0.2-1.8-0.4c-0.1,0-0.2-0.1-0.3-0.1c-0.6-0.4-1.2-0.4-1.7-0.4
				c-0.3,0-0.5,0-0.8-0.2l-0.1-0.1l-0.1-0.2v-0.1c0-0.2,0-0.3-0.1-0.5c-0.1-0.4-0.1-0.8,0-1.2c0-0.1,0-0.3,0-0.5c0-0.1,0-0.1,0-0.2
				c0-0.1,0-0.1,0-0.2c0-0.2-0.1-0.5,0.1-0.8v-0.1V13c-0.1-0.5-0.2-1.1,0.2-1.5l0.1-0.1l0.1-0.1c0.1-0.1,0.2-0.2,0.4-0.2h0.1
				c0.2-0.3,0.5-0.4,0.8-0.5c0.2,0,0.4-0.1,0.6-0.2c0.1-0.1,0.3-0.1,0.5-0.2c0.2-0.1,0.4-0.2,0.6-0.2c0.4-0.2,0.9-0.4,1.4-0.4
				c0.1,0,0.1,0,0.2-0.1c-0.1-0.1,0-0.3-0.1-0.5c0-0.3-0.1-0.6-0.3-0.8c0-0.1-0.1-0.1-0.1-0.2c0-0.1-0.2-0.1-0.4-0.2
				c-0.6-0.1-1.2-0.2-1.6,0c-0.1,0-0.2,0.1-0.3,0.1c-0.1,0-0.2,0.1-0.3,0.1c-0.2,0.1-0.4,0.2-0.5,0.2l0,0c-0.3,0.1-0.5,0.1-0.7-0.1
				c-0.2-0.1-0.3-0.3-0.4-0.6c-0.1-0.4,0-0.7,0.1-1.1c0-0.1-0.1-0.2-0.1-0.4c0.1-0.1,0-0.3,0-0.5c0-0.3-0.1-0.6,0.1-0.9
				c0.3-0.7,0.3-1.3-0.1-1.8c-0.1-0.1-0.1-0.2-0.2-0.3c0-0.1-0.1-0.1-0.1-0.2c-0.2-0.3-0.4-0.4-0.6-0.5c-0.1,0-0.3-0.1-0.4-0.2
				c-0.3-0.2-0.6-0.2-1.1-0.1c-0.3,0.1-0.4,0.5-0.3,0.8c0.1,0.3,0.3,0.6,0.4,0.8c0.2,0.4,0.3,0.8,0.3,1.1c0,0.1,0,0.3,0,0.4
				c0,0.1,0,0.2,0,0.3c0,0.1,0,0.3,0,0.4c0.1,0.3,0.1,0.7,0,1C14,6.7,14,6.9,14,7.2c0,0.1,0,0.2,0,0.3c0.1,0.7-0.2,1.4-0.9,1.5
				c-0.2,0.1-0.4,0.2-0.6,0.3c-0.2,0.1-0.3,0.2-0.5,0.3c-0.1,0.1-0.2,0.1-0.3,0.2c-0.2,0.1-0.5,0.2-0.7,0.4
				c-0.1,0.1-0.2,0.1-0.3,0.2s-0.2,0.2-0.3,0.2c-0.1,0.1-0.2,0.1-0.3,0.2c-0.6,0.4-1.2,0.8-1.8,1c-0.3,0.1-0.6,0.2-1,0.2
				c-0.1,0-0.3,0.1-0.4,0.2c-0.1,0.1-0.1,0.3,0,0.5c0.1,0.2,0.2,0.4,0.5,0.5c0.1,0,0.2,0.1,0.3,0.2c0.4,0.3,0.8,0.4,1.2,0.4
				c0.1,0,0.3,0,0.4,0.1c0.1,0.1,0.2,0.1,0.4-0.1s0.4-0.3,0.6-0.4c0.2-0.1,0.3-0.2,0.5-0.3C10.9,13,10.9,13,11,13
				c0.1,0,0.1-0.1,0.2-0.1c0.1-0.2,0.4-0.3,0.7-0.2c0.2,0.1,0.2,0.2,0.3,0.2c0.1,0.2,0,0.4,0,0.4c-0.1,0.3-0.2,0.5-0.3,0.7l-0.1,0.3
				l-0.2,0.3c0,0.1-0.1,0.3-0.2,0.3l0,0c-0.1,0.3-0.2,0.4-0.4,0.5c0,0-0.1,0-0.1,0.1c-0.1,0.2-0.2,0.3-0.3,0.4c0,0,0,0.1-0.1,0.1
				L10.5,16c0,0.1-0.1,0.2-0.1,0.2c0,0.1-0.1,0.2-0.2,0.2l0,0c0,0.1-0.1,0.3-0.3,0.5L9.8,17c0,0.1-0.1,0.2-0.1,0.2s-0.1,0.1-0.2,0.1
				l0.2,0.6c-0.1,0.2-0.2,0.4-0.3,0.6l0,0c-0.1,0.1-0.2,0.3-0.3,0.4c-0.2,0.3-0.3,0.5-0.4,0.6c-0.1,0.1-0.1,0.1-0.2,0.2
				c-0.3,0.3-0.6,0.7-1.1,0.7c-0.2,0-0.4,0.2-0.5,0.3l0,0c-0.3,0.4-0.5,0.8-0.6,1.3c0,0.1,0,0.2,0,0.3c0,0,0.1,0.1,0.2,0.1
				c0.3,0,0.7,0,1.1-0.2l0.2,0c0.7-0.2,1.4-0.4,1.8-1c0.1-0.2,0.3-0.3,0.5-0.4c0.2-0.1,0.4-0.3,0.5-0.5s0.3-0.4,0.4-0.6
				c0.1-0.1,0.2-0.2,0.2-0.3c0.4-0.6,0.9-1,1.5-1.1c0.1,0,0.1,0,0.2,0c0.2,0,0.3,0,0.4,0.1c0.1,0.1,0.2,0.3,0.2,0.4v0.4
				c0,0.4,0,0.8,0,1.1c0,0.3,0,0.6-0.1,0.9v0.2c0,0.3,0,0.6,0,1c0,0.4,0.1,0.8,0,1.2c0,0.1,0,0.2,0,0.2c0.2,0.7,0.2,1.4,0.1,1.9v0.2
				c0,0.3,0.1,0.6,0.2,0.9c0,0.1,0.1,0.2,0.1,0.4c0.1,0.3,0.2,0.5,0.4,0.6c0.3,0.2,0.2,0.5,0.2,0.6s0,0.1,0.3,0.2l0,0
				c0.1,0,0.1-0.1,0.1-0.1c0.2-0.4,0.3-0.7,0.3-1c0-0.4,0.1-0.9,0.1-1.3v-0.2c0.1-0.5,0.2-0.9,0.1-1.3c0-0.5,0-0.9,0-1.4
				s0-1.1,0-1.5c-0.1-0.6-0.1-1.4,0-2.2c0-0.1,0.1-0.3,0.2-0.5c0.1-0.1,0.3-0.1,0.5-0.1c0.4,0.1,0.9,0.2,1.5,0.4
				c0.9,0.3,1.5,0.7,2.1,1.1c0,0,0,0,0.1,0c0.5,0.1,1.1,0.3,1.5,0.8c0.1,0.1,0.3,0.1,0.3,0.1c0.3,0,0.5,0.1,0.6,0.1
				C22.3,21.5,22.4,21.5,22.4,21.5"/>
		</g>
	</g>
	<g>
		<path class="st1" d="M130.3,7.8c0.4,0.1,0.7,0,1.1-0.2c0.5-0.3,1-0.1,1.5,0c0.4,0.1,0.7,0.2,1.1,0.2c0.5,0,0.6-0.1,0.5-0.6
			c0-0.2,0.1-0.3,0.3-0.3c0.6,0.1,1.1,0.1,1.6,0.4c0.2,0.1,0.3,0.3,0.5,0.5c0.3,0.4,0.6,0.4,1,0.2c0.6-0.4,0.8-0.4,1.3,0.2
			c0.2,0.3,0.5,0.2,0.7,0.1c0.6-0.3,1.2-0.3,1.6,0.1c0.8,0.5,1.5,1.1,2.3,1.6c0.2,0.2,0.5,0.3,0.7,0.5c0.2,0.2,0.3,0.5,0.3,0.8
			c0,0.3,0.1,0.6,0.4,0.9c0.4,0.4,0.5,0.9,0,1.4c-0.3,0.3-0.3,0.5,0,0.8c0.2,0.2,0.3,0.4,0.5,0.6c0.3,0.4,0.1,1.1-0.2,1.5
			c-0.4,0.5-1,0.8-1.4,1.2c-0.2,0.2-0.3,0.4-0.1,0.6c0.3,0.3,0.3,0.7,0,1c-0.4,0.4-0.6,0.9-0.8,1.5c-0.1,0.2-0.1,0.4-0.3,0.5
			c-0.3,0.4-0.5,0.7-0.7,1.2c-0.1,0.5-0.9,0.6-1.2,0.1c-0.1-0.2-0.3-0.2-0.5-0.1c-0.5,0.4-1.1,0.2-1.5,0.3c-0.3,0-0.5-0.3-0.4-0.6
			c0.2-0.4,0.4-0.7,0.7-0.9c0.1-0.1,0.1-0.1,0.1-0.2s-0.1-0.1-0.2-0.1c-0.2,0-0.4-0.1-0.6-0.2c-0.4-0.1-0.6-0.6-0.4-0.9
			c0.1-0.2,0.1-0.3-0.1-0.4c-0.4-0.5-0.2-1.3,0.5-1.4c0.3,0,0.5-0.2,0.5-0.6c0-0.5-0.2-1.1-0.2-1.5c0-0.1,0-0.2-0.1-0.2
			c-0.2,0-0.2,0.1-0.2,0.2c0,0.3-0.2,0.6-0.4,0.8c-0.2,0.2-0.5,0.4-0.8,0.5c-0.3,0.1-0.5,0-0.5-0.3c0.2-0.6,0-1.3,0.5-1.7
			c0.2-0.2,0.1-0.5-0.2-0.7c-0.1-0.1-0.2-0.1-0.4-0.1c-0.5-0.2-0.7,0-0.9,0.5c-0.2,0.5-0.2,1-0.3,1.4c-0.1,0.2-0.2,0.3-0.4,0.4
			c-0.3,0.1-0.6,0.2-0.6,0.6c0,0.4-0.4,0.3-0.7,0.3c-0.6,0-1-0.2-1.2-0.8c-0.1-0.4-0.5-0.4-0.8-0.5c-0.5-0.1-1-0.4-1.2-1
			c-0.1-0.3-0.3-0.5-0.3-0.8c-0.1-0.4-0.4-0.5-0.7-0.5c-0.2,0-0.3,0-0.5,0c-0.4,0-0.8-0.1-1-0.6c-0.1-0.3-0.4-0.3-0.6-0.2
			c-0.2,0.1-0.5,0.2-0.7,0.3c-0.4,0.3-0.8,0-1.1-0.1c-0.8-0.2-1.4-0.6-1.5-1.4c-0.1-0.9-0.1-1.2,0.9-1.5c0.4-0.1,0.8-0.4,1.2-0.4
			c0,0,0.1,0,0.1-0.1c0.1-0.3,0.4-0.4,0.6-0.6c0.3-0.3,0.7-0.5,1-0.8c0.4-0.4,0.9-0.6,1.4-0.7C130.1,7.8,130.2,7.9,130.3,7.8"/>
		<path class="st1" d="M135,24.5c-0.2,0.3-0.3,0.6-0.5,0.9c-0.2,0.2-0.4,0.2-0.5,0.1c-0.2-0.1-0.4-0.2-0.4-0.5c0-0.6,0-1.1,0.2-1.5
			c0.1-0.3,0.5-0.5,0.8-0.4c0.2,0.1,0.3,0,0.3-0.2c0.2-0.4,0.1-0.8,0.1-1.2c0-0.2-0.1-0.2-0.3-0.2c-0.4,0-0.5-0.2-0.6-0.5
			c-0.1-0.5,0.1-1,0-1.5c0-0.2,0.7-0.7,0.9-0.7c0.2,0,0.3,0.2,0.4,0.4c0,0.1,0,0.2,0.1,0.2c0.1,0.2,0.1,0.4,0.4,0.4
			c0.2,0,0.3-0.2,0.4-0.4c0.1-0.2,0.2-0.3,0.4-0.3c0.2,0,0.4,0.1,0.5,0.3c0.1,0.2,0.2,0.3,0.3,0.4c0.2,0.3,0.3,0.6,0.2,0.9
			c-0.2,0.6-0.4,1.1-0.6,1.5c0,0.1-0.1,0.2-0.1,0.2c-0.5,0.4-0.5,1-0.4,1.5c0.1,0.3,0.1,0.6,0.2,1c0,0.4-0.2,0.6-0.6,0.5
			c-0.2-0.1-0.5,0-0.6-0.2C135.2,24.9,135.1,24.6,135,24.5"/>
		<path class="st1" d="M105.6,24.3c0.2-0.5,0-1.2,0.3-1.6c0.1-0.2,0-0.4-0.2-0.4c-0.4-0.2-0.5-0.5-0.7-0.8c-0.1-0.3-0.3-0.6-0.5-0.8
			c-0.1-0.2-0.2-0.5-0.2-0.8c0-0.2,0-0.3,0.2-0.4c0.2-0.1,0.3,0,0.5,0.1c0.2,0.2,0.4,0.4,0.7,0.6c0.2,0.1,0.3,0,0.3-0.1
			c0-0.3,0-0.6-0.2-0.9c-0.2-0.2-0.3-0.4-0.1-0.6c0.3-0.3,0.6-0.3,0.8-0.1c0.2,0.2,0.4,0.3,0.6,0.4c0.1,0.1,0.3,0.2,0.2,0.4
			c-0.1,0.2-0.3,0.2-0.4,0.2c-0.4,0-0.5,0.1-0.5,0.5c0.1,0.5,0.4,0.8,0.9,0.7c0.2,0,0.4,0.1,0.5,0.3c0.1,0.2,0.1,0.5-0.1,0.6
			c-0.3,0.2-0.5,0.7-1,0.5c-0.1,0-0.3,0-0.3,0.2c0,0.2,0.1,0.4,0.3,0.5c0.1,0.1,0.2,0,0.3,0l0.1-0.1c0.2-0.2,0.4-0.3,0.6-0.2
			c0.2,0.1,0.1,0.3,0.1,0.5c-0.1,0.4,0,0.6,0.4,0.6c0.1,0,0.2,0.1,0.2,0.2s-0.1,0.2-0.2,0.3c-0.3,0.2-0.6,0.3-1,0.3
			c-0.3-0.1-0.5,0-0.7,0.3c-0.2,0.4-0.4,0.5-0.8,0.4C105.5,24.9,105.7,24.6,105.6,24.3"/>
		<path class="st1" d="M110.9,3.8c0-0.2-0.1-0.4,0.1-0.7c0.5-0.8,1.2-1.1,1.9-0.6c0.3,0.2,0.4,0.1,0.5-0.2s0.2-0.6,0.6-0.6
			c0.4,0,0.6,0.2,0.8,0.6c0.3,0.4,0.3,0.9,0.5,1.3c0.1,0.1-0.3,0.5-0.5,0.5c-0.5,0.1-0.9,0-1.3-0.4c-0.1,0-0.2,0-0.3,0.1
			c-0.1,0-0.2,0.1-0.2,0.3c0,0.3,0,0.6-0.1,1c-0.2,0.4-0.4,0.5-0.8,0.4C111.3,5.2,110.8,4.9,110.9,3.8"/>
		<path class="st1" d="M113.1,24.7c0,0.1-0.1,0.2-0.2,0.3c-0.3,0.2-0.6,0.5-1,0.3c-0.2-0.1-0.3,0-0.4,0.1s-0.2,0.1-0.3,0.1
			c-0.1-0.1-0.1-0.2-0.1-0.4c0-0.1,0-0.2,0.1-0.2c0.1-0.3-0.1-0.4-0.4-0.3s-0.6,0.2-0.8,0.5c-0.5,0.6-1.3,0.8-1.7,1.3
			c0,0-0.1,0.1-0.2,0.1c-0.2,0.1-0.3,0-0.3-0.3s0.2-0.5,0.4-0.6c0.6-0.5,1.1-1.1,1.8-1.4c0.5-0.2,1.2-0.2,1.5,0.2
			c0.1,0.1,0.2,0,0.3,0c0.1-0.1,0.2-0.2,0.4-0.3C112.6,23.8,113.1,24.2,113.1,24.7"/>
		<path class="st1" d="M107.8,9.3c0,0.2-0.1,0.4-0.3,0.4c-0.1,0.1-0.3,0-0.4-0.1c-0.3-0.2-0.7-0.5-1.1-0.7s-0.5-0.6-0.2-0.9
			c0.1-0.1,0.2-0.2,0.3-0.1c0.7,0.2,1.3,0.5,1.5,1.2C107.8,9.2,107.8,9.3,107.8,9.3"/>
		<path class="st1" d="M104.8,22.2c0.4,0,0.6,0.3,0.6,0.5S105.2,23,105,23c-0.3,0-0.4-0.2-0.5-0.5C104.5,22.2,104.7,22.2,104.8,22.2
			"/>
		<path class="st1" d="M132.4,23c-0.1-0.1-0.3-0.1-0.5,0.1c-0.1,0.1-0.2,0.2-0.3,0.3c-0.1,0.1-0.2,0.1-0.3-0.1
			c-0.2-0.4-0.1-0.7,0.4-0.8c0.5-0.1,0.9-0.4,0.8-0.7c-0.1-0.9,0-1.7,0-2.6c0-0.2-0.1-0.4-0.3-0.6c-0.2-0.2-0.2-0.3-0.1-0.6
			c0.1-0.2,0.2-0.5,0.2-0.7c-0.1-0.5-0.5-0.9-0.8-1.3c-0.4-0.4-1.1-0.6-1.5-1c-0.3-0.2-0.7-0.4-0.9-0.7c-0.3-0.3-0.8-0.7-1.2-0.6
			c-0.7,0.1-1.4,0.1-1.9,0.3c-0.3,0.1-0.6,0-0.8-0.2c-0.3-0.3-0.7-0.5-1-0.8c-0.5-0.3-1.1-0.5-1.6-0.3c-0.7,0.2-1.3,0.6-1.9,0.8
			c-0.3,0.1-0.6,0.1-0.8-0.1c-0.3-0.2-0.5-0.4-0.8-0.7c-0.3-0.3-0.7-0.4-1-0.6c-0.2-0.2-0.5-0.2-0.8-0.1c-0.9,0.4-1.8,0.7-2.7,1.1
			c-1.2,0.4-2.3,0.9-3.5,1.3c-0.4,0.1-0.6-0.1-0.6-0.4c0.1-0.7,0-1.5,0-2.1c0-0.2-0.1-0.4,0-0.6c0-0.2,0.1-0.3,0.3-0.3
			s0.3,0.1,0.3,0.3c0,0.1,0,0.2,0.1,0.2c0.4,0.2,0.5,0.6,0.6,1c0,0.1,0.2,0.2,0.3,0.3c0.2,0.3,0.6,0.3,0.9,0.2s0.2-0.4,0.2-0.7
			c0-0.1,0-0.1,0-0.2c-0.1-0.7-0.1-1.3-0.9-1.5c-0.1,0-0.1-0.1-0.1-0.2c0-0.3,0-0.5,0.1-0.8c0.1-0.5,0.2-0.6,0.7-0.4
			c0.3,0.1,0.5,0.2,0.8,0c0.3-0.3,0.5-0.5,0.9-0.6c0.1,0,0.2-0.2,0.2-0.3c0.3-0.4,0.6-0.8,1-1c0.1-0.1,0.2-0.2,0.1-0.3
			c-0.2-0.3-0.2-0.6-0.5-0.9c-0.3-0.2-0.3-0.4,0-0.6c0.3-0.3,0.3-0.4,0.1-0.8c-0.1-0.1-0.3-0.2-0.4-0.3c-0.2-0.3-0.6-0.4-0.9-0.3
			c-0.2,0.1-0.2,0.5-0.1,0.9c0.1,0.3,0.5,0.5,0.5,0.9c0,0.2,0.1,0.4-0.1,0.4c-0.2,0.1-0.4,0-0.5-0.2c-0.1-0.2-0.2-0.4-0.3-0.5
			c-0.3-0.5-0.8-0.5-1.2-0.1c-0.2,0.2-0.3,0.5-0.6,0.7c-0.1,0.1-0.2,0.3-0.4,0.2c-0.2-0.1-0.2-0.3-0.2-0.4c0-0.4-0.3-0.7-0.7-0.8
			c-0.4-0.1-0.5,0.2-0.7,0.4c-0.1,0.1-0.1,0.2-0.2,0.3c-0.2,0.3-0.1,0.6-0.2,0.9c0,0.1,0,0.4-0.2,0.3c-0.2-0.1-0.2-0.3-0.4-0.3l0,0
			c0-0.2,0-0.4,0.1-0.6c0-0.1,0.1-0.1,0.1-0.2c0-0.2,0.1-0.3,0-0.5l0,0c0.1-0.4,0.1-0.8-0.3-1.1c-0.1-0.1-0.3-0.2-0.3-0.3
			C108.6,4,108.4,4,108,4c-0.5,0.2-0.6,0.3-0.5,0.6c0.1,0.3,0.1,0.6,0.1,1c-0.1,0.6,0.1,1,0.6,1.4c0.5,0.4,0.8,0.9,0.8,1.5
			c0,0.3,0,0.7,0.4,0.9c0.4,0.2,0.4,0.4,0.2,0.8c-0.3-0.3-0.7-0.4-1.1-0.4c-0.3,0-0.5,0.3-0.8,0.4c-0.4,0.2-0.2,0.5-0.2,0.7
			s0.2,0.3,0.5,0.3c0.2,0,0.4-0.1,0.6,0.1c0.2,0.2,0.4,0.3,0.6,0.3c0.5,0.2,0.5,0.2,0.4,0.7c-0.1,0.7-0.2,1.3-0.1,1.9
			c0,0.3,0.1,0.6,0.5,0.7c0.1,0,0.3,0,0.3,0.2c0,0.1-0.1,0.2-0.2,0.3c-0.4,0.3-0.9,0.6-1.3,0.9c-0.6,0.4-1.3,0.8-1.8,1.2
			c-0.1,0.1-0.3,0.2-0.2,0.4c0,0.1,0.1,0.2,0.3,0.2c0.4,0.1,0.8,0.2,1.1,0.2c0.3,0,0.5,0.2,0.5,0.5c0,0.7,0,1.5,0,2.1
			c0,0.2,0,0.4,0.1,0.5c0.2,0.3,0.2,0.6,0.2,0.9c0,0.3,0.2,0.6,0.5,0.7c0.4,0.1,0.9,0.2,1.3,0.2c0.3,0,0.5,0.1,0.7,0.4
			c0.3,0.4,0.5,0.5,1,0.2c0.2-0.1,0.3-0.2,0.5-0.2c0.6,0,1.2,0,1.7,0c0.1,0,0.3,0,0.3,0.1c0,0.2-0.1,0.3-0.2,0.3
			c-0.1,0.1-0.3,0.1-0.4,0.1c-0.5,0.2-0.7,0.7-0.5,1c0.3,0.6,1.5,0.7,1.7,0.1c0.1-0.2,0.3-0.4,0.6-0.5c0.2-0.1,0.3-0.2,0.2-0.4
			c0-0.1,0-0.1,0-0.2c0.1-0.1,0.2-0.1,0.3,0c0.1,0,0.1,0.1,0,0.2c0,0.1,0,0.1-0.1,0.2c-0.2,0.3,0,0.5,0.1,0.6c0.2,0.2,0.3,0.1,0.5,0
			c0.1-0.1,0.2,0,0.2,0c0.3,0,0.5-0.1,0.5-0.4c0-0.2,0.1-0.2,0.3-0.2s0.4,0.1,0.7,0.1c0.8,0,1.5,0.4,2.3,0.5c1,0.1,1.8,0.5,2.8,0.4
			c0.3,0,0.6,0.1,0.9,0.2c0.5,0.2,1,0.2,1.4,0c0.3-0.1,0.4-0.2,0.7,0s0.6,0.2,0.9,0c0.2-0.1,0.2-0.4,0.2-0.6c0-0.1-0.1-0.2-0.1-0.3
			c0-0.1-0.1-0.3,0-0.4c0.2-0.2,0.5-0.1,0.7-0.1c0.2,0,0.2,0.1,0.2,0.3c0,0.4,0.2,0.7,0.3,1.1s0.6,0.5,0.9,0.3
			c0.2-0.1,0.4-0.3,0.5-0.5c0.2-0.4,0.5-0.6,1-0.6c0.2,0,0.4,0,0.4-0.2c0.1-0.4,0.3-0.6,0.6-0.8c0.2-0.1,0.3-0.2,0.5-0.3
			C132.6,23.4,132.5,23.1,132.4,23 M108.2,17.7c-0.2,0-0.4,0-0.4-0.2s0.1-0.3,0.3-0.5c0.1,0,0.2,0,0.2-0.1c0.4-0.2,0.7-0.3,1-0.7
			c0.3-0.4,0.7-0.7,1.3-0.9c0.4-0.1,0.7,0,0.9,0.3c0.9,0.8,1.5,1.7,2.4,2.5c0.2,0.2,0.1,0.3-0.1,0.4c-0.1,0-0.2,0-0.3,0
			c-0.2,0-0.3,0-0.4-0.1c-0.2-0.1-0.5-0.2-0.8-0.2c-0.8,0-1.5-0.3-2.1-0.4C109.4,17.9,108.7,17.8,108.2,17.7 M110.5,22.1
			c-0.2,0-0.2-0.1-0.2-0.3c0-0.2,0-0.3,0.2-0.3c0.2,0,0.1,0.2,0.2,0.3C110.6,21.9,110.7,22.1,110.5,22.1 M112.1,22.5
			c-0.3,0-0.5-0.3-0.5-0.7c0-0.2,0.2-0.3,0.4-0.3c0.3,0,0.5,0.3,0.5,0.6C112.4,22.3,112.4,22.5,112.1,22.5 M113.3,20.9
			c-0.9,0-1.7-0.3-2.5-0.3c-0.3,0-0.6-0.1-0.7-0.5s-0.2-0.8-0.3-1c0-0.4,0.1-0.5,0.4-0.4c0.2,0.1,0.4,0.1,0.6,0.1
			c0.6,0,1.2,0.1,1.7,0.3c0.2,0.1,0.5,0,0.7,0c0.3,0,0.5,0.1,0.8,0.2c0.1,0,0.2,0.2,0.1,0.3c-0.2,0.3-0.1,0.5-0.1,0.8
			C113.9,20.8,113.7,20.9,113.3,20.9 M113.9,22.6c-0.3,0-0.5-0.1-0.4-0.4c0-0.2,0-0.5,0.3-0.5s0.4,0.2,0.5,0.5
			C114.2,22.5,114.1,22.6,113.9,22.6 M114,17.1c-0.1-0.1-0.2-0.3-0.3-0.4c-0.4-0.4-0.7-0.9-1.3-1.1c-0.1-0.1-0.3-0.1-0.2-0.3
			c0-0.2,0.1-0.3,0.3-0.4c1-0.4,2-0.8,3-1.3c0.4-0.2,0.8-0.3,1.2-0.5c0.2-0.1,0.4-0.1,0.7-0.1c0.6-0.1,1,0.4,1.5,0.6
			c0.3,0.1,0.5,0.3,0.7,0.5c0.2,0.2,0.3,0.3,0,0.6c-0.9,0.9-1.8,1.5-3,2.1c-0.2,0.1-0.3,0.2-0.2,0.4c0,0.2-0.1,0.4-0.3,0.5
			c-0.2,0.1-0.5,0.2-0.7,0.3c-0.2,0.1-0.3,0-0.4-0.1C114.7,17.6,114.4,17.4,114,17.1 M117,18.9c0.7-0.4,1.4-0.7,2.1-1
			c0.2-0.1,0.4-0.2,0.6-0.4c0.3-0.3,0.5-0.3,0.8,0c0.3,0.3,0.6,0.7,0.9,1c0.5,0.4,0.9,0.9,1.3,1.4c0.1,0.1,0.1,0.1,0.1,0.3
			c0,0.1-0.1,0.1-0.2,0.1c-1.2-0.3-2.3-0.2-3.5-0.7c-0.3-0.1-0.8-0.2-1.1-0.1c-0.4,0-0.7-0.1-1-0.2c-0.1,0-0.2-0.1-0.2-0.2
			C116.8,19,116.9,18.9,117,18.9 M116.1,22.9c-0.3,0-0.3-0.2-0.3-0.3c0-0.2,0-0.4,0.2-0.4s0.3,0.1,0.3,0.3
			C116.3,22.8,116.3,22.9,116.1,22.9 M117.7,23.3c-0.2,0-0.3-0.2-0.3-0.4c0-0.1,0.1-0.2,0.3-0.2c0.2,0,0.2,0.2,0.2,0.3
			C117.9,23.2,117.9,23.3,117.7,23.3 M118,21.8L118,21.8c-0.1-0.2,0-0.2,0-0.2c0.2-0.1,0.4-0.1,0.7,0c0.1,0.1,0.2,0.2,0.4,0.3
			C118.7,22.1,118.3,21.8,118,21.8 M119.7,23.9c-0.2,0-0.6-0.3-0.6-0.6c0-0.2,0.1-0.3,0.3-0.3c0.3,0,0.6,0.2,0.6,0.5
			C120,23.6,120,23.8,119.7,23.9 M121.9,24.1c-0.3,0.1-0.6,0.2-0.9-0.1c-0.1-0.1-0.2-0.3-0.2-0.5c0-0.1,0.2-0.2,0.3-0.2
			c0.3,0,0.6,0,0.8,0.1c0.1,0.1,0.2,0.2,0.2,0.3C122.2,23.8,122.1,24,121.9,24.1 M125,24.3c0,0.3-0.3,0.4-0.5,0.4
			c-0.5,0-1,0-1.5-0.2c-0.3-0.1-0.5-0.6-0.3-0.8c0.1-0.1,0.1-0.1,0.3-0.1s0.3,0,0.4,0c0.5,0,0.9,0,1.3,0.2
			C124.9,23.9,125.1,24,125,24.3 M128.2,23.5c-0.3,0-0.6,0-0.8-0.1c-0.4-0.2-0.9-0.3-1.4-0.4c-0.2,0-0.3-0.1-0.2-0.4
			c0.2-0.4-0.3-0.4-0.5-0.6c-0.2-0.1-0.4-0.1-0.6,0.1c-0.1,0.1,0,0.2,0.1,0.3c0.1,0.2,0.3,0.3,0.5,0.5c-0.5,0.1-1,0.1-1.4,0
			c-0.8-0.2-1.6-0.3-2.4-0.4c-0.3,0-0.6-0.1-0.9-0.2c-0.2-0.1-0.5-0.1-0.8-0.1c-0.1,0-0.2,0-0.3,0c-0.5-0.1-0.5-0.1-0.2-0.6
			c0-0.1,0-0.1,0.1-0.2c0.1-0.2,0.3-0.3,0.1-0.5c-0.2-0.2-0.4-0.4-0.7-0.3c-0.3,0-0.6,0-0.8-0.1c-0.5-0.1-1-0.1-1.5,0
			c-0.2,0-0.4,0.2-0.3,0.5c0.1,0.1,0.1,0.3-0.1,0.4c-0.2,0.1-0.2,0-0.4-0.1c-0.5-0.2-0.8-0.5-0.8-1c0-0.2-0.1-0.4-0.2-0.6
			c-0.1-0.2,0-0.3,0.2-0.3c0.4,0,0.8,0,1.1,0.3c0.1,0.1,0.3,0.2,0.5,0.2c0.6,0,1.3,0.1,1.8,0.2c0.5,0.1,1.1,0.2,1.5,0.4
			c0.2,0.1,0.4,0.1,0.6,0.1c0.6,0,1.2,0.1,1.6,0.2c0.6,0.1,1.3,0.3,1.9,0.2c0.5-0.1,1.1-0.1,1.5,0.1c0.2,0.1,0.5,0.1,0.7,0
			c0.6-0.1,1.2,0.1,1.7,0.3c0.1,0,0.3,0.1,0.3,0.3c0,0.4,0.1,0.8,0.2,1.2C128.8,23.4,128.7,23.5,128.2,23.5 M123.6,19.5
			c0.2-0.2,0.5-0.3,0.7-0.6c0.3-0.4,0.8-0.7,1.2-0.9c0.3-0.2,0.5-0.1,0.8,0.1c0.5,0.5,1,1,1.5,1.5c0.1,0.1,0.3,0.3,0.5,0.4
			c0.1,0.1,0.3,0.3,0.2,0.5c-0.1,0.2-0.3,0.2-0.5,0.2c-0.2-0.1-0.5-0.1-0.7-0.2c-0.4-0.2-0.9-0.2-1.3-0.2c-0.7-0.1-1.5,0-2.1-0.3
			C123.5,20.1,123.5,19.8,123.6,19.5 M128.9,19.1c-0.2-0.3-0.5-0.5-0.8-0.8c-0.3-0.3-0.6-0.6-1-0.8c-0.5-0.4-1.1-0.6-1.6-0.2
			c-0.6,0.4-1.3,0.7-2,1c-0.2,0.1-0.3,0.1-0.4,0.3c-0.2,0.2-0.5,0.2-0.7,0c-0.6-0.5-1.2-1-1.6-1.5c-0.2-0.2-0.4-0.3-0.7-0.3
			c-0.4,0-0.8,0-1.2,0c-0.4,0-0.7,0.1-1.1,0.3c-0.3,0.1-0.6,0-0.8,0.1c0.4-0.4,0.8-0.7,1.3-0.8c0.5-0.1,1-0.3,1.5-0.6
			c0.4-0.3,0.9-0.4,1.3-0.6c0.3-0.2,0.4-0.4,0.4-0.7c0-0.5,0.1-0.6,0.6-0.7c0.2,0,0.4-0.1,0.6-0.2c0.3-0.2,0.5-0.1,0.8,0.1
			c0.6,0.4,1.1,0.8,1.6,1.1c0.4,0.2,0.9,0.3,1.4,0c1.1-0.6,1.5-0.4,2.1,0.2c0.2,0.2,0.4,0.4,0.7,0.5c0.3,0.2,0.6,0.4,0.8,0.7
			c0.2,0.3,0.6,0.5,0.9,0.7c0.6,0.3,0.6,0.8,0.1,1.2c-0.5,0.4-0.9,0.9-1.4,1.2C129.4,19.4,129,19.3,128.9,19.1 M130.4,23.8
			c-0.1,0.2-0.1,0.5-0.4,0.5c-0.2,0-0.3-0.3-0.3-0.5c0-0.1,0.4-0.4,0.5-0.4S130.4,23.5,130.4,23.8 M129.8,22.9
			c-0.1,0.1-0.1,0.2-0.2,0.1c-0.1,0-0.2-0.1-0.2-0.3c-0.1-0.5-0.1-1-0.3-1.4c-0.1-0.2,0-0.3,0.1-0.4c0.7-0.5,1.3-1.1,1.8-1.6
			c0.1-0.1,0.2-0.3,0.3-0.2c0.2,0.1,0.1,0.3,0.1,0.4c0,0.7-0.1,1.3-0.1,1.8c0,0.1,0,0.2-0.1,0.3C130.7,22.1,130.2,22.5,129.8,22.9"
			/>
		<path class="st1" d="M122.9,22.3c-0.6,0-1-0.1-1.4-0.5c-0.1-0.1-0.2-0.1-0.1-0.2c0-0.1,0.1-0.1,0.2-0.1c0.4,0,0.7-0.1,1.1,0.1
			c0.2,0.1,0.4,0.1,0.6,0.1c0.3,0,0.4,0.2,0.5,0.4c0,0.3-0.2,0.4-0.5,0.4C123.2,22.3,123.1,22.3,122.9,22.3"/>
	</g>
</g>
</svg>
